{
.appVersion = "3058";
copyright = "Typeface © Khalid Alabdullah. 2020. All Rights Reserved";
customParameters = (
{
name = panose;
value = (
2,
0,
8,
0,
0,
0,
0,
0,
0,
0
);
},
{
name = unicodeRanges;
value = (
0,
13,
67
);
},
{
name = fsType;
value = (
);
},
{
name = glyphOrder;
value = (
.notdef,
.null,
CR,
space,
uni061F,
uni0621,
uni0622,
uni0623,
uni0624,
uni0625,
uni0626,
uni0627,
uni0628,
uni0629,
uni062A,
uni062B,
uni062C,
uni062D,
uni062E,
uni062F,
uni0630,
uni0631,
uni0632,
uni0633,
uni0634,
uni0635,
uni0636,
uni0637,
uni0638,
uni0639,
uni063A,
uni0640,
uni0641,
uni0642,
uni0643,
uni0644,
uni0645,
uni0646,
uni0647,
uni0648,
uni0649,
uni064A,
uni064B,
uni064C,
uni064D,
uni064E,
uni064F,
uni0650,
uni0651,
uni0652,
uni0660,
uni0661,
uni0662,
uni0663,
uni0664,
uni0665,
uni0666,
uni0667,
uni0668,
uni0669,
uni066A,
uni066B,
uni066C,
uni066D,
uniFE80,
uniFE81,
uniFE82,
uniFE83,
uniFE84,
uniFE85,
uniFE86,
uniFE87,
uniFE88,
uniFE89,
uniFE8A,
uniFE8B,
uniFE8C,
uniFE8D,
uniFE8E,
uniFE8F,
uniFE90,
uniFE91,
uniFE92,
uniFE93,
uniFE94,
uniFE95,
uniFE96,
uniFE97,
uniFE98,
uniFE99,
uniFE9A,
uniFE9B,
uniFE9C,
uniFE9D,
uniFE9E,
uniFE9F,
uniFEA0,
uniFEA1,
uniFEA2,
uniFEA3,
uniFEA4,
uniFEA5,
uniFEA6,
uniFEA7,
uniFEA8,
uniFEA9,
uniFEAA,
uniFEAB,
uniFEAC,
uniFEAD,
uniFEAE,
uniFEAF,
uniFEB0,
uniFEB1,
uniFEB2,
uniFEB3,
uniFEB4,
uniFEB5,
uniFEB6,
uniFEB7,
uniFEB8,
uniFEB9,
uniFEBA,
uniFEBB,
uniFEBC,
uniFEBD,
uniFEBE,
uniFEBF,
uniFEC0,
uniFEC1,
uniFEC2,
uniFEC3,
uniFEC4,
uniFEC5,
uniFEC6,
uniFEC7,
uniFEC8,
uniFEC9,
uniFECA,
uniFECB,
uniFECC,
uniFECD,
uniFECE,
uniFECF,
uniFED0,
uniFED1,
uniFED2,
uniFED3,
uniFED4,
uniFED5,
uniFED6,
uniFED7,
uniFED8,
uniFED9,
uniFEDA,
uniFEDB,
uniFEDC,
uniFEDD,
uniFEDE,
uniFEDF,
uniFEE0,
uniFEE1,
uniFEE2,
uniFEE3,
uniFEE4,
uniFEE5,
uniFEE6,
uniFEE7,
uniFEE8,
uniFEE9,
uniFEEA,
uniFEEB,
uniFEEC,
uniFEED,
uniFEEE,
uniFEEF,
uniFEF0,
uniFEF1,
uniFEF2,
uniFEF3,
uniFEF4,
uniFEF5,
uniFEF6,
uniFEF7,
uniFEF8,
uniFEF9,
uniFEFA,
uniFEFB,
uniFEFC,
_189,
_202,

glyphs = (
{
glyphname = zero;
lastChange = "2020-09-17 12:49:14 +0000";
layers = (
{
layerId = "75B2229F-4D44-4147-BD02-A22690DA2091";
paths = (
{
closed = 1;
nodes = (
"149 190 OFFCURVE",
"307 -25 OFFCURVE",
"647 -25 CURVE SMOOTH",
"986 -25 OFFCURVE",
"1077 158 OFFCURVE",
"1005 567 CURVE SMOOTH",
"949 884 OFFCURVE",
"795 1142 OFFCURVE",
"450 1142 CURVE SMOOTH",
"134 1142 OFFCURVE",
"8 992 OFFCURVE",
"83 563 CURVE SMOOTH"
);
},
{
closed = 1;
nodes = (
"48 955 OFFCURVE",
"145 1108 OFFCURVE",
"456 1108 CURVE SMOOTH",
"718 1108 OFFCURVE",
"902 957 OFFCURVE",
"971 567 CURVE SMOOTH",
"1042 163 OFFCURVE",
"950 9 OFFCURVE",
"641 9 CURVE SMOOTH",
"345 9 OFFCURVE",
"185 177 OFFCURVE",
"117 563 CURVE SMOOTH"
);
}
);
width = 1090;
},
{
layerId = "0D3446AC-0247-4F99-A3DB-2CE2433AA8CC";
paths = (
{
closed = 1;
nodes = (
"149 190 OFFCURVE",
"307 -25 OFFCURVE",
"647 -25 CURVE SMOOTH",
"986 -25 OFFCURVE",
"1077 158 OFFCURVE",
"1005 567 CURVE SMOOTH",
"949 884 OFFCURVE",
"803 1142 OFFCURVE",
"450 1142 CURVE SMOOTH",
"134 1142 OFFCURVE",
"8 992 OFFCURVE",
"83 563 CURVE"
);
},
{
closed = 1;
nodes = (
"359 760 OFFCURVE",
"342 933 OFFCURVE",
"476 933 CURVE SMOOTH",
"612 933 OFFCURVE",
"659 758 OFFCURVE",
"695 554 CURVE SMOOTH",
"727 370 OFFCURVE",
"746 189 OFFCURVE",
"608 189 CURVE SMOOTH",
"477 189 OFFCURVE",
"428 374 OFFCURVE",
"394 562 CURVE"
);
}
);
width = 1090;
}
);
unicode = 0030;
},
{
glyphname = one;
lastChange = "2020-10-30 11:33:27 +0000";
layers = (
{
layerId = "75B2229F-4D44-4147-BD02-A22690DA2091";
paths = (
{
closed = 1;
nodes = (
"529 1006 OFFCURVE",
"438 913 OFFCURVE",
"237 845 CURVE",
"253 813 LINE",
"443 877 OFFCURVE",
"549 967 OFFCURVE",
"598 1113 CURVE",
"797 0 LINE",
"831 0 LINE",
"629 1147 LINE",
"571 1147 LINE"
);
}
);
width = 814;
},
{
layerId = "0D3446AC-0247-4F99-A3DB-2CE2433AA8CC";
paths = (
{
closed = 1;
nodes = (
"328 1006 OFFCURVE",
"237 913 OFFCURVE",
"36 845 CURVE",
"81 588 LINE",
"218 632 OFFCURVE",
"292 673 OFFCURVE",
"382 752 CURVE",
"514 0 LINE",
"831 0 LINE",
"629 1147 LINE",
"370 1147 LINE"
);
}
);
width = 814;
}
);
unicode = 0031;
},
{
glyphname = two;
lastChange = "2020-09-17 12:49:14 +0000";
layers = (
{
background = {
paths = (
{
closed = 1;
nodes = (
"505 255 LINE",
"562.333 312.333 OFFCURVE",
"580.333 328 OFFCURVE",
"707 416 CURVE SMOOTH",
"919 565.333 OFFCURVE",
"987 681.667 OFFCURVE",
"987 819 CURVE SMOOTH",
"987 1053 OFFCURVE",
"798 1147 OFFCURVE",
"532 1147 CURVE SMOOTH",
"248 1147 OFFCURVE",
"115 1054 OFFCURVE",
"77 787 CURVE",
"391 762 LINE",
"408.333 888.667 OFFCURVE",
"460 933 OFFCURVE",
"540 933 CURVE SMOOTH",
"617.333 933 OFFCURVE",
"674 877.333 OFFCURVE",
"674 808 CURVE SMOOTH",
"674 717 OFFCURVE",
"578 640 OFFCURVE",
"460 552 CURVE SMOOTH",
"158.667 329.333 OFFCURVE",
"75.333 185.333 OFFCURVE",
"54 0 CURVE",
"994 0 LINE",
"994 255 LINE"
);
}
);
};
layerId = "75B2229F-4D44-4147-BD02-A22690DA2091";
paths = (
{
closed = 1;
nodes = (
"191 34 LINE",
"156 234 OFFCURVE",
"341 370 OFFCURVE",
"543 468 CURVE SMOOTH",
"761 574 OFFCURVE",
"976 634 OFFCURVE",
"944 819 CURVE SMOOTH",
"902 1053 OFFCURVE",
"697 1147 OFFCURVE",
"431 1147 CURVE SMOOTH",
"147 1147 OFFCURVE",
"30 1054 OFFCURVE",
"39 787 CURVE",
"74 782 LINE",
"65 1025 OFFCURVE",
"162 1113 OFFCURVE",
"437 1113 CURVE SMOOTH",
"715 1113 OFFCURVE",
"876 1011 OFFCURVE",
"910 819 CURVE SMOOTH",
"937 665 OFFCURVE",
"722 595 OFFCURVE",
"521 502 CURVE SMOOTH",
"363 429 OFFCURVE",
"104 289 OFFCURVE",
"155 0 CURVE",
"1095 0 LINE",
"1089 34 LINE"
);
}
);
width = 1200;
},
{
layerId = "0D3446AC-0247-4F99-A3DB-2CE2433AA8CC";
paths = (
{
closed = 1;
nodes = (
"591 255 LINE",
"638 312 OFFCURVE",
"653 328 OFFCURVE",
"765 416 CURVE SMOOTH",
"950 565 OFFCURVE",
"998 682 OFFCURVE",
"974 819 CURVE SMOOTH",
"932 1053 OFFCURVE",
"727 1147 OFFCURVE",
"461 1147 CURVE SMOOTH",
"177 1147 OFFCURVE",
"60 1054 OFFCURVE",
"69 787 CURVE",
"388 762 LINE",
"382 889 OFFCURVE",
"427 933 OFFCURVE",
"507 933 CURVE SMOOTH",
"584 933 OFFCURVE",
"650 877 OFFCURVE",
"663 808 CURVE SMOOTH",
"679 717 OFFCURVE",
"596 640 OFFCURVE",
"494 552 CURVE SMOOTH",
"232 329 OFFCURVE",
"174 185 OFFCURVE",
"185 0 CURVE",
"1125 0 LINE",
"1080 255 LINE"
);
}
);
width = 1108;
}
);
unicode = 0032;
},
{
glyphname = three;
lastChange = "2020-09-17 12:49:14 +0000";
layers = (
{
background = {
paths = (
{
closed = 1;
nodes = (
"648 546 OFFCURVE",
"688 426 OFFCURVE",
"688 335 CURVE SMOOTH",
"688 233 OFFCURVE",
"625 166 OFFCURVE",
"541 166 CURVE SMOOTH",
"461 166 OFFCURVE",
"410.333 207.333 OFFCURVE",
"385 334 CURVE",
"72 292 LINE",
"142 54 OFFCURVE",
"293 -25 OFFCURVE",
"549 -25 CURVE SMOOTH",
"813 -25 OFFCURVE",
"1004 109 OFFCURVE",
"1004 352 CURVE SMOOTH",
"1004 628 OFFCURVE",
"661 663 OFFCURVE",
"453 705 CURVE",
"437 481 LINE"
);
},
{
closed = 1;
nodes = (
"946 779 OFFCURVE",
"946 852 CURVE SMOOTH",
"946 1020 OFFCURVE",
"823 1142 OFFCURVE",
"528 1142 CURVE SMOOTH",
"272 1142 OFFCURVE",
"138 1038 OFFCURVE",
"89 849 CURVE",
"385 796 LINE",
"401 908 OFFCURVE",
"449 947 OFFCURVE",
"522 947 CURVE SMOOTH",
"594 947 OFFCURVE",
"638 902 OFFCURVE",
"638 834 CURVE SMOOTH",
"638 762 OFFCURVE",
"575 701 OFFCURVE",
"494 701 CURVE SMOOTH",
"484 701 OFFCURVE",
"470 702 OFFCURVE",
"453 705 CURVE",
"437 481 LINE",
"933 605 OFFCURVE"
);
}
);
};
layerId = "75B2229F-4D44-4147-BD02-A22690DA2091";
paths = (
{
closed = 1;
nodes = (
"619 570 OFFCURVE",
"963 597 OFFCURVE",
"1006 352 CURVE SMOOTH",
"1044 140 OFFCURVE",
"906 9 OFFCURVE",
"646 9 CURVE SMOOTH",
"388 9 OFFCURVE",
"249 86 OFFCURVE",
"151 296 CURVE",
"119 292 LINE",
"231 54 OFFCURVE",
"396 -25 OFFCURVE",
"652 -25 CURVE SMOOTH",
"916 -25 OFFCURVE",
"1083 109 OFFCURVE",
"1040 352 CURVE SMOOTH",
"992 628 OFFCURVE",
"627 610 OFFCURVE",
"419 621 CURVE",
"425 588 LINE"
);
},
{
closed = 1;
nodes = (
"87 1026 OFFCURVE",
"201 1108 OFFCURVE",
"431 1108 CURVE SMOOTH",
"682 1108 OFFCURVE",
"831 1018 OFFCURVE",
"860 852 CURVE SMOOTH",
"887 699 OFFCURVE",
"687 589 OFFCURVE",
"419 621 CURVE",
"425 588 LINE",
"897 563 OFFCURVE",
"907 779 OFFCURVE",
"894 852 CURVE SMOOTH",
"865 1020 OFFCURVE",
"720 1142 OFFCURVE",
"425 1142 CURVE SMOOTH",
"169 1142 OFFCURVE",
"53 1038 OFFCURVE",
"38 849 CURVE",
"72 843 LINE"
);
}
);
width = 1200;
},
{
background = {
paths = (
{
closed = 1;
nodes = (
"648 546 OFFCURVE",
"688 426 OFFCURVE",
"688 335 CURVE SMOOTH",
"688 233 OFFCURVE",
"625 166 OFFCURVE",
"541 166 CURVE SMOOTH",
"461 166 OFFCURVE",
"410.333 207.333 OFFCURVE",
"385 334 CURVE",
"72 292 LINE",
"142 54 OFFCURVE",
"293 -25 OFFCURVE",
"549 -25 CURVE SMOOTH",
"813 -25 OFFCURVE",
"1004 109 OFFCURVE",
"1004 352 CURVE SMOOTH",
"1004 628 OFFCURVE",
"661 663 OFFCURVE",
"453 705 CURVE",
"437 481 LINE"
);
},
{
closed = 1;
nodes = (
"946 779 OFFCURVE",
"946 852 CURVE SMOOTH",
"946 1020 OFFCURVE",
"823 1142 OFFCURVE",
"528 1142 CURVE SMOOTH",
"272 1142 OFFCURVE",
"138 1038 OFFCURVE",
"89 849 CURVE",
"385 796 LINE",
"401 908 OFFCURVE",
"449 947 OFFCURVE",
"522 947 CURVE SMOOTH",
"594 947 OFFCURVE",
"638 902 OFFCURVE",
"638 834 CURVE SMOOTH",
"638 762 OFFCURVE",
"575 701 OFFCURVE",
"494 701 CURVE SMOOTH",
"484 701 OFFCURVE",
"470 702 OFFCURVE",
"453 705 CURVE",
"437 481 LINE",
"933 605 OFFCURVE"
);
}
);
};
layerId = "0D3446AC-0247-4F99-A3DB-2CE2433AA8CC";
paths = (
{
closed = 1;
nodes = (
"650 546 OFFCURVE",
"711 426 OFFCURVE",
"727 335 CURVE SMOOTH",
"745 233 OFFCURVE",
"694 166 OFFCURVE",
"610 166 CURVE SMOOTH",
"530 166 OFFCURVE",
"472 207 OFFCURVE",
"425 334 CURVE",
"119 292 LINE",
"231 54 OFFCURVE",
"396 -25 OFFCURVE",
"652 -25 CURVE SMOOTH",
"916 -25 OFFCURVE",
"1083 109 OFFCURVE",
"1040 352 CURVE SMOOTH",
"992 628 OFFCURVE",
"643 663 OFFCURVE",
"427 705 CURVE",
"451 481 LINE"
);
},
{
closed = 1;
nodes = (
"339 908 OFFCURVE",
"380 947 OFFCURVE",
"453 947 CURVE SMOOTH",
"525 947 OFFCURVE",
"577 902 OFFCURVE",
"589 834 CURVE SMOOTH",
"605 743 OFFCURVE",
"516 679 OFFCURVE",
"427 705 CURVE",
"451 481 LINE",
"752 567 OFFCURVE",
"931 633 OFFCURVE",
"884 900 CURVE SMOOTH",
"853 1075 OFFCURVE",
"650 1142 OFFCURVE",
"425 1142 CURVE SMOOTH",
"169 1142 OFFCURVE",
"53 1038 OFFCURVE",
"38 849 CURVE",
"343 796 LINE"
);
}
);
width = 1200;
}
);
unicode = 0033;
},
{
glyphname = four;
lastChange = "2020-09-17 12:49:14 +0000";
layers = (
{
background = {
paths = (
{
closed = 1;
nodes = (
"886 0 LINE",
"886 211 LINE",
"1028 211 LINE",
"1028 454 LINE",
"886 454 LINE",
"886 1147 LINE",
"613 1147 LINE",
"42 469 LINE",
"42 211 LINE",
"613 211 LINE",
"613 0 LINE"
);
},
{
closed = 1;
nodes = (
"647 245 LINE",
"76 245 LINE",
"76 457 LINE",
"629 1113 LINE",
"852 1113 LINE",
"852 420 LINE",
"994 420 LINE",
"994 245 LINE",
"852 245 LINE",
"852 34 LINE",
"647 34 LINE"
);
},
{
closed = 1;
nodes = (
"613 809 LINE",
"613 454 LINE",
"311 454 LINE"
);
}
);
};
layerId = "75B2229F-4D44-4147-BD02-A22690DA2091";
paths = (
{
closed = 1;
nodes = (
"875 0 LINE",
"838 211 LINE",
"1092 211 LINE",
"1086 245 LINE",
"832 245 LINE",
"673 1147 LINE",
"626 1147 LINE",
"98 256 LINE",
"106 211 LINE",
"804 211 LINE",
"841 0 LINE"
);
},
{
closed = 1;
nodes = (
"645 1113 LINE",
"798 245 LINE",
"134 245 LINE"
);
}
);
width = 1200;
},
{
layerId = "0D3446AC-0247-4F99-A3DB-2CE2433AA8CC";
paths = (
{
closed = 1;
nodes = (
"987 0 LINE",
"950 211 LINE",
"1092 211 LINE",
"1049 454 LINE",
"907 454 LINE",
"785 1147 LINE",
"512 1147 LINE",
"60 469 LINE",
"106 211 LINE",
"677 211 LINE",
"714 0 LINE"
);
},
{
closed = 1;
nodes = (
"571 809 LINE",
"634 454 LINE",
"332 454 LINE"
);
}
);
width = 1200;
}
);
unicode = 0034;
},
{
glyphname = five;
lastChange = "2020-09-17 12:49:14 +0000";
layers = (
{
background = {
paths = (
{
closed = 1;
nodes = (
"67 287 LINE",
"97.667 180.333 OFFCURVE",
"140.333 115 OFFCURVE",
"215 59 CURVE SMOOTH",
"289.667 3 OFFCURVE",
"392.667 -25 OFFCURVE",
"542 -25 CURVE SMOOTH",
"748.667 -25 OFFCURVE",
"879 47.333 OFFCURVE",
"951 182 CURVE SMOOTH",
"987 249.333 OFFCURVE",
"1005 319.333 OFFCURVE",
"1005 392 CURVE SMOOTH",
"1005 600 OFFCURVE",
"850.333 752 OFFCURVE",
"625 752 CURVE SMOOTH",
"485 752 OFFCURVE",
"320 678 OFFCURVE",
"272 653 CURVE",
"375 477 LINE",
"390 481 OFFCURVE",
"410 558 OFFCURVE",
"532 558 CURVE SMOOTH",
"626.667 558 OFFCURVE",
"690 497.333 OFFCURVE",
"690 364 CURVE SMOOTH",
"690 232 OFFCURVE",
"625.667 166 OFFCURVE",
"539 166 CURVE SMOOTH",
"460.333 166 OFFCURVE",
"400 219.667 OFFCURVE",
"384 321 CURVE"
);
},
{
closed = 1;
nodes = (
"207 1122 LINE",
"108 516 LINE",
"375 477 LINE",
"447 872 LINE",
"951 872 LINE",
"951 1122 LINE"
);
}
);
};
layerId = "75B2229F-4D44-4147-BD02-A22690DA2091";
paths = (
{
closed = 1;
nodes = (
"113 287 LINE",
"220 57 OFFCURVE",
"391 -25 OFFCURVE",
"643 -25 CURVE SMOOTH",
"917 -25 OFFCURVE",
"1079 131 OFFCURVE",
"1033 392 CURVE SMOOTH",
"996 600 OFFCURVE",
"775 752 OFFCURVE",
"505 752 CURVE SMOOTH",
"240 752 OFFCURVE",
"161 582 OFFCURVE",
"127 541 CURVE",
"149 511 LINE",
"182 554 OFFCURVE",
"253 718 OFFCURVE",
"511 718 CURVE SMOOTH",
"760 718 OFFCURVE",
"965 584 OFFCURVE",
"999 392 CURVE SMOOTH",
"1040 157 OFFCURVE",
"900 9 OFFCURVE",
"637 9 CURVE SMOOTH",
"383 9 OFFCURVE",
"241 89 OFFCURVE",
"147 291 CURVE"
);
},
{
closed = 1;
nodes = (
"106 1122 LINE",
"114 516 LINE",
"149 511 LINE",
"141 1088 LINE",
"856 1088 LINE",
"850 1122 LINE"
);
}
);
width = 1200;
},
{
layerId = "0D3446AC-0247-4F99-A3DB-2CE2433AA8CC";
paths = (
{
closed = 1;
nodes = (
"113 287 LINE",
"220 57 OFFCURVE",
"391 -25 OFFCURVE",
"643 -25 CURVE SMOOTH",
"917 -25 OFFCURVE",
"1079 131 OFFCURVE",
"1033 392 CURVE SMOOTH",
"996 600 OFFCURVE",
"814 752 OFFCURVE",
"589 752 CURVE SMOOTH",
"449 752 OFFCURVE",
"297 678 OFFCURVE",
"254 653 CURVE",
"388 477 LINE",
"389 513 OFFCURVE",
"408 558 OFFCURVE",
"530 558 CURVE SMOOTH",
"625 558 OFFCURVE",
"699 497 OFFCURVE",
"723 364 CURVE SMOOTH",
"746 232 OFFCURVE",
"693 166 OFFCURVE",
"606 166 CURVE SMOOTH",
"528 166 OFFCURVE",
"458 220 OFFCURVE",
"424 321 CURVE"
);
},
{
closed = 1;
nodes = (
"106 1122 LINE",
"114 516 LINE",
"388 477 LINE",
"390 872 LINE",
"894 872 LINE",
"850 1122 LINE"
);
}
);
width = 1200;
}
);
unicode = 0035;
},
{
glyphname = six;
lastChange = "2020-09-17 12:49:14 +0000";
layers = (
{
background = {
paths = (
{
closed = 1;
nodes = (
"931 1072 OFFCURVE",
"792 1142 OFFCURVE",
"571 1142 CURVE SMOOTH",
"267 1142 OFFCURVE",
"86 960 OFFCURVE",
"86 552 CURVE SMOOTH",
"86 179 OFFCURVE",
"232 -25 OFFCURVE",
"582 -25 CURVE SMOOTH",
"841 -25 OFFCURVE",
"1016 120 OFFCURVE",
"1016 366 CURVE SMOOTH",
"1016 586 OFFCURVE",
"857.333 747 OFFCURVE",
"656 747 CURVE SMOOTH",
"552 747 OFFCURVE",
"478.667 711 OFFCURVE",
"404 635 CURVE",
"417 804 OFFCURVE",
"439 949 OFFCURVE",
"568 949 CURVE SMOOTH",
"624 949 OFFCURVE",
"664 916.667 OFFCURVE",
"680 830 CURVE",
"992 868 LINE"
);
},
{
closed = 1;
nodes = (
"415 486 OFFCURVE",
"481.333 553 OFFCURVE",
"568 553 CURVE SMOOTH",
"653.333 553 OFFCURVE",
"719 485 OFFCURVE",
"719 357 CURVE SMOOTH",
"719 233 OFFCURVE",
"655.333 170 OFFCURVE",
"574 170 CURVE SMOOTH",
"484.667 170 OFFCURVE",
"415 243.333 OFFCURVE",
"415 366 CURVE"
);
}
);
};
layerId = "75B2229F-4D44-4147-BD02-A22690DA2091";
paths = (
{
closed = 1;
nodes = (
"29 870 OFFCURVE",
"85 550 CURVE SMOOTH",
"143 224 OFFCURVE",
"305 -26 OFFCURVE",
"685 -26 CURVE SMOOTH",
"944 -26 OFFCURVE",
"1093 119 OFFCURVE",
"1050 365 CURVE SMOOTH",
"1009 599 OFFCURVE",
"828 746 OFFCURVE",
"543 746 CURVE SMOOTH",
"325 746 OFFCURVE",
"180 626 OFFCURVE",
"126 541 CURVE",
"66 879 OFFCURVE",
"164 1107 OFFCURVE",
"474 1107 CURVE SMOOTH",
"696 1107 OFFCURVE",
"823 1034 OFFCURVE",
"906 857 CURVE",
"937 867 LINE",
"840 1071 OFFCURVE",
"689 1141 OFFCURVE",
"468 1141 CURVE SMOOTH",
"102 1141 OFFCURVE"
);
},
{
closed = 1;
nodes = (
"131 500 CURVE",
"186 592 OFFCURVE",
"335 712 OFFCURVE",
"549 712 CURVE SMOOTH",
"819 712 OFFCURVE",
"979 577 OFFCURVE",
"1016 365 CURVE SMOOTH",
"1055 145 OFFCURVE",
"927 8 OFFCURVE",
"679 8 CURVE SMOOTH",
"333 8 OFFCURVE",
"180 225 OFFCURVE"
);
}
);
width = 1200;
},
{
background = {
paths = (
{
closed = 1;
nodes = (
"931 1072 OFFCURVE",
"792 1142 OFFCURVE",
"571 1142 CURVE SMOOTH",
"267 1142 OFFCURVE",
"86 960 OFFCURVE",
"86 552 CURVE SMOOTH",
"86 179 OFFCURVE",
"232 -25 OFFCURVE",
"582 -25 CURVE SMOOTH",
"841 -25 OFFCURVE",
"1016 120 OFFCURVE",
"1016 366 CURVE SMOOTH",
"1016 586 OFFCURVE",
"857 747 OFFCURVE",
"656 747 CURVE SMOOTH",
"552 747 OFFCURVE",
"479 711 OFFCURVE",
"404 635 CURVE",
"417 804 OFFCURVE",
"439 949 OFFCURVE",
"568 949 CURVE SMOOTH",
"624 949 OFFCURVE",
"664 917 OFFCURVE",
"680 830 CURVE",
"992 868 LINE"
);
},
{
closed = 1;
nodes = (
"415 486 OFFCURVE",
"481 553 OFFCURVE",
"568 553 CURVE SMOOTH",
"653 553 OFFCURVE",
"719 485 OFFCURVE",
"719 357 CURVE SMOOTH",
"719 233 OFFCURVE",
"655 170 OFFCURVE",
"574 170 CURVE SMOOTH",
"485 170 OFFCURVE",
"415 243 OFFCURVE",
"415 366 CURVE"
);
}
);
};
layerId = "0D3446AC-0247-4F99-A3DB-2CE2433AA8CC";
paths = (
{
closed = 1;
nodes = (
"15 952 OFFCURVE",
"85 551 CURVE SMOOTH",
"143 225 OFFCURVE",
"305 -25 OFFCURVE",
"685 -25 CURVE SMOOTH",
"944 -25 OFFCURVE",
"1093 120 OFFCURVE",
"1050 366 CURVE SMOOTH",
"1010 592 OFFCURVE",
"824 747 OFFCURVE",
"608 747 CURVE SMOOTH",
"518 747 OFFCURVE",
"459 713 OFFCURVE",
"391 635 CURVE",
"361 933 OFFCURVE",
"437 949 OFFCURVE",
"499 949 CURVE SMOOTH",
"581 949 OFFCURVE",
"612 882 OFFCURVE",
"632 830 CURVE",
"937 868 LINE",
"840 1072 OFFCURVE",
"689 1142 OFFCURVE",
"468 1142 CURVE SMOOTH",
"152 1142 OFFCURVE"
);
},
{
closed = 1;
nodes = (
"449 366 CURVE",
"437 432 OFFCURVE",
"444 553 OFFCURVE",
"569 553 CURVE SMOOTH",
"670 553 OFFCURVE",
"737 452 OFFCURVE",
"752 365 CURVE SMOOTH",
"772 255 OFFCURVE",
"745 170 OFFCURVE",
"643 170 CURVE SMOOTH",
"512 170 OFFCURVE",
"462 294 OFFCURVE"
);
}
);
width = 1200;
}
);
unicode = 0036;
},
{
glyphname = seven;
lastChange = "2020-09-17 12:49:14 +0000";
layers = (
{
background = {
paths = (
{
closed = 1;
nodes = (
"125 1094 LINE",
"972 1094 LINE",
"972 931 LINE",
"735 712 OFFCURVE",
"598 412 OFFCURVE",
"562 34 CURVE",
"320 34 LINE",
"373 396 OFFCURVE",
"470 598 OFFCURVE",
"720 897 CURVE",
"91 897 LINE",
"91 863 LINE",
"648 863 LINE",
"420 579 OFFCURVE",
"330 368 OFFCURVE",
"281 0 CURVE",
"593 0 LINE",
"622 366 OFFCURVE",
"746 682 OFFCURVE",
"1006 916 CURVE",
"1006 1128 LINE",
"91 1128 LINE",
"91 863 LINE",
"125 863 LINE"
);
}
);
};
layerId = "75B2229F-4D44-4147-BD02-A22690DA2091";
paths = (
{
closed = 1;
nodes = (
"879 1094 LINE",
"674 844 OFFCURVE",
"463 608 OFFCURVE",
"455 0 CURVE",
"489 0 LINE",
"501 620 OFFCURVE",
"710 819 OFFCURVE",
"914 1084 CURVE",
"907 1128 LINE",
"-8 1128 LINE",
"-2 1094 LINE"
);
}
);
width = 1200;
},
{
layerId = "0D3446AC-0247-4F99-A3DB-2CE2433AA8CC";
paths = (
{
closed = 1;
nodes = (
"595 863 LINE",
"417 579 OFFCURVE",
"365 368 OFFCURVE",
"380 0 CURVE",
"692 0 LINE",
"657 366 OFFCURVE",
"725 682 OFFCURVE",
"944 916 CURVE",
"907 1128 LINE",
"-8 1128 LINE",
"38 863 LINE"
);
}
);
width = 1200;
}
);
unicode = 0037;
},
{
glyphname = eight;
lastChange = "2020-09-17 12:49:14 +0000";
layers = (
{
background = {
paths = (
{
closed = 1;
nodes = (
"144 550 OFFCURVE",
"84 458 OFFCURVE",
"84 326 CURVE SMOOTH",
"84 73 OFFCURVE",
"269 -25 OFFCURVE",
"551 -25 CURVE SMOOTH",
"814 -25 OFFCURVE",
"1006 83 OFFCURVE",
"1006 324 CURVE SMOOTH",
"1006 441 OFFCURVE",
"947 542 OFFCURVE",
"824 601 CURVE",
"912 659 OFFCURVE",
"969 732 OFFCURVE",
"969 838 CURVE SMOOTH",
"969 1013 OFFCURVE",
"829 1142 OFFCURVE",
"526 1142 CURVE SMOOTH",
"307 1142 OFFCURVE",
"119 1036 OFFCURVE",
"119 841 CURVE SMOOTH",
"119 727 OFFCURVE",
"173 654 OFFCURVE",
"273 601 CURVE"
);
},
{
closed = 1;
nodes = (
"289 631 LINE",
"194 681 OFFCURVE",
"153 745 OFFCURVE",
"153 841 CURVE SMOOTH",
"153 1000 OFFCURVE",
"303 1108 OFFCURVE",
"526 1108 CURVE SMOOTH",
"787 1108 OFFCURVE",
"935 1008 OFFCURVE",
"935 838 CURVE SMOOTH",
"935 753 OFFCURVE",
"895 688 OFFCURVE",
"805 629 CURVE",
"809 570 LINE",
"915 520 OFFCURVE",
"972 434 OFFCURVE",
"972 324 CURVE SMOOTH",
"972 122 OFFCURVE",
"821 9 OFFCURVE",
"551 9 CURVE SMOOTH",
"259 9 OFFCURVE",
"118 114 OFFCURVE",
"118 326 CURVE SMOOTH",
"118 447 OFFCURVE",
"171 525 OFFCURVE",
"285 569 CURVE"
);
},
{
closed = 1;
nodes = (
"413 898 OFFCURVE",
"466 951 OFFCURVE",
"542 951 CURVE SMOOTH",
"617 951 OFFCURVE",
"670 898 OFFCURVE",
"670 819 CURVE SMOOTH",
"670 744 OFFCURVE",
"619 692 OFFCURVE",
"547 692 CURVE SMOOTH",
"466 692 OFFCURVE",
"413 745 OFFCURVE",
"413 822 CURVE SMOOTH"
);
},
{
closed = 1;
nodes = (
"396 441 OFFCURVE",
"463.333 507 OFFCURVE",
"542 507 CURVE SMOOTH",
"620.667 507 OFFCURVE",
"691 437 OFFCURVE",
"691 337 CURVE SMOOTH",
"691 239.667 OFFCURVE",
"620.667 167 OFFCURVE",
"546 167 CURVE SMOOTH",
"467.333 167 OFFCURVE",
"396 237 OFFCURVE",
"396 337 CURVE SMOOTH"
);
}
);
};
layerId = "75B2229F-4D44-4147-BD02-A22690DA2091";
paths = (
{
closed = 1;
nodes = (
"183 564 OFFCURVE",
"97 484 OFFCURVE",
"125 326 CURVE SMOOTH",
"170 73 OFFCURVE",
"372 -25 OFFCURVE",
"654 -25 CURVE SMOOTH",
"917 -25 OFFCURVE",
"1090 83 OFFCURVE",
"1047 324 CURVE SMOOTH",
"1027 441 OFFCURVE",
"932 576 OFFCURVE",
"760 593 CURVE",
"876 626 OFFCURVE",
"938 732 OFFCURVE",
"920 838 CURVE SMOOTH",
"889 1013 OFFCURVE",
"726 1142 OFFCURVE",
"423 1142 CURVE SMOOTH",
"204 1142 OFFCURVE",
"35 1036 OFFCURVE",
"69 841 CURVE SMOOTH",
"95 696 OFFCURVE",
"197 620 OFFCURVE",
"318 591 CURVE"
);
},
{
closed = 1;
nodes = (
"66 1083 OFFCURVE",
"356 1108 OFFCURVE",
"429 1108 CURVE SMOOTH",
"603 1108 OFFCURVE",
"847 1058 OFFCURVE",
"886 838 CURVE SMOOTH",
"917 658 OFFCURVE",
"718 606 OFFCURVE",
"536 606 CURVE SMOOTH",
"383 606 OFFCURVE",
"144 622 OFFCURVE",
"103 841 CURVE"
);
},
{
closed = 1;
nodes = (
"114 582 OFFCURVE",
"389 570 OFFCURVE",
"545 570 CURVE SMOOTH",
"724 570 OFFCURVE",
"971 564 OFFCURVE",
"1013 324 CURVE SMOOTH",
"1060 58 OFFCURVE",
"816 9 OFFCURVE",
"648 9 CURVE SMOOTH",
"568 9 OFFCURVE",
"216 0 OFFCURVE",
"159 326 CURVE SMOOTH"
);
}
);
width = 1200;
},
{
background = {
paths = (
{
closed = 1;
nodes = (
"143.667 550.333 OFFCURVE",
"84 458 OFFCURVE",
"84 326 CURVE SMOOTH",
"84 73 OFFCURVE",
"269 -25 OFFCURVE",
"551 -25 CURVE SMOOTH",
"814 -25 OFFCURVE",
"1006 83 OFFCURVE",
"1006 324 CURVE SMOOTH",
"1006 441.333 OFFCURVE",
"946.667 542.333 OFFCURVE",
"824 601 CURVE",
"912 659 OFFCURVE",
"969 732 OFFCURVE",
"969 838 CURVE SMOOTH",
"969 1012.667 OFFCURVE",
"828.667 1142 OFFCURVE",
"526 1142 CURVE SMOOTH",
"307 1142 OFFCURVE",
"119 1036 OFFCURVE",
"119 841 CURVE SMOOTH",
"119 727 OFFCURVE",
"173 654 OFFCURVE",
"273 601 CURVE"
);
},
{
closed = 1;
nodes = (
"413 898 OFFCURVE",
"466 951 OFFCURVE",
"542 951 CURVE SMOOTH",
"616.667 951 OFFCURVE",
"670 897.667 OFFCURVE",
"670 819 CURVE SMOOTH",
"670 744.333 OFFCURVE",
"619 692 OFFCURVE",
"547 692 CURVE SMOOTH",
"465.667 692 OFFCURVE",
"413 744.667 OFFCURVE",
"413 822 CURVE"
);
},
{
closed = 1;
nodes = (
"396 441 OFFCURVE",
"463.333 507 OFFCURVE",
"542 507 CURVE SMOOTH",
"620.667 507 OFFCURVE",
"691 437 OFFCURVE",
"691 337 CURVE SMOOTH",
"691 239.667 OFFCURVE",
"620.667 167 OFFCURVE",
"546 167 CURVE SMOOTH",
"467.333 167 OFFCURVE",
"396 237 OFFCURVE",
"396 337 CURVE"
);
}
);
};
layerId = "0D3446AC-0247-4F99-A3DB-2CE2433AA8CC";
paths = (
{
closed = 1;
nodes = (
"145 550 OFFCURVE",
"102 458 OFFCURVE",
"125 326 CURVE SMOOTH",
"170 73 OFFCURVE",
"372 -25 OFFCURVE",
"654 -25 CURVE SMOOTH",
"917 -25 OFFCURVE",
"1090 83 OFFCURVE",
"1047 324 CURVE SMOOTH",
"1027 441 OFFCURVE",
"950 542 OFFCURVE",
"817 601 CURVE",
"894 659 OFFCURVE",
"938 732 OFFCURVE",
"920 838 CURVE SMOOTH",
"889 1013 OFFCURVE",
"726 1142 OFFCURVE",
"423 1142 CURVE SMOOTH",
"204 1142 OFFCURVE",
"35 1036 OFFCURVE",
"69 841 CURVE SMOOTH",
"89 727 OFFCURVE",
"156 654 OFFCURVE",
"266 601 CURVE"
);
},
{
closed = 1;
nodes = (
"353 898 OFFCURVE",
"397 951 OFFCURVE",
"473 951 CURVE SMOOTH",
"547 951 OFFCURVE",
"610 898 OFFCURVE",
"624 819 CURVE SMOOTH",
"637 744 OFFCURVE",
"595 692 OFFCURVE",
"523 692 CURVE SMOOTH",
"442 692 OFFCURVE",
"380 745 OFFCURVE",
"367 822 CURVE"
);
},
{
closed = 1;
nodes = (
"417 441 OFFCURVE",
"472 507 OFFCURVE",
"551 507 CURVE SMOOTH",
"630 507 OFFCURVE",
"712 437 OFFCURVE",
"730 337 CURVE SMOOTH",
"747 240 OFFCURVE",
"690 167 OFFCURVE",
"615 167 CURVE SMOOTH",
"536 167 OFFCURVE",
"453 237 OFFCURVE",
"435 337 CURVE"
);
}
);
width = 1200;
}
);
unicode = 0038;
},
{
glyphname = nine;
lastChange = "2020-09-17 12:49:14 +0000";
layers = (
{
background = {
paths = (
{
closed = 1;
nodes = (
"931 1072 OFFCURVE",
"792 1142 OFFCURVE",
"571 1142 CURVE SMOOTH",
"267 1142 OFFCURVE",
"86 960 OFFCURVE",
"86 552 CURVE SMOOTH",
"86 179 OFFCURVE",
"232 -25 OFFCURVE",
"582 -25 CURVE SMOOTH",
"841 -25 OFFCURVE",
"1016 120 OFFCURVE",
"1016 366 CURVE SMOOTH",
"1016 586 OFFCURVE",
"857.333 747 OFFCURVE",
"656 747 CURVE SMOOTH",
"552 747 OFFCURVE",
"478.667 711 OFFCURVE",
"404 635 CURVE",
"417 804 OFFCURVE",
"439 949 OFFCURVE",
"568 949 CURVE SMOOTH",
"624 949 OFFCURVE",
"664 916.667 OFFCURVE",
"680 830 CURVE",
"992 868 LINE"
);
},
{
closed = 1;
nodes = (
"415 486 OFFCURVE",
"481.333 553 OFFCURVE",
"568 553 CURVE SMOOTH",
"653.333 553 OFFCURVE",
"719 485 OFFCURVE",
"719 357 CURVE SMOOTH",
"719 233 OFFCURVE",
"655.333 170 OFFCURVE",
"574 170 CURVE SMOOTH",
"484.667 170 OFFCURVE",
"415 243.333 OFFCURVE",
"415 366 CURVE"
);
}
);
};
layerId = "75B2229F-4D44-4147-BD02-A22690DA2091";
paths = (
{
closed = 1;
nodes = (
"1071 245 OFFCURVE",
"1015 565 CURVE SMOOTH",
"957 891 OFFCURVE",
"795 1141 OFFCURVE",
"415 1141 CURVE SMOOTH",
"156 1141 OFFCURVE",
"7 996 OFFCURVE",
"50 750 CURVE SMOOTH",
"91 516 OFFCURVE",
"272 369 OFFCURVE",
"557 369 CURVE SMOOTH",
"775 369 OFFCURVE",
"920 489 OFFCURVE",
"974 574 CURVE",
"1040 198 OFFCURVE",
"927 8 OFFCURVE",
"626 8 CURVE SMOOTH",
"404 8 OFFCURVE",
"277 81 OFFCURVE",
"194 258 CURVE",
"163 248 LINE",
"260 44 OFFCURVE",
"411 -26 OFFCURVE",
"632 -26 CURVE SMOOTH",
"998 -26 OFFCURVE"
);
},
{
closed = 1;
nodes = (
"964 625 CURVE",
"909 533 OFFCURVE",
"765 403 OFFCURVE",
"551 403 CURVE SMOOTH",
"281 403 OFFCURVE",
"121 538 OFFCURVE",
"84 750 CURVE SMOOTH",
"45 970 OFFCURVE",
"173 1107 OFFCURVE",
"421 1107 CURVE SMOOTH",
"767 1107 OFFCURVE",
"906 891 OFFCURVE"
);
}
);
width = 1200;
},
{
background = {
paths = (
{
closed = 1;
nodes = (
"931 1072 OFFCURVE",
"792 1142 OFFCURVE",
"571 1142 CURVE SMOOTH",
"267 1142 OFFCURVE",
"86 960 OFFCURVE",
"86 552 CURVE SMOOTH",
"86 179 OFFCURVE",
"232 -25 OFFCURVE",
"582 -25 CURVE SMOOTH",
"841 -25 OFFCURVE",
"1016 120 OFFCURVE",
"1016 366 CURVE SMOOTH",
"1016 586 OFFCURVE",
"857 747 OFFCURVE",
"656 747 CURVE SMOOTH",
"552 747 OFFCURVE",
"479 711 OFFCURVE",
"404 635 CURVE",
"417 804 OFFCURVE",
"439 949 OFFCURVE",
"568 949 CURVE SMOOTH",
"624 949 OFFCURVE",
"664 917 OFFCURVE",
"680 830 CURVE",
"992 868 LINE"
);
},
{
closed = 1;
nodes = (
"415 486 OFFCURVE",
"481 553 OFFCURVE",
"568 553 CURVE SMOOTH",
"653 553 OFFCURVE",
"719 485 OFFCURVE",
"719 357 CURVE SMOOTH",
"719 233 OFFCURVE",
"655 170 OFFCURVE",
"574 170 CURVE SMOOTH",
"485 170 OFFCURVE",
"415 243 OFFCURVE",
"415 366 CURVE"
);
}
);
};
layerId = "0D3446AC-0247-4F99-A3DB-2CE2433AA8CC";
paths = (
{
closed = 1;
nodes = (
"1155 165 OFFCURVE",
"1013 566 CURVE SMOOTH",
"898 892 OFFCURVE",
"692 1142 OFFCURVE",
"312 1142 CURVE SMOOTH",
"53 1142 OFFCURVE",
"-71 997 OFFCURVE",
"16 751 CURVE SMOOTH",
"96 525 OFFCURVE",
"309 370 OFFCURVE",
"525 370 CURVE SMOOTH",
"615 370 OFFCURVE",
"668 404 OFFCURVE",
"723 482 CURVE",
"805 184 OFFCURVE",
"732 168 OFFCURVE",
"670 168 CURVE SMOOTH",
"588 168 OFFCURVE",
"545 235 OFFCURVE",
"516 287 CURVE",
"217 249 LINE",
"350 45 OFFCURVE",
"514 -25 OFFCURVE",
"735 -25 CURVE SMOOTH",
"1051 -25 OFFCURVE"
);
},
{
closed = 1;
nodes = (
"617 751 CURVE",
"640 685 OFFCURVE",
"655 564 OFFCURVE",
"530 564 CURVE SMOOTH",
"429 564 OFFCURVE",
"344 665 OFFCURVE",
"314 752 CURVE SMOOTH",
"275 862 OFFCURVE",
"287 947 OFFCURVE",
"389 947 CURVE SMOOTH",
"520 947 OFFCURVE",
"592 823 OFFCURVE"
);
}
);
width = 1200;
}
);
unicode = 0039;
},
{
glyphname = exclam;
lastChange = "2020-09-17 12:49:14 +0000";
layers = (
{
background = {
paths = (
{
closed = 1;
nodes = (
"427 33 OFFCURVE",
"452 58 OFFCURVE",
"452 89 CURVE SMOOTH",
"452 120 OFFCURVE",
"427 145 OFFCURVE",
"396 145 CURVE SMOOTH",
"365 145 OFFCURVE",
"340 120 OFFCURVE",
"340 89 CURVE SMOOTH",
"340 58 OFFCURVE",
"365 33 OFFCURVE",
"396 33 CURVE SMOOTH"
);
}
);
};
layerId = "75B2229F-4D44-4147-BD02-A22690DA2091";
paths = (
{
closed = 1;
nodes = (
"304 326 LINE",
"342 326 LINE",
"180 922 LINE",
"104 1214 LINE",
"50 1214 LINE",
"127 922 LINE"
);
},
{
closed = 1;
nodes = (
"415 22 OFFCURVE",
"439 46 OFFCURVE",
"439 75 CURVE SMOOTH",
"439 104 OFFCURVE",
"415 128 OFFCURVE",
"386 128 CURVE SMOOTH",
"357 128 OFFCURVE",
"333 104 OFFCURVE",
"333 75 CURVE SMOOTH",
"333 46 OFFCURVE",
"357 22 OFFCURVE",
"386 22 CURVE SMOOTH"
);
}
);
width = 476;
},
{
background = {
paths = (
{
closed = 1;
nodes = (
"438 -138 LINE",
"539 -138 OFFCURVE",
"621 -57 OFFCURVE",
"621 44 CURVE SMOOTH",
"621 145 OFFCURVE",
"539 227 OFFCURVE",
"438 227 CURVE SMOOTH",
"338 227 OFFCURVE",
"256 145 OFFCURVE",
"256 44 CURVE SMOOTH",
"256 -57 OFFCURVE",
"338 -138 OFFCURVE",
"438 -138 CURVE"
);
}
);
};
layerId = "0D3446AC-0247-4F99-A3DB-2CE2433AA8CC";
paths = (
{
closed = 1;
nodes = (
"278 326 LINE",
"513 326 LINE",
"481 922 LINE",
"430 1214 LINE",
"50 1214 LINE",
"101 922 LINE"
);
},
{
closed = 1;
nodes = (
"539 -143 OFFCURVE",
"622 -60 OFFCURVE",
"622 40 CURVE SMOOTH",
"622 140 OFFCURVE",
"539 223 OFFCURVE",
"439 223 CURVE SMOOTH",
"339 223 OFFCURVE",
"256 140 OFFCURVE",
"256 40 CURVE SMOOTH",
"256 -60 OFFCURVE",
"339 -143 OFFCURVE",
"439 -143 CURVE SMOOTH"
);
}
);
width = 671;
}
);
unicode = 0021;
},
{
glyphname = period;
lastChange = "2020-09-17 12:49:14 +0000";
layers = (
{
layerId = "75B2229F-4D44-4147-BD02-A22690DA2091";
paths = (
{
closed = 1;
nodes = (
"132 22 OFFCURVE",
"156 46 OFFCURVE",
"156 75 CURVE SMOOTH",
"156 104 OFFCURVE",
"132 128 OFFCURVE",
"103 128 CURVE SMOOTH",
"74 128 OFFCURVE",
"50 104 OFFCURVE",
"50 75 CURVE SMOOTH",
"50 46 OFFCURVE",
"74 22 OFFCURVE",
"103 22 CURVE SMOOTH"
);
}
);
width = 206;
},
{
layerId = "0D3446AC-0247-4F99-A3DB-2CE2433AA8CC";
paths = (
{
closed = 1;
nodes = (
"333 0 OFFCURVE",
"416 83 OFFCURVE",
"416 183 CURVE SMOOTH",
"416 283 OFFCURVE",
"333 366 OFFCURVE",
"233 366 CURVE SMOOTH",
"133 366 OFFCURVE",
"50 283 OFFCURVE",
"50 183 CURVE SMOOTH",
"50 83 OFFCURVE",
"133 0 OFFCURVE",
"233 0 CURVE SMOOTH"
);
}
);
width = 466;
}
);
unicode = 002E;
},
{
glyphname = colon;
lastChange = "2020-09-17 12:49:14 +0000";
layers = (
{
layerId = "75B2229F-4D44-4147-BD02-A22690DA2091";
paths = (
{
closed = 1;
nodes = (
"132 289 OFFCURVE",
"156 313 OFFCURVE",
"156 342 CURVE SMOOTH",
"156 371 OFFCURVE",
"132 395 OFFCURVE",
"103 395 CURVE SMOOTH",
"74 395 OFFCURVE",
"50 371 OFFCURVE",
"50 342 CURVE SMOOTH",
"50 313 OFFCURVE",
"74 289 OFFCURVE",
"103 289 CURVE SMOOTH"
);
},
{
closed = 1;
nodes = (
"132 650 OFFCURVE",
"156 674 OFFCURVE",
"156 703 CURVE SMOOTH",
"156 732 OFFCURVE",
"132 756 OFFCURVE",
"103 756 CURVE SMOOTH",
"74 756 OFFCURVE",
"50 732 OFFCURVE",
"50 703 CURVE SMOOTH",
"50 674 OFFCURVE",
"74 650 OFFCURVE",
"103 650 CURVE SMOOTH"
);
}
);
width = 206;
},
{
layerId = "0D3446AC-0247-4F99-A3DB-2CE2433AA8CC";
paths = (
{
closed = 1;
nodes = (
"413 143 OFFCURVE",
"496 226 OFFCURVE",
"496 326 CURVE SMOOTH",
"496 426 OFFCURVE",
"413 509 OFFCURVE",
"313 509 CURVE SMOOTH",
"213 509 OFFCURVE",
"130 426 OFFCURVE",
"130 326 CURVE SMOOTH",
"130 226 OFFCURVE",
"213 143 OFFCURVE",
"313 143 CURVE SMOOTH"
);
},
{
closed = 1;
nodes = (
"333 621 OFFCURVE",
"416 704 OFFCURVE",
"416 804 CURVE SMOOTH",
"416 904 OFFCURVE",
"333 987 OFFCURVE",
"233 987 CURVE SMOOTH",
"133 987 OFFCURVE",
"50 904 OFFCURVE",
"50 804 CURVE SMOOTH",
"50 704 OFFCURVE",
"133 621 OFFCURVE",
"233 621 CURVE SMOOTH"
);
}
);
width = 546;
}
);
unicode = 003A;
},
{
glyphname = hyphen;
lastChange = "2020-09-17 12:49:14 +0000";
layers = (
{
layerId = "75B2229F-4D44-4147-BD02-A22690DA2091";
paths = (
{
closed = 1;
nodes = (
"50 571 LINE",
"50 537 LINE",
"876 537 LINE",
"876 571 LINE"
);
}
);
width = 926;
},
{
layerId = "0D3446AC-0247-4F99-A3DB-2CE2433AA8CC";
paths = (
{
closed = 1;
nodes = (
"50 672 LINE",
"50 444 LINE",
"876 444 LINE",
"876 672 LINE"
);
}
);
width = 926;
}
);
unicode = 002D;
},
{
glyphname = plus;
lastChange = "2020-09-17 12:49:14 +0000";
layers = (
{
background = {
paths = (
{
closed = 1;
nodes = (
"339 967 LINE",
"339 675 LINE",
"40 675 LINE",
"40 447 LINE",
"339 447 LINE",
"339 141 LINE",
"568 148 LINE",
"568 447 LINE",
"867 447 LINE",
"867 675 LINE",
"568 675 LINE",
"568 974 LINE"
);
}
);
};
layerId = "75B2229F-4D44-4147-BD02-A22690DA2091";
paths = (
{
closed = 1;
nodes = (
"480 967 LINE",
"446 967 LINE",
"446 141 LINE",
"480 141 LINE"
);
},
{
closed = 1;
nodes = (
"50 571 LINE",
"50 537 LINE",
"876 537 LINE",
"876 571 LINE"
);
}
);
width = 926;
},
{
background = {
paths = (
{
closed = 1;
nodes = (
"348 967 LINE",
"348 675 LINE",
"49 675 LINE",
"49 447 LINE",
"348 447 LINE",
"348 141 LINE",
"577 148 LINE",
"577 447 LINE",
"876 447 LINE",
"876 675 LINE",
"577 675 LINE",
"577 974 LINE"
);
}
);
};
layerId = "0D3446AC-0247-4F99-A3DB-2CE2433AA8CC";
paths = (
{
closed = 1;
nodes = (
"577 971 LINE",
"349 971 LINE",
"349 145 LINE",
"577 145 LINE"
);
},
{
closed = 1;
nodes = (
"50 672 LINE",
"50 444 LINE",
"876 444 LINE",
"876 672 LINE"
);
}
);
width = 926;
}
);
unicode = 002B;
},
{
glyphname = equal;
lastChange = "2020-09-17 12:49:14 +0000";
layers = (
{
layerId = "75B2229F-4D44-4147-BD02-A22690DA2091";
paths = (
{
closed = 1;
nodes = (
"50 657 LINE",
"50 623 LINE",
"876 623 LINE",
"876 657 LINE"
);
},
{
closed = 1;
nodes = (
"53 405 LINE",
"53 371 LINE",
"879 371 LINE",
"879 405 LINE"
);
}
);
width = 929;
},
{
layerId = "0D3446AC-0247-4F99-A3DB-2CE2433AA8CC";
paths = (
{
closed = 1;
nodes = (
"50 799 LINE",
"50 571 LINE",
"876 571 LINE",
"876 799 LINE"
);
},
{
closed = 1;
nodes = (
"50 438 LINE",
"50 210 LINE",
"876 210 LINE",
"876 438 LINE"
);
}
);
width = 926;
}
);
unicode = 003D;
},
{
glyphname = asterisk;
lastChange = "2020-09-17 12:49:14 +0000";
layers = (
{
background = {
paths = (
{
closed = 1;
nodes = (
"611 1177 LINE",
"570 1305 LINE",
"465 1271 LINE",
"364 1211 LINE",
"385 1323 LINE",
"385 1434 LINE",
"250 1434 LINE",
"250 1323 LINE",
"276 1209 LINE",
"175 1263 LINE",
"70 1298 LINE",
"29 1170 LINE",
"134 1135 LINE",
"250 1125 LINE",
"167 1046 LINE",
"103 957 LINE",
"211 877 LINE",
"276 967 LINE",
"323 1074 LINE",
"372 971 LINE",
"437 882 LINE",
"546 961 LINE",
"481 1050 LINE",
"393 1128 LINE",
"506 1143 LINE"
);
}
);
};
guideLines = (
{
angle = 162;
position = "{323, 1151}";
},
{
angle = 90;
position = "{323, 1151}";
},
{
angle = 234;
position = "{323, 1151}";
},
{
angle = 18;
position = "{323, 1151}";
},
{
angle = -54;
position = "{323, 1151}";
}
);
layerId = "75B2229F-4D44-4147-BD02-A22690DA2091";
paths = (
{
closed = 1;
nodes = (
"305 1039 LINE",
"311 885 LINE",
"333 885 LINE",
"338 1039 LINE",
"338 1150 LINE",
"305 1150 LINE"
);
},
{
closed = 1;
nodes = (
"156 906 LINE",
"304 865 LINE",
"311 885 LINE",
"166 938 LINE",
"61 972 LINE",
"50 941 LINE"
);
},
{
closed = 1;
nodes = (
"236 724 LINE",
"321 852 LINE",
"304 865 LINE",
"208 744 LINE",
"144 654 LINE",
"170 634 LINE"
);
},
{
closed = 1;
nodes = (
"434 744 LINE",
"338 864 LINE",
"321 852 LINE",
"406 723 LINE",
"472 635 LINE",
"499 653 LINE"
);
},
{
closed = 1;
nodes = (
"477 940 LINE",
"333 885 LINE",
"339 866 LINE",
"488 907 LINE",
"592 942 LINE",
"583 973 LINE"
);
}
);
width = 757;
},
{
background = {
paths = (
{
closed = 1;
nodes = (
"631 1177 LINE",
"590 1305 LINE",
"485 1271 LINE",
"384 1211 LINE",
"405 1323 LINE",
"405 1434 LINE",
"270 1434 LINE",
"270 1323 LINE",
"296 1209 LINE",
"195 1263 LINE",
"90 1298 LINE",
"49 1170 LINE",
"154 1135 LINE",
"270 1125 LINE",
"187 1046 LINE",
"123 957 LINE",
"231 877 LINE",
"296 967 LINE",
"343 1074 LINE",
"392 971 LINE",
"457 882 LINE",
"566 961 LINE",
"501 1050 LINE",
"413 1128 LINE",
"526 1143 LINE"
);
}
);
};
layerId = "0D3446AC-0247-4F99-A3DB-2CE2433AA8CC";
paths = (
{
closed = 1;
nodes = (
"272 1065 LINE",
"298 952 LINE",
"383 954 LINE",
"403 1062 LINE",
"403 1170 LINE",
"273 1170 LINE"
);
},
{
closed = 1;
nodes = (
"158 880 LINE",
"274 871 LINE",
"298 952 LINE",
"202 1004 LINE",
"99 1038 LINE",
"58 915 LINE"
);
},
{
closed = 1;
nodes = (
"298 715 LINE",
"344 822 LINE",
"274 871 LINE",
"195 795 LINE",
"130 707 LINE",
"236 631 LINE"
);
},
{
closed = 1;
nodes = (
"500 797 LINE",
"412 874 LINE",
"344 822 LINE",
"391 723 LINE",
"456 635 LINE",
"560 710 LINE"
);
},
{
closed = 1;
nodes = (
"482 1013 LINE",
"383 954 LINE",
"411 874 LINE",
"520 887 LINE",
"623 921 LINE",
"582 1045 LINE"
);
}
);
width = 788;
}
);
unicode = 002A;
},
{
glyphname = parenleft;
lastChange = "2020-09-17 12:49:14 +0000";
layers = (
{
layerId = "75B2229F-4D44-4147-BD02-A22690DA2091";
paths = (
{
closed = 1;
nodes = (
"149 1168 OFFCURVE",
"87 951 OFFCURVE",
"87 710 CURVE SMOOTH",
"87 307 OFFCURVE",
"228 12 OFFCURVE",
"511 -297 CURVE",
"567 -297 LINE",
"274 23 OFFCURVE",
"121 335 OFFCURVE",
"121 710 CURVE SMOOTH",
"121 946 OFFCURVE",
"219 1253 OFFCURVE",
"287 1431 CURVE",
"249 1431 LINE"
);
}
);
width = 1200;
},
{
layerId = "0D3446AC-0247-4F99-A3DB-2CE2433AA8CC";
paths = (
{
closed = 1;
nodes = (
"149 1168 OFFCURVE",
"87 951 OFFCURVE",
"87 710 CURVE SMOOTH",
"87 307 OFFCURVE",
"228 12 OFFCURVE",
"511 -297 CURVE",
"706 -297 LINE",
"495 65 OFFCURVE",
"371 436 OFFCURVE",
"371 839 CURVE SMOOTH",
"371 1030 OFFCURVE",
"399 1219 OFFCURVE",
"448 1431 CURVE",
"249 1431 LINE"
);
}
);
width = 1200;
}
);
unicode = 0028;
},
{
glyphname = parenright;
lastChange = "2020-09-17 12:49:14 +0000";
layers = (
{
layerId = "75B2229F-4D44-4147-BD02-A22690DA2091";
paths = (
{
closed = 1;
nodes = (
"583 -14 OFFCURVE",
"646 191 OFFCURVE",
"646 426 CURVE SMOOTH",
"646 829 OFFCURVE",
"501 1123 OFFCURVE",
"213 1431 CURVE",
"169 1431 LINE",
"469 1110 OFFCURVE",
"612 800 OFFCURVE",
"612 426 CURVE SMOOTH",
"612 219 OFFCURVE",
"557 17 OFFCURVE",
"437 -280 CURVE",
"476 -280 LINE"
);
}
);
width = 1200;
},
{
layerId = "0D3446AC-0247-4F99-A3DB-2CE2433AA8CC";
paths = (
{
closed = 1;
nodes = (
"583 -27 OFFCURVE",
"646 191 OFFCURVE",
"646 426 CURVE SMOOTH",
"646 829 OFFCURVE",
"501 1123 OFFCURVE",
"213 1431 CURVE",
"3 1429 LINE",
"226 1072 OFFCURVE",
"355 707 OFFCURVE",
"355 302 CURVE SMOOTH",
"355 111 OFFCURVE",
"326 -81 OFFCURVE",
"276 -295 CURVE",
"476 -293 LINE"
);
}
);
width = 1200;
}
);
unicode = 0029;
},
{
glyphname = bracketleft;
lastChange = "2020-09-17 12:49:14 +0000";
layers = (
{
layerId = "75B2229F-4D44-4147-BD02-A22690DA2091";
paths = (
{
closed = 1;
nodes = (
"330 -268 LINE",
"33 1393 LINE",
"607 1393 LINE",
"607 1427 LINE",
"-8 1427 LINE",
"302 -302 LINE",
"917 -302 LINE",
"917 -268 LINE"
);
}
);
width = 1200;
},
{
layerId = "0D3446AC-0247-4F99-A3DB-2CE2433AA8CC";
paths = (
{
closed = 1;
nodes = (
"524 -70 LINE",
"284 1185 LINE",
"607 1242 LINE",
"607 1427 LINE",
"-8 1427 LINE",
"302 -302 LINE",
"917 -302 LINE",
"917 -117 LINE"
);
}
);
width = 1200;
}
);
unicode = 005B;
},
{
glyphname = backslash;
lastChange = "2020-09-17 12:49:14 +0000";
layers = (
{
background = {
paths = (
{
closed = 1;
nodes = (
"50 1435 LINE",
"352 -295 LINE",
"561 -295 LINE",
"259 1435 LINE"
);
}
);
};
layerId = "75B2229F-4D44-4147-BD02-A22690DA2091";
paths = (
{
closed = 1;
nodes = (
"50 1435 LINE",
"352 -295 LINE",
"385 -295 LINE",
"84 1435 LINE"
);
}
);
width = 611;
},
{
layerId = "0D3446AC-0247-4F99-A3DB-2CE2433AA8CC";
paths = (
{
closed = 1;
nodes = (
"50 1435 LINE",
"352 -295 LINE",
"561 -295 LINE",
"259 1435 LINE"
);
}
);
width = 611;
}
);
unicode = 005C;
},
{
glyphname = bracketright;
lastChange = "2020-09-17 12:49:14 +0000";
layers = (
{
layerId = "75B2229F-4D44-4147-BD02-A22690DA2091";
paths = (
{
closed = 1;
nodes = (
"2 1427 LINE",
"2 1393 LINE",
"588 1393 LINE",
"882 -268 LINE",
"308 -268 LINE",
"308 -302 LINE",
"923 -302 LINE",
"617 1427 LINE"
);
}
);
width = 1200;
},
{
layerId = "0D3446AC-0247-4F99-A3DB-2CE2433AA8CC";
paths = (
{
closed = 1;
nodes = (
"2 1427 LINE",
"2 1242 LINE",
"406 1185 LINE",
"641 -70 LINE",
"308 -117 LINE",
"308 -302 LINE",
"923 -302 LINE",
"617 1427 LINE"
);
}
);
width = 1200;
}
);
unicode = 005D;
},
{
glyphname = quotedbl;
lastChange = "2020-09-17 12:49:14 +0000";
layers = (
{
layerId = "75B2229F-4D44-4147-BD02-A22690DA2091";
paths = (
{
closed = 1;
nodes = (
"312 938 LINE",
"350 938 LINE",
"280 1268 LINE",
"244 1430 LINE",
"185 1430 LINE",
"214 1268 LINE"
);
},
{
closed = 1;
nodes = (
"177 938 LINE",
"215 938 LINE",
"145 1268 LINE",
"109 1430 LINE",
"50 1430 LINE",
"79 1268 LINE"
);
}
);
width = 400;
},
{
layerId = "0D3446AC-0247-4F99-A3DB-2CE2433AA8CC";
paths = (
{
closed = 1;
nodes = (
"451 938 LINE",
"591 938 LINE",
"563 1268 LINE",
"535 1430 LINE",
"324 1430 LINE",
"353 1268 LINE"
);
},
{
closed = 1;
nodes = (
"177 938 LINE",
"317 938 LINE",
"289 1268 LINE",
"261 1430 LINE",
"50 1430 LINE",
"79 1268 LINE"
);
}
);
width = 641;
}
);
unicode = 0022;
},
{
glyphname = quotesingle;
lastChange = "2020-09-17 12:49:14 +0000";
layers = (
{
layerId = "75B2229F-4D44-4147-BD02-A22690DA2091";
paths = (
{
closed = 1;
nodes = (
"177 938 LINE",
"215 938 LINE",
"145 1268 LINE",
"109 1430 LINE",
"50 1430 LINE",
"79 1268 LINE"
);
}
);
width = 265;
},
{
layerId = "0D3446AC-0247-4F99-A3DB-2CE2433AA8CC";
paths = (
{
closed = 1;
nodes = (
"177 938 LINE",
"317 938 LINE",
"289 1268 LINE",
"261 1430 LINE",
"50 1430 LINE",
"79 1268 LINE"
);
}
);
width = 367;
}
);
unicode = 0027;
},
{
glyphname = A;
lastChange = "2020-10-31 11:59:19 +0000";
layers = (
{
layerId = "75B2229F-4D44-4147-BD02-A22690DA2091";
paths = (
{
closed = 1;
nodes = (
"567 1110 LINE",
"564 1110 LINE",
"282 408 LINE",
"839 408 LINE"
);
},
{
closed = 1;
nodes = (
"117 0 LINE",
"80 0 LINE",
"544 1142 LINE",
"586 1142 LINE",
"1037 0 LINE",
"1002 0 LINE",
"851 376 LINE",
"269 376 LINE"
);
}
);
userData = {
assembly = "NPUSHB[ ]	/* 24 values pushed */
1 3 11 4 3 0 4 7 6 25 9 5 11 10 7 1 3 2 2 24 1 25 2 10 
PUSHW[ ]	/* 2 values pushed */
1462 1421 
PUSHB[ ]	/* 3 values pushed */
18 25 6 
PUSHW[ ]	/* 3 values pushed */
501 522 481 
NPUSHB[ ]	/* 23 values pushed */
12 27 10 6 43 0 17 10 10 11 9 7 6 5 0 3 8 3 2 25 1 57 2 
PUSHW[ ]	/* 5 values pushed */
569 1163 -24 1200 -25 
PUSHB[ ]	/* 2 values pushed */
11 9 
CALL[ ]	/* CallFunction */
CALL[ ]	/* CallFunction */
SZP2[ ]	/* SetZonePointer2 */
CALL[ ]	/* CallFunction */
IUP[1]	/* InterpolateUntPts */
CALL[ ]	/* CallFunction */
CALL[ ]	/* CallFunction */
CALL[ ]	/* CallFunction */
CALL[ ]	/* CallFunction */
SZP2[ ]	/* SetZonePointer2 */
LOOPCALL[ ]	/* LoopAndCallFunction */
CALL[ ]	/* CallFunction */
IUP[0]	/* InterpolateUntPts */
RS[ ]	/* ReadStore */
IF[ ]	/* If */
SVTCA[1]	/* SetFreedomAndProjectionVectorToAxis */
SZP2[ ]	/* SetZonePointer2 */
NPUSHB[ ]	/* 9 values pushed */
11 10 7 6 1 0 3 6 21 
CALL[ ]	/* CallFunction */
NPUSHB[ ]	/* 9 values pushed */
9 8 5 4 3 2 3 6 22 
CALL[ ]	/* CallFunction */
EIF[ ]	/* EndIf */";
};
width = 1117;
},
{
layerId = "0D3446AC-0247-4F99-A3DB-2CE2433AA8CC";
paths = (
{
closed = 1;
nodes = (
"675 760 LINE",
"672 760 LINE",
"562 408 LINE",
"777 408 LINE"
);
},
{
closed = 1;
nodes = (
"433 0 LINE",
"80 0 LINE",
"501 1142 LINE",
"844 1142 LINE",
"1261 0 LINE",
"896 0 LINE",
"848 163 LINE",
"485 163 LINE"
);
}
);
width = 1341;
}
);
note = A;
unicode = 0041;
},
{
glyphname = B;
lastChange = "2020-10-31 11:59:09 +0000";
layers = (
{
layerId = "75B2229F-4D44-4147-BD02-A22690DA2091";
paths = (
{
closed = 1;
nodes = (
"567 32 LINE SMOOTH",
"756 32 OFFCURVE",
"895 122 OFFCURVE",
"896 309 CURVE SMOOTH",
"892 495 OFFCURVE",
"763 579 OFFCURVE",
"571 579 CURVE SMOOTH",
"112 579 LINE",
"112 32 LINE",
"112 32 LINE"
);
},
{
closed = 1;
nodes = (
"571 1142 LINE SMOOTH",
"760 1142 OFFCURVE",
"892 1048 OFFCURVE",
"893 858 CURVE SMOOTH",
"892 713 OFFCURVE",
"794 612 OFFCURVE",
"651 597 CURVE",
"811 590 OFFCURVE",
"927 478 OFFCURVE",
"928 310 CURVE SMOOTH",
"927 101 OFFCURVE",
"769 0 OFFCURVE",
"552 0 CURVE SMOOTH",
"80 0 LINE",
"80 1142 LINE",
"80 1142 LINE"
);
},
{
closed = 1;
nodes = (
"571 611 LINE SMOOTH",
"732 611 OFFCURVE",
"858 696 OFFCURVE",
"861 858 CURVE SMOOTH",
"858 1029 OFFCURVE",
"745 1110 OFFCURVE",
"571 1110 CURVE SMOOTH",
"112 1110 LINE",
"112 611 LINE",
"112 611 LINE"
);
}
);
width = 1008;
},
{
layerId = "0D3446AC-0247-4F99-A3DB-2CE2433AA8CC";
paths = (
{
closed = 1;
nodes = (
"637 272 LINE SMOOTH",
"725 272 OFFCURVE",
"772 300 OFFCURVE",
"776 380 CURVE SMOOTH",
"776 449 OFFCURVE",
"735 483 OFFCURVE",
"652 484 CURVE SMOOTH",
"431 484 LINE",
"431 272 LINE",
"431 272 LINE"
);
},
{
closed = 1;
nodes = (
"705 1142 LINE SMOOTH",
"912 1142 OFFCURVE",
"1070 1061 OFFCURVE",
"1070 856 CURVE SMOOTH",
"1070 755 OFFCURVE",
"1028 685 OFFCURVE",
"929 632 CURVE",
"1057 590 OFFCURVE",
"1126 493 OFFCURVE",
"1127 347 CURVE SMOOTH",
"1123 130 OFFCURVE",
"949 0 OFFCURVE",
"727 0 CURVE SMOOTH",
"80 0 LINE",
"80 1142 LINE",
"80 1142 LINE"
);
},
{
closed = 1;
nodes = (
"617 698 LINE SMOOTH",
"694 698 OFFCURVE",
"737 722 OFFCURVE",
"737 792 CURVE SMOOTH",
"737 854 OFFCURVE",
"692 870 OFFCURVE",
"617 870 CURVE SMOOTH",
"431 870 LINE",
"431 698 LINE",
"431 698 LINE"
);
}
);
width = 1207;
}
);
unicode = 0042;
},
{
glyphname = C;
lastChange = "2020-10-31 11:58:56 +0000";
layers = (
{
layerId = "75B2229F-4D44-4147-BD02-A22690DA2091";
paths = (
{
closed = 1;
nodes = (
"987 1027 OFFCURVE",
"800 1160 OFFCURVE",
"578 1164 CURVE SMOOTH",
"268 1162 OFFCURVE",
"70 904 OFFCURVE",
"73 589 CURVE SMOOTH",
"73 283 OFFCURVE",
"256 36 OFFCURVE",
"558 32 CURVE SMOOTH",
"823 33 OFFCURVE",
"992 209 OFFCURVE",
"1028 475 CURVE",
"1060 475 LINE",
"1021 192 OFFCURVE",
"845 1 OFFCURVE",
"558 0 CURVE SMOOTH",
"243 4 OFFCURVE",
"42 253 OFFCURVE",
"41 589 CURVE SMOOTH",
"38 932 OFFCURVE",
"236 1189 OFFCURVE",
"578 1196 CURVE",
"810 1192 OFFCURVE",
"1032 1040 OFFCURVE",
"1034 827 CURVE",
"1002 827 LINE"
);
}
);
width = 1200;
},
{
layerId = "0D3446AC-0247-4F99-A3DB-2CE2433AA8CC";
paths = (
{
closed = 1;
nodes = (
"828 818 OFFCURVE",
"758 888 OFFCURVE",
"650 888 CURVE SMOOTH",
"494 884 OFFCURVE",
"429 744 OFFCURVE",
"432 575 CURVE SMOOTH",
"429 409 OFFCURVE",
"493 263 OFFCURVE",
"650 262 CURVE SMOOTH",
"758 262 OFFCURVE",
"816 330 OFFCURVE",
"835 452 CURVE",
"1181 452 LINE",
"1178 172 OFFCURVE",
"957 -18 OFFCURVE",
"659 -23 CURVE",
"304 -19 OFFCURVE",
"80 220 OFFCURVE",
"80 575 CURVE SMOOTH",
"83 934 OFFCURVE",
"298 1172 OFFCURVE",
"659 1173 CURVE",
"973 1165 OFFCURVE",
"1145 1014 OFFCURVE",
"1176 720 CURVE",
"833 720 LINE"
);
}
);
width = 1261;
}
);
unicode = 0043;
},
{
glyphname = D;
lastChange = "2020-10-31 11:58:43 +0000";
layers = (
{
layerId = "75B2229F-4D44-4147-BD02-A22690DA2091";
paths = (
{
closed = 1;
nodes = (
"480 1142 LINE SMOOTH",
"813 1142 OFFCURVE",
"962 922 OFFCURVE",
"966 571 CURVE SMOOTH",
"963 219 OFFCURVE",
"770 0 OFFCURVE",
"430 0 CURVE SMOOTH",
"80 0 LINE",
"80 1142 LINE"
);
},
{
closed = 1;
nodes = (
"438 32 LINE SMOOTH",
"751 32 OFFCURVE",
"930 240 OFFCURVE",
"934 571 CURVE SMOOTH",
"934 902 OFFCURVE",
"799 1110 OFFCURVE",
"471 1110 CURVE SMOOTH",
"112 1110 LINE",
"112 32 LINE"
);
}
);
width = 1046;
},
{
layerId = "0D3446AC-0247-4F99-A3DB-2CE2433AA8CC";
paths = (
{
closed = 1;
nodes = (
"657 1142 LINE SMOOTH",
"999 1136 OFFCURVE",
"1175 919 OFFCURVE",
"1172 573 CURVE SMOOTH",
"1175 198 OFFCURVE",
"981 7 OFFCURVE",
"589 0 CURVE SMOOTH",
"80 0 LINE",
"80 1142 LINE"
);
},
{
closed = 1;
nodes = (
"569 293 LINE SMOOTH",
"740 293 OFFCURVE",
"821 404 OFFCURVE",
"821 577 CURVE SMOOTH",
"821 757 OFFCURVE",
"722 849 OFFCURVE",
"544 849 CURVE SMOOTH",
"431 849 LINE",
"431 293 LINE"
);
}
);
width = 1252;
}
);
unicode = 0044;
},
{
glyphname = E;
lastChange = "2020-10-31 11:58:35 +0000";
layers = (
{
layerId = "75B2229F-4D44-4147-BD02-A22690DA2091";
paths = (
{
closed = 1;
nodes = (
"838 1142 LINE",
"838 1110 LINE",
"112 1110 LINE",
"112 611 LINE",
"795 611 LINE",
"795 579 LINE",
"112 579 LINE",
"112 32 LINE",
"844 32 LINE",
"844 0 LINE",
"80 0 LINE",
"80 1142 LINE"
);
}
);
width = 924;
},
{
layerId = "0D3446AC-0247-4F99-A3DB-2CE2433AA8CC";
paths = (
{
closed = 1;
nodes = (
"1025 1142 LINE",
"1025 849 LINE",
"431 849 LINE",
"431 707 LINE",
"970 707 LINE",
"970 435 LINE",
"431 435 LINE",
"431 293 LINE",
"1043 293 LINE",
"1043 0 LINE",
"80 0 LINE",
"80 1142 LINE"
);
}
);
width = 1123;
}
);
unicode = 0045;
},
{
glyphname = F;
lastChange = "2020-10-31 11:55:30 +0000";
layers = (
{
layerId = "75B2229F-4D44-4147-BD02-A22690DA2091";
paths = (
{
closed = 1;
nodes = (
"783 1142 LINE",
"783 1110 LINE",
"112 1110 LINE",
"112 611 LINE",
"719 611 LINE",
"719 579 LINE",
"112 579 LINE",
"112 0 LINE",
"80 0 LINE",
"80 1142 LINE"
);
}
);
width = 863;
},
{
layerId = "0D3446AC-0247-4F99-A3DB-2CE2433AA8CC";
paths = (
{
closed = 1;
nodes = (
"962 1142 LINE",
"962 849 LINE",
"431 849 LINE",
"431 707 LINE",
"887 707 LINE",
"887 435 LINE",
"431 435 LINE",
"431 0 LINE",
"80 0 LINE",
"80 1142 LINE"
);
}
);
width = 1042;
}
);
unicode = 0046;
},
{
glyphname = G;
lastChange = "2020-10-29 18:09:13 +0000";
layers = (
{
layerId = "75B2229F-4D44-4147-BD02-A22690DA2091";
paths = (
{
closed = 1;
nodes = (
"111 248 OFFCURVE",
"306 7 OFFCURVE",
"620 7 CURVE SMOOTH",
"901 8 OFFCURVE",
"1070 186 OFFCURVE",
"1074 504 CURVE",
"631 504 LINE",
"631 536 LINE",
"1106 536 LINE",
"1106 0 LINE",
"1074 0 LINE",
"1074 285 LINE",
"1003 86 OFFCURVE",
"852 -22 OFFCURVE",
"616 -25 CURVE SMOOTH",
"273 -21 OFFCURVE",
"80 224 OFFCURVE",
"80 573 CURVE SMOOTH",
"81 915 OFFCURVE",
"277 1167 OFFCURVE",
"616 1171 CURVE SMOOTH",
"883 1166 OFFCURVE",
"1041 1038 OFFCURVE",
"1089 787 CURVE",
"1057 787 LINE",
"1008 1017 OFFCURVE",
"861 1134 OFFCURVE",
"616 1139 CURVE SMOOTH",
"299 1135 OFFCURVE",
"111 896 OFFCURVE",
"111 573 CURVE SMOOTH"
);
}
);
width = 1186;
},
{
layerId = "0D3446AC-0247-4F99-A3DB-2CE2433AA8CC";
paths = (
{
closed = 1;
nodes = (
"431 388 OFFCURVE",
"523 258 OFFCURVE",
"689 258 CURVE SMOOTH",
"772 258 OFFCURVE",
"852 299 OFFCURVE",
"871 384 CURVE",
"716 384 LINE",
"716 629 LINE",
"1183 629 LINE",
"1183 0 LINE",
"961 0 LINE",
"950 116 LINE",
"872 21 OFFCURVE",
"751 -27 OFFCURVE",
"625 -27 CURVE SMOOTH",
"291 -23 OFFCURVE",
"81 222 OFFCURVE",
"80 560 CURVE SMOOTH",
"84 918 OFFCURVE",
"300 1172 OFFCURVE",
"643 1169 CURVE SMOOTH",
"938 1165 OFFCURVE",
"1114 1023 OFFCURVE",
"1169 742 CURVE",
"831 742 LINE",
"816 831 OFFCURVE",
"753 883 OFFCURVE",
"665 884 CURVE SMOOTH",
"484 882 OFFCURVE",
"431 756 OFFCURVE",
"431 552 CURVE SMOOTH"
);
}
);
width = 1263;
}
);
unicode = 0047;
},
{
glyphname = H;
lastChange = "2020-10-29 17:19:39 +0000";
layers = (
{
layerId = "75B2229F-4D44-4147-BD02-A22690DA2091";
paths = (
{
closed = 1;
nodes = (
"112 1142 LINE",
"112 611 LINE",
"911 611 LINE",
"911 1142 LINE",
"943 1142 LINE",
"943 0 LINE",
"911 0 LINE",
"911 579 LINE",
"112 579 LINE",
"112 0 LINE",
"80 0 LINE",
"80 1142 LINE"
);
}
);
width = 1023;
},
{
layerId = "0D3446AC-0247-4F99-A3DB-2CE2433AA8CC";
paths = (
{
closed = 1;
nodes = (
"431 1142 LINE",
"431 745 LINE",
"761 745 LINE",
"761 1142 LINE",
"1113 1142 LINE",
"1113 0 LINE",
"761 0 LINE",
"761 453 LINE",
"431 453 LINE",
"431 0 LINE",
"80 0 LINE",
"80 1142 LINE"
);
}
);
width = 1193;
}
);
unicode = 0048;
},
{
glyphname = I;
lastChange = "2020-10-29 17:20:21 +0000";
layers = (
{
layerId = "75B2229F-4D44-4147-BD02-A22690DA2091";
paths = (
{
closed = 1;
nodes = (
"113 1142 LINE",
"113 0 LINE",
"80 0 LINE",
"80 1142 LINE"
);
}
);
width = 193;
},
{
layerId = "0D3446AC-0247-4F99-A3DB-2CE2433AA8CC";
paths = (
{
closed = 1;
nodes = (
"432 1142 LINE",
"432 0 LINE",
"80 0 LINE",
"80 1142 LINE"
);
}
);
width = 512;
}
);
unicode = 0049;
},
{
glyphname = J;
lastChange = "2020-10-29 12:17:44 +0000";
layers = (
{
layerId = "75B2229F-4D44-4147-BD02-A22690DA2091";
paths = (
{
closed = 1;
nodes = (
"698 1169 LINE",
"698 325 LINE SMOOTH",
"698 133 OFFCURVE",
"612 1 OFFCURVE",
"384 0 CURVE SMOOTH",
"174 1 OFFCURVE",
"79 132 OFFCURVE",
"80 312 CURVE SMOOTH",
"80 381 LINE",
"112 381 LINE",
"112 312 LINE SMOOTH",
"114 125 OFFCURVE",
"204 32 OFFCURVE",
"384 32 CURVE SMOOTH",
"568 29 OFFCURVE",
"666 113 OFFCURVE",
"666 349 CURVE SMOOTH",
"666 1169 LINE",
"666 1169 LINE"
);
}
);
width = 778;
},
{
layerId = "0D3446AC-0247-4F99-A3DB-2CE2433AA8CC";
paths = (
{
closed = 1;
nodes = (
"928 1169 LINE",
"928 438 LINE SMOOTH",
"928 141 OFFCURVE",
"785 -5 OFFCURVE",
"499 0 CURVE SMOOTH",
"217 6 OFFCURVE",
"77 143 OFFCURVE",
"80 411 CURVE SMOOTH",
"80 507 LINE",
"397 507 LINE",
"397 441 LINE SMOOTH",
"395 352 OFFCURVE",
"402 273 OFFCURVE",
"491 272 CURVE",
"578 276 OFFCURVE",
"578 376 OFFCURVE",
"576 433 CURVE SMOOTH",
"576 1169 LINE",
"576 1169 LINE"
);
}
);
width = 1008;
}
);
unicode = 004A;
},
{
glyphname = K;
lastChange = "2020-10-29 17:22:03 +0000";
layers = (
{
layerId = "75B2229F-4D44-4147-BD02-A22690DA2091";
paths = (
{
closed = 1;
nodes = (
"112 1142 LINE",
"112 448 LINE",
"903 1142 LINE",
"951 1142 LINE",
"399 656 LINE",
"983 0 LINE",
"940 0 LINE",
"373 637 LINE",
"112 405 LINE",
"112 0 LINE",
"80 0 LINE",
"80 1142 LINE"
);
}
);
width = 1063;
},
{
layerId = "0D3446AC-0247-4F99-A3DB-2CE2433AA8CC";
paths = (
{
closed = 1;
nodes = (
"432 1142 LINE",
"432 748 LINE",
"748 1142 LINE",
"1182 1142 LINE",
"768 696 LINE",
"1249 0 LINE",
"811 0 LINE",
"529 444 LINE",
"432 337 LINE",
"432 0 LINE",
"80 0 LINE",
"80 1142 LINE"
);
}
);
width = 1329;
}
);
unicode = 004B;
},
{
glyphname = L;
lastChange = "2020-10-29 17:44:48 +0000";
layers = (
{
layerId = "75B2229F-4D44-4147-BD02-A22690DA2091";
paths = (
{
closed = 1;
nodes = (
"112 1142 LINE",
"112 32 LINE",
"778 32 LINE",
"778 0 LINE",
"80 0 LINE",
"80 1142 LINE"
);
}
);
width = 858;
},
{
layerId = "0D3446AC-0247-4F99-A3DB-2CE2433AA8CC";
paths = (
{
closed = 1;
nodes = (
"432 1142 LINE",
"432 293 LINE",
"937 293 LINE",
"937 0 LINE",
"80 0 LINE",
"80 1142 LINE"
);
}
);
width = 1017;
}
);
unicode = 004C;
},
{
glyphname = M;
lastChange = "2020-10-29 17:46:48 +0000";
layers = (
{
layerId = "75B2229F-4D44-4147-BD02-A22690DA2091";
paths = (
{
closed = 1;
nodes = (
"132 1142 LINE",
"615 41 LINE",
"619 41 LINE",
"1101 1142 LINE",
"1155 1142 LINE",
"1155 0 LINE",
"1122 0 LINE",
"1122 1102 LINE",
"1119 1102 LINE",
"634 0 LINE",
"599 0 LINE",
"115 1102 LINE",
"112 1102 LINE",
"112 0 LINE",
"80 0 LINE",
"80 1142 LINE"
);
}
);
width = 1235;
},
{
layerId = "0D3446AC-0247-4F99-A3DB-2CE2433AA8CC";
paths = (
{
closed = 1;
nodes = (
"581 1142 LINE",
"744 470 LINE",
"747 470 LINE",
"911 1142 LINE",
"1411 1142 LINE",
"1411 0 LINE",
"1079 0 LINE",
"1079 733 LINE",
"1075 733 LINE",
"877 0 LINE",
"615 0 LINE",
"416 733 LINE",
"413 733 LINE",
"413 0 LINE",
"80 0 LINE",
"80 1142 LINE"
);
}
);
width = 1491;
}
);
unicode = 004D;
},
{
glyphname = N;
lastChange = "2020-10-29 17:46:28 +0000";
layers = (
{
layerId = "75B2229F-4D44-4147-BD02-A22690DA2091";
paths = (
{
closed = 1;
nodes = (
"128 1142 LINE",
"908 40 LINE",
"911 40 LINE",
"911 1142 LINE",
"943 1142 LINE",
"943 0 LINE",
"895 0 LINE",
"115 1102 LINE",
"112 1102 LINE",
"112 0 LINE",
"80 0 LINE",
"80 1142 LINE"
);
}
);
width = 1023;
},
{
layerId = "0D3446AC-0247-4F99-A3DB-2CE2433AA8CC";
paths = (
{
closed = 1;
nodes = (
"440 1142 LINE",
"772 531 LINE",
"776 531 LINE",
"776 1142 LINE",
"1109 1142 LINE",
"1109 0 LINE",
"766 0 LINE",
"416 624 LINE",
"413 624 LINE",
"413 0 LINE",
"80 0 LINE",
"80 1142 LINE"
);
}
);
width = 1189;
}
);
unicode = 004E;
},
{
glyphname = O;
lastChange = "2020-10-29 12:22:55 +0000";
layers = (
{
layerId = "75B2229F-4D44-4147-BD02-A22690DA2091";
paths = (
{
closed = 1;
nodes = (
"118 275 OFFCURVE",
"291 33 OFFCURVE",
"606 32 CURVE SMOOTH",
"921 33 OFFCURVE",
"1097 272 OFFCURVE",
"1101 598 CURVE SMOOTH",
"1097 924 OFFCURVE",
"927 1160 OFFCURVE",
"606 1164 CURVE SMOOTH",
"290 1160 OFFCURVE",
"118 926 OFFCURVE",
"112 598 CURVE"
);
},
{
closed = 1;
nodes = (
"80 939 OFFCURVE",
"268 1192 OFFCURVE",
"606 1196 CURVE SMOOTH",
"945 1192 OFFCURVE",
"1133 945 OFFCURVE",
"1133 598 CURVE SMOOTH",
"1133 257 OFFCURVE",
"943 4 OFFCURVE",
"606 0 CURVE SMOOTH",
"275 4 OFFCURVE",
"80 258 OFFCURVE",
"80 598 CURVE SMOOTH"
);
}
);
width = 1213;
},
{
layerId = "0D3446AC-0247-4F99-A3DB-2CE2433AA8CC";
paths = (
{
closed = 1;
nodes = (
"432 435 OFFCURVE",
"511 281 OFFCURVE",
"659 285 CURVE SMOOTH",
"812 285 OFFCURVE",
"886 420 OFFCURVE",
"886 598 CURVE SMOOTH",
"886 768 OFFCURVE",
"814 917 OFFCURVE",
"659 911 CURVE SMOOTH",
"508 911 OFFCURVE",
"432 776 OFFCURVE",
"432 598 CURVE SMOOTH"
);
},
{
closed = 1;
nodes = (
"83 946 OFFCURVE",
"306 1192 OFFCURVE",
"659 1196 CURVE SMOOTH",
"1014 1192 OFFCURVE",
"1235 953 OFFCURVE",
"1238 598 CURVE SMOOTH",
"1235 247 OFFCURVE",
"1016 4 OFFCURVE",
"659 0 CURVE SMOOTH",
"309 4 OFFCURVE",
"83 249 OFFCURVE",
"80 598 CURVE SMOOTH"
);
}
);
width = 1318;
}
);
unicode = 004F;
},
{
glyphname = P;
lastChange = "2020-10-29 15:36:46 +0000";
layers = (
{
layerId = "75B2229F-4D44-4147-BD02-A22690DA2091";
paths = (
{
closed = 1;
nodes = (
"80 0 LINE",
"80 1142 LINE",
"542 1142 LINE SMOOTH",
"771 1141 OFFCURVE",
"887 1037 OFFCURVE",
"890 830 CURVE SMOOTH",
"887 624 OFFCURVE",
"738 520 OFFCURVE",
"526 520 CURVE SMOOTH",
"112 520 LINE",
"112 0 LINE"
);
},
{
closed = 1;
nodes = (
"542 552 LINE SMOOTH",
"720 552 OFFCURVE",
"855 650 OFFCURVE",
"858 830 CURVE SMOOTH",
"858 1015 OFFCURVE",
"753 1108 OFFCURVE",
"542 1110 CURVE SMOOTH",
"112 1110 LINE",
"112 552 LINE"
);
}
);
width = 970;
},
{
layerId = "0D3446AC-0247-4F99-A3DB-2CE2433AA8CC";
paths = (
{
closed = 1;
nodes = (
"80 0 LINE",
"80 1142 LINE",
"668 1142 LINE SMOOTH",
"911 1142 OFFCURVE",
"1090 986 OFFCURVE",
"1088 751 CURVE SMOOTH",
"1085 482 OFFCURVE",
"912 345 OFFCURVE",
"639 345 CURVE SMOOTH",
"432 345 LINE",
"431 0 LINE"
);
},
{
closed = 1;
nodes = (
"568 617 LINE SMOOTH",
"683 617 OFFCURVE",
"755 638 OFFCURVE",
"755 739 CURVE SMOOTH",
"754 833 OFFCURVE",
"703 849 OFFCURVE",
"589 849 CURVE SMOOTH",
"432 849 LINE",
"432 617 LINE"
);
}
);
width = 1168;
}
);
unicode = 0050;
},
{
glyphname = Q;
lastChange = "2020-10-29 15:42:18 +0000";
layers = (
{
layerId = "75B2229F-4D44-4147-BD02-A22690DA2091";
paths = (
{
closed = 1;
nodes = (
"730 303 LINE",
"936 161 LINE",
"1042 264 OFFCURVE",
"1097 410 OFFCURVE",
"1101 599 CURVE",
"1096 926 OFFCURVE",
"927 1161 OFFCURVE",
"606 1165 CURVE SMOOTH",
"290 1161 OFFCURVE",
"118 927 OFFCURVE",
"112 599 CURVE",
"118 276 OFFCURVE",
"291 34 OFFCURVE",
"606 33 CURVE SMOOTH",
"730 33 OFFCURVE",
"832 69 OFFCURVE",
"913 140 CURVE",
"712 277 LINE"
);
},
{
closed = 1;
nodes = (
"856 42 OFFCURVE",
"744 1 OFFCURVE",
"606 0 CURVE SMOOTH",
"275 5 OFFCURVE",
"80 259 OFFCURVE",
"80 599 CURVE SMOOTH",
"80 940 OFFCURVE",
"268 1193 OFFCURVE",
"606 1197 CURVE SMOOTH",
"945 1193 OFFCURVE",
"1133 946 OFFCURVE",
"1133 599 CURVE SMOOTH",
"1133 412 OFFCURVE",
"1076 259 OFFCURVE",
"963 141 CURVE",
"1147 15 LINE",
"1131 -7 LINE",
"942 121 LINE"
);
}
);
width = 1227;
},
{
layerId = "0D3446AC-0247-4F99-A3DB-2CE2433AA8CC";
paths = (
{
closed = 1;
nodes = (
"767 544 LINE",
"863 447 LINE",
"879 486 OFFCURVE",
"886 536 OFFCURVE",
"886 598 CURVE SMOOTH",
"886 769 OFFCURVE",
"815 916 OFFCURVE",
"658 912 CURVE SMOOTH",
"508 912 OFFCURVE",
"431 776 OFFCURVE",
"431 598 CURVE SMOOTH",
"431 434 OFFCURVE",
"511 289 OFFCURVE",
"647 285 CURVE SMOOTH",
"665 284 OFFCURVE",
"685 286 OFFCURVE",
"705 291 CURVE",
"609 391 LINE"
);
},
{
closed = 1;
nodes = (
"860 20 OFFCURVE",
"770 0 OFFCURVE",
"658 0 CURVE SMOOTH",
"309 4 OFFCURVE",
"81 249 OFFCURVE",
"80 598 CURVE SMOOTH",
"81 947 OFFCURVE",
"304 1193 OFFCURVE",
"658 1197 CURVE SMOOTH",
"1015 1193 OFFCURVE",
"1236 954 OFFCURVE",
"1237 598 CURVE SMOOTH",
"1237 438 OFFCURVE",
"1193 305 OFFCURVE",
"1105 198 CURVE",
"1240 59 LINE",
"1083 -98 LINE",
"929 61 LINE"
);
}
);
width = 1320;
}
);
unicode = 0051;
},
{
glyphname = R;
lastChange = "2020-10-29 15:47:30 +0000";
layers = (
{
layerId = "75B2229F-4D44-4147-BD02-A22690DA2091";
paths = (
{
closed = 1;
nodes = (
"547 1142 LINE SMOOTH",
"778 1142 OFFCURVE",
"894 1044 OFFCURVE",
"896 849 CURVE SMOOTH",
"896 694 OFFCURVE",
"814 596 OFFCURVE",
"651 555 CURVE",
"838 518 OFFCURVE",
"879 439 OFFCURVE",
"876 235 CURVE SMOOTH",
"876 171 OFFCURVE",
"883 43 OFFCURVE",
"904 0 CURVE",
"869 0 LINE",
"853 50 OFFCURVE",
"844 170 OFFCURVE",
"844 240 CURVE SMOOTH",
"850 466 OFFCURVE",
"768 534 OFFCURVE",
"542 536 CURVE SMOOTH",
"112 536 LINE",
"112 0 LINE",
"80 0 LINE",
"80 1142 LINE"
);
},
{
closed = 1;
nodes = (
"539 568 LINE SMOOTH",
"726 568 OFFCURVE",
"861 665 OFFCURVE",
"864 853 CURVE SMOOTH",
"869 1021 OFFCURVE",
"766 1107 OFFCURVE",
"555 1110 CURVE SMOOTH",
"112 1110 LINE",
"112 568 LINE"
);
}
);
width = 984;
},
{
layerId = "0D3446AC-0247-4F99-A3DB-2CE2433AA8CC";
paths = (
{
closed = 1;
nodes = (
"750 1142 LINE SMOOTH",
"964 1142 OFFCURVE",
"1119 1031 OFFCURVE",
"1123 816 CURVE SMOOTH",
"1123 689 OFFCURVE",
"1072 580 OFFCURVE",
"952 530 CURVE",
"1050 488 OFFCURVE",
"1106 393 OFFCURVE",
"1120 244 CURVE SMOOTH",
"1137 132 OFFCURVE",
"1119 78 OFFCURVE",
"1158 0 CURVE",
"806 0 LINE",
"790 58 OFFCURVE",
"781 117 OFFCURVE",
"778 176 CURVE SMOOTH",
"771 313 OFFCURVE",
"744 398 OFFCURVE",
"619 398 CURVE SMOOTH",
"432 398 LINE",
"432 0 LINE",
"80 0 LINE",
"80 1142 LINE"
);
},
{
closed = 1;
nodes = (
"616 643 LINE SMOOTH",
"704 640 OFFCURVE",
"769 669 OFFCURVE",
"771 757 CURVE SMOOTH",
"771 850 OFFCURVE",
"700 870 OFFCURVE",
"596 870 CURVE SMOOTH",
"432 870 LINE",
"432 643 LINE"
);
}
);
width = 1238;
}
);
unicode = 0052;
},
{
glyphname = S;
lastChange = "2020-10-29 15:52:26 +0000";
layers = (
{
layerId = "75B2229F-4D44-4147-BD02-A22690DA2091";
paths = (
{
closed = 1;
nodes = (
"865 1070 OFFCURVE",
"732 1167 OFFCURVE",
"503 1164 CURVE SMOOTH",
"316 1167 OFFCURVE",
"146 1088 OFFCURVE",
"146 902 CURVE SMOOTH",
"146 718 OFFCURVE",
"281 694 OFFCURVE",
"538 625 CURVE",
"786 571 OFFCURVE",
"929 533 OFFCURVE",
"929 307 CURVE SMOOTH",
"925 101 OFFCURVE",
"745 0 OFFCURVE",
"526 0 CURVE SMOOTH",
"250 0 OFFCURVE",
"81 129 OFFCURVE",
"80 406 CURVE",
"112 406 LINE",
"113 150 OFFCURVE",
"267 29 OFFCURVE",
"526 32 CURVE SMOOTH",
"723 32 OFFCURVE",
"893 119 OFFCURVE",
"897 308 CURVE SMOOTH",
"897 516 OFFCURVE",
"733 553 OFFCURVE",
"497 601 CURVE",
"256 660 OFFCURVE",
"113 704 OFFCURVE",
"113 902 CURVE SMOOTH",
"113 1101 OFFCURVE",
"276 1196 OFFCURVE",
"503 1196 CURVE SMOOTH",
"751 1199 OFFCURVE",
"893 1092 OFFCURVE",
"906 850 CURVE",
"874 850 LINE"
);
}
);
width = 1009;
},
{
layerId = "0D3446AC-0247-4F99-A3DB-2CE2433AA8CC";
paths = (
{
closed = 1;
nodes = (
"738 904 OFFCURVE",
"668 943 OFFCURVE",
"584 943 CURVE SMOOTH",
"528 943 OFFCURVE",
"458 926 OFFCURVE",
"458 867 CURVE",
"465 796 OFFCURVE",
"619 764 OFFCURVE",
"789 723 CURVE SMOOTH",
"990 671 OFFCURVE",
"1110 586 OFFCURVE",
"1110 393 CURVE SMOOTH",
"1104 117 OFFCURVE",
"878 -3 OFFCURVE",
"583 0 CURVE SMOOTH",
"306 0 OFFCURVE",
"90 137 OFFCURVE",
"80 411 CURVE",
"432 411 LINE",
"432 302 OFFCURVE",
"493 253 OFFCURVE",
"613 253 CURVE SMOOTH",
"687 250 OFFCURVE",
"757 280 OFFCURVE",
"758 357 CURVE SMOOTH",
"761 428 OFFCURVE",
"650 452 OFFCURVE",
"511 488 CURVE SMOOTH",
"292 549 OFFCURVE",
"125 613 OFFCURVE",
"125 819 CURVE SMOOTH",
"129 1071 OFFCURVE",
"323 1196 OFFCURVE",
"586 1196 CURVE SMOOTH",
"864 1199 OFFCURVE",
"1046 1092 OFFCURVE",
"1062 824 CURVE",
"729 824 LINE"
);
}
);
width = 1190;
}
);
unicode = 0053;
},
{
glyphname = T;
lastChange = "2020-10-29 17:47:54 +0000";
layers = (
{
layerId = "75B2229F-4D44-4147-BD02-A22690DA2091";
paths = (
{
closed = 1;
nodes = (
"934 1142 LINE",
"934 1110 LINE",
"523 1110 LINE",
"523 0 LINE",
"491 0 LINE",
"491 1110 LINE",
"80 1110 LINE",
"80 1142 LINE"
);
}
);
width = 1014;
},
{
layerId = "0D3446AC-0247-4F99-A3DB-2CE2433AA8CC";
paths = (
{
closed = 1;
nodes = (
"1072 1142 LINE",
"1072 849 LINE",
"752 849 LINE",
"752 0 LINE",
"400 0 LINE",
"400 849 LINE",
"80 849 LINE",
"80 1142 LINE"
);
}
);
width = 1152;
}
);
unicode = 0054;
},
{
glyphname = U;
lastChange = "2020-10-29 15:59:01 +0000";
layers = (
{
layerId = "75B2229F-4D44-4147-BD02-A22690DA2091";
paths = (
{
closed = 1;
nodes = (
"916 151 OFFCURVE",
"776 0 OFFCURVE",
"499 0 CURVE SMOOTH",
"222 0 OFFCURVE",
"82 151 OFFCURVE",
"80 453 CURVE SMOOTH",
"80 1169 LINE",
"112 1169 LINE",
"112 453 LINE SMOOTH",
"111 174 OFFCURVE",
"240 34 OFFCURVE",
"499 32 CURVE SMOOTH",
"758 34 OFFCURVE",
"887 174 OFFCURVE",
"887 453 CURVE SMOOTH",
"887 1169 LINE",
"919 1169 LINE",
"919 453 LINE SMOOTH"
);
}
);
width = 999;
},
{
layerId = "0D3446AC-0247-4F99-A3DB-2CE2433AA8CC";
paths = (
{
closed = 1;
nodes = (
"1121 155 OFFCURVE",
"948 -1 OFFCURVE",
"601 0 CURVE SMOOTH",
"254 -1 OFFCURVE",
"80 155 OFFCURVE",
"80 468 CURVE SMOOTH",
"80 1169 LINE",
"431 1169 LINE",
"431 547 LINE SMOOTH",
"431 387 OFFCURVE",
"457 285 OFFCURVE",
"602 285 CURVE SMOOTH",
"750 285 OFFCURVE",
"769 387 OFFCURVE",
"769 547 CURVE SMOOTH",
"769 1169 LINE",
"1121 1169 LINE",
"1121 468 LINE SMOOTH"
);
}
);
width = 1201;
}
);
unicode = 0055;
},
{
glyphname = V;
lastChange = "2020-10-29 17:49:14 +0000";
layers = (
{
layerId = "75B2229F-4D44-4147-BD02-A22690DA2091";
paths = (
{
closed = 1;
nodes = (
"112 1142 LINE",
"544 41 LINE",
"547 41 LINE",
"966 1142 LINE",
"998 1142 LINE",
"563 0 LINE",
"528 0 LINE",
"80 1142 LINE"
);
}
);
width = 1078;
},
{
layerId = "0D3446AC-0247-4F99-A3DB-2CE2433AA8CC";
paths = (
{
closed = 1;
nodes = (
"435 1142 LINE",
"622 449 LINE",
"626 449 LINE",
"809 1142 LINE",
"1171 1142 LINE",
"814 0 LINE",
"420 0 LINE",
"80 1142 LINE"
);
}
);
width = 1251;
}
);
unicode = 0056;
},
{
glyphname = W;
lastChange = "2020-10-29 17:50:13 +0000";
layers = (
{
layerId = "75B2229F-4D44-4147-BD02-A22690DA2091";
paths = (
{
closed = 1;
nodes = (
"114 1142 LINE",
"437 40 LINE",
"440 40 LINE",
"769 1142 LINE",
"816 1142 LINE",
"1151 40 LINE",
"1154 40 LINE",
"1472 1142 LINE",
"1504 1142 LINE",
"1172 0 LINE",
"1130 0 LINE",
"794 1102 LINE",
"790 1102 LINE",
"461 0 LINE",
"418 0 LINE",
"80 1142 LINE"
);
}
);
width = 1584;
},
{
layerId = "0D3446AC-0247-4F99-A3DB-2CE2433AA8CC";
paths = (
{
closed = 1;
nodes = (
"425 1142 LINE",
"564 437 LINE",
"567 437 LINE",
"705 1142 LINE",
"1016 1142 LINE",
"1150 427 LINE",
"1153 427 LINE",
"1295 1142 LINE",
"1642 1142 LINE",
"1323 0 LINE",
"981 0 LINE",
"857 696 LINE",
"854 696 LINE",
"734 0 LINE",
"390 0 LINE",
"80 1142 LINE"
);
}
);
width = 1722;
}
);
unicode = 0057;
},
{
glyphname = X;
lastChange = "2020-10-29 17:53:57 +0000";
layers = (
{
layerId = "75B2229F-4D44-4147-BD02-A22690DA2091";
paths = (
{
closed = 1;
nodes = (
"145 1142 LINE",
"540 612 LINE",
"938 1142 LINE",
"979 1142 LINE",
"562 587 LINE",
"997 0 LINE",
"958 0 LINE",
"540 562 LINE",
"119 0 LINE",
"80 0 LINE",
"519 587 LINE",
"103 1142 LINE"
);
}
);
width = 1077;
},
{
layerId = "0D3446AC-0247-4F99-A3DB-2CE2433AA8CC";
paths = (
{
closed = 1;
nodes = (
"530 1142 LINE",
"703 832 LINE",
"873 1142 LINE",
"1263 1142 LINE",
"897 605 LINE",
"1305 0 LINE",
"880 0 LINE",
"686 341 LINE",
"484 0 LINE",
"80 0 LINE",
"494 608 LINE",
"118 1142 LINE"
);
}
);
width = 1385;
}
);
unicode = 0058;
},
{
glyphname = Y;
lastChange = "2020-10-29 17:55:04 +0000";
layers = (
{
layerId = "75B2229F-4D44-4147-BD02-A22690DA2091";
paths = (
{
closed = 1;
nodes = (
"120 1142 LINE",
"558 515 LINE",
"998 1142 LINE",
"1036 1142 LINE",
"574 481 LINE",
"574 0 LINE",
"542 0 LINE",
"542 481 LINE",
"80 1142 LINE"
);
}
);
width = 1116;
},
{
layerId = "0D3446AC-0247-4F99-A3DB-2CE2433AA8CC";
paths = (
{
closed = 1;
nodes = (
"468 1142 LINE",
"659 722 LINE",
"857 1142 LINE",
"1242 1142 LINE",
"833 421 LINE",
"833 0 LINE",
"481 0 LINE",
"481 421 LINE",
"80 1142 LINE"
);
}
);
width = 1322;
}
);
unicode = 0059;
},
{
glyphname = Z;
lastChange = "2020-10-29 17:55:52 +0000";
layers = (
{
layerId = "75B2229F-4D44-4147-BD02-A22690DA2091";
paths = (
{
closed = 1;
nodes = (
"910 1142 LINE",
"910 1099 LINE",
"112 32 LINE",
"923 32 LINE",
"923 0 LINE",
"80 0 LINE",
"80 43 LINE",
"878 1110 LINE",
"125 1110 LINE",
"125 1142 LINE"
);
}
);
width = 1003;
},
{
layerId = "0D3446AC-0247-4F99-A3DB-2CE2433AA8CC";
paths = (
{
closed = 1;
nodes = (
"1075 1142 LINE",
"1075 887 LINE",
"539 293 LINE",
"1101 293 LINE",
"1101 0 LINE",
"80 0 LINE",
"80 275 LINE",
"611 849 LINE",
"110 849 LINE",
"110 1142 LINE"
);
}
);
width = 1181;
}
);
unicode = 005A;
},
{
glyphname = a;
lastChange = "2020-10-29 16:31:35 +0000";
layers = (
{
layerId = "75B2229F-4D44-4147-BD02-A22690DA2091";
paths = (
{
closed = 1;
nodes = (
"681 483 LINE",
"641 425 OFFCURVE",
"493 424 OFFCURVE",
"363 417 CURVE SMOOTH",
"207 414 OFFCURVE",
"112 353 OFFCURVE",
"112 203 CURVE SMOOTH",
"112 80 OFFCURVE",
"211 14 OFFCURVE",
"352 13 CURVE SMOOTH",
"547 14 OFFCURVE",
"684 143 OFFCURVE",
"684 331 CURVE SMOOTH",
"684 483 LINE"
);
},
{
closed = 1;
nodes = (
"719 28 OFFCURVE",
"751 32 OFFCURVE",
"820 32 CURVE",
"820 0 LINE",
"680 0 OFFCURVE",
"686 8 OFFCURVE",
"684 188 CURVE",
"681 188 LINE",
"641 60 OFFCURVE",
"505 -18 OFFCURVE",
"355 -19 CURVE SMOOTH",
"199 -19 OFFCURVE",
"81 51 OFFCURVE",
"80 203 CURVE SMOOTH",
"80 371 OFFCURVE",
"182 445 OFFCURVE",
"363 449 CURVE",
"534 461 OFFCURVE",
"627 460 OFFCURVE",
"667 512 CURVE",
"688 545 OFFCURVE",
"686 600 OFFCURVE",
"680 661 CURVE",
"657 775 OFFCURVE",
"566 809 OFFCURVE",
"445 809 CURVE SMOOTH",
"271 807 OFFCURVE",
"177 727 OFFCURVE",
"163 568 CURVE",
"131 568 LINE",
"141 743 OFFCURVE",
"256 840 OFFCURVE",
"445 841 CURVE SMOOTH",
"616 844 OFFCURVE",
"709 770 OFFCURVE",
"716 606 CURVE",
"716 83 LINE"
);
}
);
width = 900;
},
{
layerId = "0D3446AC-0247-4F99-A3DB-2CE2433AA8CC";
paths = (
{
closed = 1;
nodes = (
"625 368 LINE",
"588 352 OFFCURVE",
"550 340 OFFCURVE",
"510 333 CURVE SMOOTH",
"438 324 OFFCURVE",
"403 294 OFFCURVE",
"403 243 CURVE SMOOTH",
"403 202 OFFCURVE",
"449 167 OFFCURVE",
"502 167 CURVE SMOOTH",
"577 167 OFFCURVE",
"631 212 OFFCURVE",
"635 296 CURVE SMOOTH",
"635 373 LINE"
);
},
{
closed = 1;
nodes = (
"939 111 OFFCURVE",
"945 54 OFFCURVE",
"977 0 CURVE",
"654 0 LINE",
"645 27 OFFCURVE",
"642 53 OFFCURVE",
"643 78 CURVE",
"640 78 LINE",
"574 8 OFFCURVE",
"482 -21 OFFCURVE",
"373 -21 CURVE SMOOTH",
"206 -21 OFFCURVE",
"81 63 OFFCURVE",
"80 231 CURVE SMOOTH",
"80 401 OFFCURVE",
"213 473 OFFCURVE",
"409 496 CURVE SMOOTH",
"490 506 OFFCURVE",
"566 510 OFFCURVE",
"609 535 CURVE SMOOTH",
"626 545 OFFCURVE",
"635 563 OFFCURVE",
"635 588 CURVE SMOOTH",
"634 643 OFFCURVE",
"592 664 OFFCURVE",
"531 664 CURVE SMOOTH",
"462 663 OFFCURVE",
"412 639 OFFCURVE",
"412 579 CURVE",
"118 579 LINE",
"133 795 OFFCURVE",
"305 851 OFFCURVE",
"545 851 CURVE SMOOTH",
"828 851 OFFCURVE",
"939 803 OFFCURVE",
"939 527 CURVE SMOOTH",
"939 186 LINE SMOOTH"
);
}
);
width = 1057;
}
);
unicode = 0061;
},
{
glyphname = b;
lastChange = "2020-10-29 16:35:36 +0000";
layers = (
{
layerId = "75B2229F-4D44-4147-BD02-A22690DA2091";
paths = (
{
closed = 1;
nodes = (
"112 196 OFFCURVE",
"234 14 OFFCURVE",
"445 13 CURVE SMOOTH",
"656 14 OFFCURVE",
"763 188 OFFCURVE",
"763 410 CURVE SMOOTH",
"763 630 OFFCURVE",
"660 805 OFFCURVE",
"445 810 CURVE",
"228 807 OFFCURVE",
"117 673 OFFCURVE",
"112 410 CURVE SMOOTH"
);
},
{
closed = 1;
nodes = (
"112 1142 LINE",
"112 592 LINE",
"115 592 LINE",
"157 754 OFFCURVE",
"267 837 OFFCURVE",
"445 842 CURVE",
"673 837 OFFCURVE",
"795 648 OFFCURVE",
"795 410 CURVE SMOOTH",
"795 172 OFFCURVE",
"675 -13 OFFCURVE",
"445 -19 CURVE SMOOTH",
"283 -18 OFFCURVE",
"162 79 OFFCURVE",
"115 231 CURVE",
"112 231 LINE",
"112 0 LINE",
"80 0 LINE",
"80 1142 LINE"
);
}
);
width = 875;
},
{
layerId = "0D3446AC-0247-4F99-A3DB-2CE2433AA8CC";
paths = (
{
closed = 1;
nodes = (
"386 300 OFFCURVE",
"420 212 OFFCURVE",
"525 209 CURVE SMOOTH",
"629 209 OFFCURVE",
"664 301 OFFCURVE",
"664 416 CURVE SMOOTH",
"664 532 OFFCURVE",
"633 621 OFFCURVE",
"525 621 CURVE SMOOTH",
"421 618 OFFCURVE",
"386 540 OFFCURVE",
"386 416 CURVE SMOOTH"
);
},
{
closed = 1;
nodes = (
"397 1142 LINE",
"397 739 LINE",
"400 739 LINE",
"452 812 OFFCURVE",
"528 850 OFFCURVE",
"627 851 CURVE SMOOTH",
"874 846 OFFCURVE",
"981 676 OFFCURVE",
"981 419 CURVE SMOOTH",
"981 186 OFFCURVE",
"859 -15 OFFCURVE",
"632 -21 CURVE",
"529 -20 OFFCURVE",
"452 6 OFFCURVE",
"389 91 CURVE",
"386 91 LINE",
"386 0 LINE",
"80 0 LINE",
"80 1142 LINE"
);
}
);
width = 1061;
}
);
unicode = 0062;
},
{
glyphname = c;
lastChange = "2020-10-29 16:37:57 +0000";
layers = (
{
layerId = "75B2229F-4D44-4147-BD02-A22690DA2091";
paths = (
{
closed = 1;
nodes = (
"753 104 OFFCURVE",
"641 5 OFFCURVE",
"445 0 CURVE",
"216 4 OFFCURVE",
"80 180 OFFCURVE",
"80 413 CURVE SMOOTH",
"80 670 OFFCURVE",
"210 856 OFFCURVE",
"464 860 CURVE SMOOTH",
"632 860 OFFCURVE",
"752 765 OFFCURVE",
"775 592 CURVE",
"743 592 LINE",
"716 746 OFFCURVE",
"616 828 OFFCURVE",
"464 828 CURVE SMOOTH",
"235 828 OFFCURVE",
"110 647 OFFCURVE",
"112 413 CURVE SMOOTH",
"112 200 OFFCURVE",
"232 33 OFFCURVE",
"445 32 CURVE SMOOTH",
"611 32 OFFCURVE",
"731 129 OFFCURVE",
"749 299 CURVE",
"781 299 LINE"
);
}
);
width = 861;
},
{
layerId = "0D3446AC-0247-4F99-A3DB-2CE2433AA8CC";
paths = (
{
closed = 1;
nodes = (
"929 127 OFFCURVE",
"759 3 OFFCURVE",
"530 0 CURVE SMOOTH",
"275 3 OFFCURVE",
"83 174 OFFCURVE",
"80 435 CURVE SMOOTH",
"83 697 OFFCURVE",
"269 869 OFFCURVE",
"530 872 CURVE SMOOTH",
"762 872 OFFCURVE",
"927 766 OFFCURVE",
"952 536 CURVE",
"651 536 LINE",
"644 604 OFFCURVE",
"604 642 OFFCURVE",
"536 642 CURVE SMOOTH",
"432 642 OFFCURVE",
"397 560 OFFCURVE",
"397 435 CURVE SMOOTH",
"397 324 OFFCURVE",
"429 231 OFFCURVE",
"536 231 CURVE SMOOTH",
"606 231 OFFCURVE",
"653 282 OFFCURVE",
"659 352 CURVE",
"962 352 LINE"
);
}
);
width = 1042;
}
);
unicode = 0063;
},
{
glyphname = d;
lastChange = "2020-10-29 16:41:10 +0000";
layers = (
{
layerId = "75B2229F-4D44-4147-BD02-A22690DA2091";
paths = (
{
closed = 1;
nodes = (
"796 1142 LINE",
"796 0 LINE",
"764 0 LINE",
"764 231 LINE",
"761 231 LINE",
"718 82 OFFCURVE",
"594 -18 OFFCURVE",
"431 -19 CURVE SMOOTH",
"204 -13 OFFCURVE",
"80 172 OFFCURVE",
"80 410 CURVE SMOOTH",
"80 644 OFFCURVE",
"202 837 OFFCURVE",
"431 842 CURVE",
"609 837 OFFCURVE",
"719 754 OFFCURVE",
"761 592 CURVE",
"764 592 LINE",
"764 1142 LINE"
);
},
{
closed = 1;
nodes = (
"759 673 OFFCURVE",
"648 807 OFFCURVE",
"431 810 CURVE",
"220 805 OFFCURVE",
"112 630 OFFCURVE",
"112 410 CURVE SMOOTH",
"112 194 OFFCURVE",
"221 14 OFFCURVE",
"431 13 CURVE SMOOTH",
"642 14 OFFCURVE",
"761 190 OFFCURVE",
"764 410 CURVE"
);
}
);
width = 876;
},
{
layerId = "0D3446AC-0247-4F99-A3DB-2CE2433AA8CC";
paths = (
{
closed = 1;
nodes = (
"981 1142 LINE",
"981 0 LINE",
"675 0 LINE",
"675 91 LINE",
"672 91 LINE",
"620 9 OFFCURVE",
"531 -19 OFFCURVE",
"429 -21 CURVE",
"209 -15 OFFCURVE",
"80 188 OFFCURVE",
"80 419 CURVE SMOOTH",
"80 665 OFFCURVE",
"188 846 OFFCURVE",
"434 851 CURVE SMOOTH",
"534 850 OFFCURVE",
"609 812 OFFCURVE",
"661 739 CURVE",
"664 739 LINE",
"664 1142 LINE"
);
},
{
closed = 1;
nodes = (
"675 538 OFFCURVE",
"642 621 OFFCURVE",
"536 621 CURVE SMOOTH",
"434 618 OFFCURVE",
"397 538 OFFCURVE",
"397 416 CURVE SMOOTH",
"397 308 OFFCURVE",
"429 212 OFFCURVE",
"536 209 CURVE SMOOTH",
"639 209 OFFCURVE",
"675 297 OFFCURVE",
"675 416 CURVE SMOOTH"
);
}
);
width = 1061;
}
);
unicode = 0064;
},
{
glyphname = e;
lastChange = "2020-10-29 16:57:43 +0000";
layers = (
{
layerId = "75B2229F-4D44-4147-BD02-A22690DA2091";
paths = (
{
closed = 1;
nodes = (
"771 660 OFFCURVE",
"658 817 OFFCURVE",
"443 818 CURVE SMOOTH",
"247 817 OFFCURVE",
"128 662 OFFCURVE",
"112 446 CURVE",
"768 446 LINE"
);
},
{
closed = 1;
nodes = (
"115 183 OFFCURVE",
"212 23 OFFCURVE",
"437 22 CURVE SMOOTH",
"615 23 OFFCURVE",
"722 113 OFFCURVE",
"758 294 CURVE",
"790 294 LINE",
"765 102 OFFCURVE",
"631 -9 OFFCURVE",
"440 -10 CURVE SMOOTH",
"196 -9 OFFCURVE",
"77 167 OFFCURVE",
"80 420 CURVE SMOOTH",
"83 659 OFFCURVE",
"219 850 OFFCURVE",
"440 850 CURVE SMOOTH",
"685 846 OFFCURVE",
"811 664 OFFCURVE",
"800 414 CURVE",
"112 414 LINE"
);
}
);
width = 881;
},
{
layerId = "0D3446AC-0247-4F99-A3DB-2CE2433AA8CC";
paths = (
{
closed = 1;
nodes = (
"687 619 OFFCURVE",
"590 654 OFFCURVE",
"548 654 CURVE SMOOTH",
"453 653 OFFCURVE",
"398 606 OFFCURVE",
"384 515 CURVE",
"687 515 LINE"
);
},
{
closed = 1;
nodes = (
"394 256 OFFCURVE",
"446 188 OFFCURVE",
"544 188 CURVE SMOOTH",
"588 188 OFFCURVE",
"651 208 OFFCURVE",
"677 248 CURVE",
"973 248 LINE",
"905 69 OFFCURVE",
"741 -15 OFFCURVE",
"545 -15 CURVE SMOOTH",
"274 -12 OFFCURVE",
"83 146 OFFCURVE",
"80 419 CURVE SMOOTH",
"83 673 OFFCURVE",
"256 853 OFFCURVE",
"519 857 CURVE SMOOTH",
"836 853 OFFCURVE",
"993 684 OFFCURVE",
"991 350 CURVE",
"383 350 LINE"
);
}
);
width = 1071;
}
);
unicode = 0065;
},
{
glyphname = f;
lastChange = "2020-10-29 17:01:27 +0000";
layers = (
{
layerId = "75B2229F-4D44-4147-BD02-A22690DA2091";
paths = (
{
closed = 1;
nodes = (
"80 823 LINE",
"221 823 LINE",
"221 1005 LINE SMOOTH",
"222 1132 OFFCURVE",
"315 1162 OFFCURVE",
"451 1136 CURVE",
"451 1104 LINE",
"317 1124 OFFCURVE",
"249 1107 OFFCURVE",
"253 994 CURVE SMOOTH",
"253 823 LINE",
"430 823 LINE",
"430 791 LINE",
"253 791 LINE",
"253 0 LINE",
"221 0 LINE",
"221 791 LINE",
"80 791 LINE"
);
}
);
width = 531;
},
{
layerId = "0D3446AC-0247-4F99-A3DB-2CE2433AA8CC";
paths = (
{
closed = 1;
nodes = (
"80 830 LINE",
"210 830 LINE",
"209 850 LINE",
"204 1121 OFFCURVE",
"373 1159 OFFCURVE",
"695 1136 CURVE",
"695 918 LINE",
"584 940 OFFCURVE",
"521 941 OFFCURVE",
"520 847 CURVE",
"520 830 LINE",
"686 830 LINE",
"686 635 LINE",
"527 635 LINE",
"527 0 LINE",
"210 0 LINE",
"210 635 LINE",
"80 635 LINE"
);
}
);
width = 775;
}
);
unicode = 0066;
},
{
glyphname = g;
lastChange = "2020-10-29 17:07:58 +0000";
layers = (
{
layerId = "75B2229F-4D44-4147-BD02-A22690DA2091";
paths = (
{
closed = 1;
nodes = (
"750 585 OFFCURVE",
"638 748 OFFCURVE",
"434 752 CURVE SMOOTH",
"226 749 OFFCURVE",
"112 593 OFFCURVE",
"112 381 CURVE SMOOTH",
"112 179 OFFCURVE",
"220 22 OFFCURVE",
"422 19 CURVE SMOOTH",
"628 22 OFFCURVE",
"747 173 OFFCURVE",
"747 381 CURVE SMOOTH"
);
},
{
closed = 1;
nodes = (
"781 -30 LINE SMOOTH",
"778 -251 OFFCURVE",
"664 -361 OFFCURVE",
"439 -360 CURVE SMOOTH",
"265 -360 OFFCURVE",
"135 -276 OFFCURVE",
"125 -101 CURVE",
"157 -101 LINE",
"167 -256 OFFCURVE",
"278 -328 OFFCURVE",
"437 -328 CURVE SMOOTH",
"643 -329 OFFCURVE",
"747 -230 OFFCURVE",
"749 -30 CURVE SMOOTH",
"749 217 LINE",
"746 217 LINE",
"709 74 OFFCURVE",
"571 -13 OFFCURVE",
"423 -13 CURVE SMOOTH",
"204 -10 OFFCURVE",
"80 157 OFFCURVE",
"80 381 CURVE SMOOTH",
"80 609 OFFCURVE",
"206 781 OFFCURVE",
"434 784 CURVE SMOOTH",
"590 781 OFFCURVE",
"709 692 OFFCURVE",
"746 546 CURVE",
"749 546 LINE",
"749 765 LINE",
"781 765 LINE"
);
}
);
width = 861;
},
{
layerId = "0D3446AC-0247-4F99-A3DB-2CE2433AA8CC";
paths = (
{
closed = 1;
nodes = (
"669 483 OFFCURVE",
"628 551 OFFCURVE",
"531 554 CURVE",
"440 551 OFFCURVE",
"397 481 OFFCURVE",
"397 389 CURVE SMOOTH",
"397 284 OFFCURVE",
"434 187 OFFCURVE",
"539 186 CURVE SMOOTH",
"639 186 OFFCURVE",
"671 270 OFFCURVE",
"669 390 CURVE SMOOTH"
);
},
{
closed = 1;
nodes = (
"977 40 LINE SMOOTH",
"977 -236 OFFCURVE",
"835 -355 OFFCURVE",
"545 -357 CURVE SMOOTH",
"323 -360 OFFCURVE",
"146 -287 OFFCURVE",
"112 -80 CURVE",
"425 -80 LINE",
"448 -122 OFFCURVE",
"487 -167 OFFCURVE",
"536 -170 CURVE",
"646 -164 OFFCURVE",
"659 -63 OFFCURVE",
"660 65 CURVE",
"660 97 LINE",
"657 97 LINE",
"605 21 OFFCURVE",
"531 -17 OFFCURVE",
"435 -18 CURVE SMOOTH",
"204 -15 OFFCURVE",
"80 151 OFFCURVE",
"80 387 CURVE SMOOTH",
"80 615 OFFCURVE",
"209 779 OFFCURVE",
"440 783 CURVE SMOOTH",
"536 783 OFFCURVE",
"621 747 OFFCURVE",
"657 662 CURVE",
"660 662 LINE",
"660 763 LINE",
"977 763 LINE"
);
}
);
width = 1057;
}
);
unicode = 0067;
},
{
glyphname = h;
lastChange = "2020-10-29 17:09:35 +0000";
layers = (
{
layerId = "75B2229F-4D44-4147-BD02-A22690DA2091";
paths = (
{
closed = 1;
nodes = (
"112 1142 LINE",
"112 619 LINE",
"115 619 LINE",
"149 757 OFFCURVE",
"258 840 OFFCURVE",
"412 841 CURVE SMOOTH",
"591 841 OFFCURVE",
"701 735 OFFCURVE",
"704 545 CURVE SMOOTH",
"704 0 LINE",
"672 0 LINE",
"672 541 LINE SMOOTH",
"670 712 OFFCURVE",
"577 809 OFFCURVE",
"412 809 CURVE SMOOTH",
"220 805 OFFCURVE",
"112 661 OFFCURVE",
"112 466 CURVE SMOOTH",
"112 0 LINE",
"80 0 LINE",
"80 1142 LINE"
);
}
);
width = 784;
},
{
layerId = "0D3446AC-0247-4F99-A3DB-2CE2433AA8CC";
paths = (
{
closed = 1;
nodes = (
"396 1142 LINE",
"396 741 LINE",
"399 741 LINE",
"465 823 OFFCURVE",
"551 851 OFFCURVE",
"659 851 CURVE SMOOTH",
"830 851 OFFCURVE",
"942 748 OFFCURVE",
"943 569 CURVE SMOOTH",
"943 0 LINE",
"627 0 LINE",
"627 435 LINE SMOOTH",
"628 541 OFFCURVE",
"612 598 OFFCURVE",
"523 598 CURVE SMOOTH",
"441 602 OFFCURVE",
"396 535 OFFCURVE",
"396 438 CURVE SMOOTH",
"396 0 LINE",
"80 0 LINE",
"80 1142 LINE"
);
}
);
width = 1023;
}
);
unicode = 0068;
},
{
glyphname = i;
lastChange = "2020-10-29 17:13:50 +0000";
layers = (
{
layerId = "75B2229F-4D44-4147-BD02-A22690DA2091";
paths = (
{
closed = 1;
nodes = (
"113 823 LINE",
"113 0 LINE",
"80 0 LINE",
"80 823 LINE"
);
},
{
closed = 1;
nodes = (
"80 980 LINE",
"80 1142 LINE",
"113 1142 LINE",
"113 980 LINE"
);
}
);
width = 193;
},
{
layerId = "0D3446AC-0247-4F99-A3DB-2CE2433AA8CC";
paths = (
{
closed = 1;
nodes = (
"397 830 LINE",
"397 0 LINE",
"80 0 LINE",
"80 830 LINE"
);
},
{
closed = 1;
nodes = (
"80 920 LINE",
"80 1142 LINE",
"397 1142 LINE",
"397 920 LINE"
);
}
);
width = 477;
}
);
unicode = 0069;
},
{
glyphname = j;
lastChange = "2020-10-29 17:16:33 +0000";
layers = (
{
layerId = "75B2229F-4D44-4147-BD02-A22690DA2091";
paths = (
{
closed = 1;
nodes = (
"126 -281 OFFCURVE",
"61 -294 OFFCURVE",
"-72 -294 CURVE",
"-72 -261 LINE",
"61 -265 OFFCURVE",
"94 -243 OFFCURVE",
"94 -119 CURVE SMOOTH",
"94 812 LINE",
"126 812 LINE",
"126 -131 LINE SMOOTH"
);
},
{
closed = 1;
nodes = (
"94 970 LINE",
"94 1132 LINE",
"126 1132 LINE",
"126 970 LINE"
);
}
);
width = 206;
},
{
layerId = "0D3446AC-0247-4F99-A3DB-2CE2433AA8CC";
paths = (
{
closed = 1;
nodes = (
"433 -276 OFFCURVE",
"329 -267 OFFCURVE",
"-24 -268 CURVE",
"-24 -15 LINE",
"93 -15 OFFCURVE",
"117 -8 OFFCURVE",
"117 87 CURVE SMOOTH",
"117 831 LINE",
"433 831 LINE",
"433 57 LINE SMOOTH"
);
},
{
closed = 1;
nodes = (
"117 921 LINE",
"117 1142 LINE",
"433 1142 LINE",
"433 921 LINE"
);
}
);
width = 513;
}
);
unicode = 006A;
},
{
glyphname = k;
lastChange = "2020-10-29 17:17:46 +0000";
layers = (
{
layerId = "75B2229F-4D44-4147-BD02-A22690DA2091";
paths = (
{
closed = 1;
nodes = (
"112 1142 LINE",
"112 350 LINE",
"680 823 LINE",
"726 823 LINE",
"349 509 LINE",
"754 0 LINE",
"710 0 LINE",
"325 487 LINE",
"112 310 LINE",
"112 0 LINE",
"80 0 LINE",
"80 1142 LINE"
);
}
);
width = 834;
},
{
layerId = "0D3446AC-0247-4F99-A3DB-2CE2433AA8CC";
paths = (
{
closed = 1;
nodes = (
"397 1142 LINE",
"397 591 LINE",
"598 830 LINE",
"957 830 LINE",
"661 516 LINE",
"1003 0 LINE",
"622 0 LINE",
"453 301 LINE",
"397 240 LINE",
"397 0 LINE",
"80 0 LINE",
"80 1142 LINE"
);
}
);
width = 1083;
}
);
unicode = 006B;
},
{
glyphname = l;
lastChange = "2020-10-29 17:18:33 +0000";
layers = (
{
layerId = "75B2229F-4D44-4147-BD02-A22690DA2091";
paths = (
{
closed = 1;
nodes = (
"113 1142 LINE",
"113 0 LINE",
"80 0 LINE",
"80 1142 LINE"
);
}
);
width = 193;
},
{
layerId = "0D3446AC-0247-4F99-A3DB-2CE2433AA8CC";
paths = (
{
closed = 1;
nodes = (
"397 1142 LINE",
"397 0 LINE",
"80 0 LINE",
"80 1142 LINE"
);
}
);
width = 477;
}
);
unicode = 006C;
},
{
glyphname = m;
lastChange = "2020-10-29 18:05:32 +0000";
layers = (
{
layerId = "75B2229F-4D44-4147-BD02-A22690DA2091";
paths = (
{
closed = 1;
nodes = (
"112 822 LINE",
"112 619 LINE",
"115 619 LINE",
"147 745 OFFCURVE",
"243 840 OFFCURVE",
"377 841 CURVE SMOOTH",
"509 840 OFFCURVE",
"591 776 OFFCURVE",
"623 649 CURVE",
"658 759 OFFCURVE",
"760 840 OFFCURVE",
"887 841 CURVE SMOOTH",
"1072 840 OFFCURVE",
"1151 740 OFFCURVE",
"1148 540 CURVE SMOOTH",
"1148 0 LINE",
"1116 0 LINE",
"1116 540 LINE SMOOTH",
"1119 719 OFFCURVE",
"1055 808 OFFCURVE",
"887 809 CURVE SMOOTH",
"729 808 OFFCURVE",
"634 682 OFFCURVE",
"630 522 CURVE SMOOTH",
"630 0 LINE",
"598 0 LINE",
"598 528 LINE",
"604 704 OFFCURVE",
"543 809 OFFCURVE",
"377 809 CURVE SMOOTH",
"206 805 OFFCURVE",
"112 646 OFFCURVE",
"112 465 CURVE SMOOTH",
"112 0 LINE",
"80 0 LINE",
"80 822 LINE"
);
}
);
width = 1228;
},
{
layerId = "0D3446AC-0247-4F99-A3DB-2CE2433AA8CC";
paths = (
{
closed = 1;
nodes = (
"386 831 LINE",
"386 720 LINE",
"389 720 LINE",
"453 810 OFFCURVE",
"544 854 OFFCURVE",
"661 851 CURVE SMOOTH",
"754 851 OFFCURVE",
"841 811 OFFCURVE",
"885 722 CURVE",
"963 816 OFFCURVE",
"1035 851 OFFCURVE",
"1168 851 CURVE SMOOTH",
"1353 847 OFFCURVE",
"1453 750 OFFCURVE",
"1453 570 CURVE SMOOTH",
"1453 0 LINE",
"1136 0 LINE",
"1136 449 LINE SMOOTH",
"1138 549 OFFCURVE",
"1121 596 OFFCURVE",
"1032 599 CURVE SMOOTH",
"955 599 OFFCURVE",
"925 542 OFFCURVE",
"925 449 CURVE SMOOTH",
"925 0 LINE",
"608 0 LINE",
"608 449 LINE SMOOTH",
"610 548 OFFCURVE",
"591 597 OFFCURVE",
"504 599 CURVE SMOOTH",
"427 599 OFFCURVE",
"397 542 OFFCURVE",
"397 449 CURVE SMOOTH",
"397 0 LINE",
"80 0 LINE",
"80 831 LINE"
);
}
);
width = 1533;
}
);
unicode = 006D;
},
{
glyphname = n;
lastChange = "2020-10-29 18:12:46 +0000";
layers = (
{
layerId = "75B2229F-4D44-4147-BD02-A22690DA2091";
paths = (
{
closed = 1;
nodes = (
"112 822 LINE",
"112 619 LINE",
"115 619 LINE",
"149 757 OFFCURVE",
"258 840 OFFCURVE",
"412 841 CURVE SMOOTH",
"591 841 OFFCURVE",
"701 735 OFFCURVE",
"704 545 CURVE SMOOTH",
"704 0 LINE",
"672 0 LINE",
"672 540 LINE SMOOTH",
"670 712 OFFCURVE",
"578 809 OFFCURVE",
"412 809 CURVE SMOOTH",
"220 805 OFFCURVE",
"112 661 OFFCURVE",
"112 465 CURVE SMOOTH",
"112 0 LINE",
"80 0 LINE",
"80 822 LINE"
);
}
);
width = 784;
},
{
layerId = "0D3446AC-0247-4F99-A3DB-2CE2433AA8CC";
paths = (
{
closed = 1;
nodes = (
"385 831 LINE",
"385 725 LINE",
"388 725 LINE",
"444 809 OFFCURVE",
"535 851 OFFCURVE",
"659 851 CURVE SMOOTH",
"830 851 OFFCURVE",
"942 748 OFFCURVE",
"943 570 CURVE SMOOTH",
"943 0 LINE",
"627 0 LINE",
"627 435 LINE SMOOTH",
"628 540 OFFCURVE",
"612 599 OFFCURVE",
"523 599 CURVE SMOOTH",
"440 601 OFFCURVE",
"396 535 OFFCURVE",
"396 438 CURVE SMOOTH",
"396 0 LINE",
"80 0 LINE",
"80 831 LINE"
);
}
);
width = 1023;
}
);
unicode = 006E;
},
{
glyphname = o;
lastChange = "2020-10-29 18:15:17 +0000";
layers = (
{
layerId = "75B2229F-4D44-4147-BD02-A22690DA2091";
paths = (
{
closed = 1;
nodes = (
"820 177 OFFCURVE",
"688 -9 OFFCURVE",
"449 -13 CURVE SMOOTH",
"217 -9 OFFCURVE",
"80 179 OFFCURVE",
"80 417 CURVE SMOOTH",
"80 655 OFFCURVE",
"214 843 OFFCURVE",
"451 847 CURVE SMOOTH",
"688 843 OFFCURVE",
"820 660 OFFCURVE",
"820 417 CURVE SMOOTH"
);
},
{
closed = 1;
nodes = (
"789 637 OFFCURVE",
"670 811 OFFCURVE",
"451 815 CURVE SMOOTH",
"237 811 OFFCURVE",
"112 637 OFFCURVE",
"112 417 CURVE SMOOTH",
"112 199 OFFCURVE",
"234 23 OFFCURVE",
"451 19 CURVE SMOOTH",
"668 23 OFFCURVE",
"789 194 OFFCURVE",
"789 417 CURVE SMOOTH"
);
}
);
width = 900;
},
{
layerId = "0D3446AC-0247-4F99-A3DB-2CE2433AA8CC";
paths = (
{
closed = 1;
nodes = (
"985 152 OFFCURVE",
"813 -13 OFFCURVE",
"532 -17 CURVE SMOOTH",
"257 -13 OFFCURVE",
"76 154 OFFCURVE",
"80 420 CURVE SMOOTH",
"76 684 OFFCURVE",
"253 851 OFFCURVE",
"532 855 CURVE SMOOTH",
"811 851 OFFCURVE",
"985 691 OFFCURVE",
"985 420 CURVE SMOOTH"
);
},
{
closed = 1;
nodes = (
"668 538 OFFCURVE",
"643 625 OFFCURVE",
"532 625 CURVE SMOOTH",
"427 625 OFFCURVE",
"394 531 OFFCURVE",
"396 420 CURVE SMOOTH",
"396 310 OFFCURVE",
"430 214 OFFCURVE",
"532 214 CURVE SMOOTH",
"638 214 OFFCURVE",
"671 311 OFFCURVE",
"668 420 CURVE SMOOTH"
);
}
);
width = 1065;
}
);
unicode = 006F;
},
{
glyphname = p;
lastChange = "2020-10-29 18:24:50 +0000";
layers = (
{
layerId = "75B2229F-4D44-4147-BD02-A22690DA2091";
paths = (
{
closed = 1;
nodes = (
"655 24 OFFCURVE",
"763 199 OFFCURVE",
"763 420 CURVE SMOOTH",
"763 641 OFFCURVE",
"662 812 OFFCURVE",
"445 817 CURVE",
"231 812 OFFCURVE",
"112 640 OFFCURVE",
"112 420 CURVE SMOOTH",
"117 157 OFFCURVE",
"228 23 OFFCURVE",
"445 20 CURVE"
);
},
{
closed = 1;
nodes = (
"112 830 LINE",
"112 599 LINE",
"115 599 LINE",
"162 751 OFFCURVE",
"279 846 OFFCURVE",
"445 849 CURVE SMOOTH",
"675 846 OFFCURVE",
"795 662 OFFCURVE",
"795 420 CURVE SMOOTH",
"795 185 OFFCURVE",
"673 -7 OFFCURVE",
"445 -12 CURVE",
"267 -7 OFFCURVE",
"157 76 OFFCURVE",
"115 238 CURVE",
"112 238 LINE",
"112 -276 LINE",
"80 -276 LINE",
"80 830 LINE"
);
}
);
width = 875;
},
{
layerId = "0D3446AC-0247-4F99-A3DB-2CE2433AA8CC";
paths = (
{
closed = 1;
nodes = (
"629 219 OFFCURVE",
"664 311 OFFCURVE",
"664 424 CURVE SMOOTH",
"664 542 OFFCURVE",
"633 631 OFFCURVE",
"525 631 CURVE SMOOTH",
"420 628 OFFCURVE",
"386 549 OFFCURVE",
"386 424 CURVE SMOOTH",
"386 313 OFFCURVE",
"418 220 OFFCURVE",
"525 219 CURVE SMOOTH"
);
},
{
closed = 1;
nodes = (
"386 840 LINE",
"386 749 LINE",
"389 749 LINE",
"449 837 OFFCURVE",
"524 859 OFFCURVE",
"632 860 CURVE SMOOTH",
"858 857 OFFCURVE",
"981 656 OFFCURVE",
"981 420 CURVE SMOOTH",
"981 167 OFFCURVE",
"875 -5 OFFCURVE",
"627 -12 CURVE SMOOTH",
"527 -11 OFFCURVE",
"452 27 OFFCURVE",
"400 101 CURVE",
"397 101 LINE",
"397 -259 LINE",
"80 -259 LINE",
"80 840 LINE"
);
}
);
width = 1061;
}
);
unicode = 0070;
},
{
glyphname = q;
lastChange = "2020-10-29 18:27:11 +0000";
layers = (
{
layerId = "75B2229F-4D44-4147-BD02-A22690DA2091";
paths = (
{
closed = 1;
nodes = (
"647 23 OFFCURVE",
"758 157 OFFCURVE",
"763 420 CURVE SMOOTH",
"763 640 OFFCURVE",
"644 812 OFFCURVE",
"430 817 CURVE",
"213 812 OFFCURVE",
"112 641 OFFCURVE",
"112 420 CURVE SMOOTH",
"112 199 OFFCURVE",
"220 24 OFFCURVE",
"430 20 CURVE"
);
},
{
closed = 1;
nodes = (
"795 -276 LINE",
"763 -276 LINE",
"763 238 LINE",
"760 238 LINE",
"718 76 OFFCURVE",
"608 -7 OFFCURVE",
"430 -12 CURVE",
"202 -7 OFFCURVE",
"80 185 OFFCURVE",
"80 420 CURVE SMOOTH",
"80 662 OFFCURVE",
"200 846 OFFCURVE",
"430 849 CURVE SMOOTH",
"596 846 OFFCURVE",
"713 751 OFFCURVE",
"760 599 CURVE",
"763 599 LINE",
"763 830 LINE",
"795 830 LINE"
);
}
);
width = 875;
},
{
layerId = "0D3446AC-0247-4F99-A3DB-2CE2433AA8CC";
paths = (
{
closed = 1;
nodes = (
"643 220 OFFCURVE",
"675 313 OFFCURVE",
"675 424 CURVE SMOOTH",
"675 549 OFFCURVE",
"641 628 OFFCURVE",
"536 631 CURVE SMOOTH",
"428 631 OFFCURVE",
"397 542 OFFCURVE",
"397 424 CURVE SMOOTH",
"397 311 OFFCURVE",
"432 219 OFFCURVE",
"536 219 CURVE SMOOTH"
);
},
{
closed = 1;
nodes = (
"981 -259 LINE",
"664 -259 LINE",
"664 101 LINE",
"661 101 LINE",
"609 27 OFFCURVE",
"534 -11 OFFCURVE",
"434 -12 CURVE SMOOTH",
"186 -5 OFFCURVE",
"80 167 OFFCURVE",
"80 420 CURVE SMOOTH",
"80 656 OFFCURVE",
"203 857 OFFCURVE",
"429 860 CURVE SMOOTH",
"537 859 OFFCURVE",
"612 837 OFFCURVE",
"672 749 CURVE",
"675 749 LINE",
"675 840 LINE",
"981 840 LINE"
);
}
);
width = 1061;
}
);
unicode = 0071;
},
{
glyphname = r;
lastChange = "2020-10-29 18:28:58 +0000";
layers = (
{
layerId = "75B2229F-4D44-4147-BD02-A22690DA2091";
paths = (
{
closed = 1;
nodes = (
"112 822 LINE",
"112 619 LINE",
"115 619 LINE",
"150 767 OFFCURVE",
"270 844 OFFCURVE",
"438 841 CURVE",
"438 809 LINE",
"230 813 OFFCURVE",
"112 674 OFFCURVE",
"112 465 CURVE SMOOTH",
"112 0 LINE",
"80 0 LINE",
"80 822 LINE"
);
}
);
width = 518;
},
{
layerId = "0D3446AC-0247-4F99-A3DB-2CE2433AA8CC";
paths = (
{
closed = 1;
nodes = (
"384 831 LINE",
"384 698 LINE",
"387 698 LINE",
"456 833 OFFCURVE",
"570 879 OFFCURVE",
"713 838 CURVE",
"713 559 LINE",
"527 635 OFFCURVE",
"398 541 OFFCURVE",
"396 328 CURVE SMOOTH",
"396 0 LINE",
"80 0 LINE",
"80 831 LINE"
);
}
);
width = 793;
}
);
unicode = 0072;
},
{
glyphname = s;
lastChange = "2020-10-29 18:31:46 +0000";
layers = (
{
layerId = "75B2229F-4D44-4147-BD02-A22690DA2091";
paths = (
{
closed = 1;
nodes = (
"654 757 OFFCURVE",
"561 828 OFFCURVE",
"391 828 CURVE SMOOTH",
"262 828 OFFCURVE",
"144 774 OFFCURVE",
"144 654 CURVE SMOOTH",
"144 513 OFFCURVE",
"252 499 OFFCURVE",
"447 450 CURVE SMOOTH",
"607 415 OFFCURVE",
"711 373 OFFCURVE",
"711 228 CURVE SMOOTH",
"707 73 OFFCURVE",
"576 0 OFFCURVE",
"413 0 CURVE SMOOTH",
"192 -1 OFFCURVE",
"81 99 OFFCURVE",
"80 300 CURVE",
"112 300 LINE",
"114 120 OFFCURVE",
"214 31 OFFCURVE",
"413 32 CURVE SMOOTH",
"550 32 OFFCURVE",
"675 92 OFFCURVE",
"679 225 CURVE SMOOTH",
"679 346 OFFCURVE",
"585 389 OFFCURVE",
"450 419 CURVE SMOOTH",
"225 461 OFFCURVE",
"112 495 OFFCURVE",
"112 654 CURVE SMOOTH",
"110 786 OFFCURVE",
"240 860 OFFCURVE",
"391 860 CURVE SMOOTH",
"585 863 OFFCURVE",
"684 775 OFFCURVE",
"689 598 CURVE",
"657 598 LINE"
);
}
);
width = 791;
},
{
layerId = "0D3446AC-0247-4F99-A3DB-2CE2433AA8CC";
paths = (
{
closed = 1;
nodes = (
"603 662 OFFCURVE",
"551 696 OFFCURVE",
"500 696 CURVE SMOOTH",
"443 696 OFFCURVE",
"404 681 OFFCURVE",
"404 632 CURVE SMOOTH",
"404 589 OFFCURVE",
"462 582 OFFCURVE",
"561 563 CURVE SMOOTH",
"757 532 OFFCURVE",
"917 473 OFFCURVE",
"917 293 CURVE SMOOTH",
"917 84 OFFCURVE",
"724 -1 OFFCURVE",
"495 0 CURVE SMOOTH",
"277 0 OFFCURVE",
"96 86 OFFCURVE",
"80 293 CURVE",
"382 293 LINE",
"388 232 OFFCURVE",
"434 195 OFFCURVE",
"506 195 CURVE SMOOTH",
"552 195 OFFCURVE",
"610 212 OFFCURVE",
"613 259 CURVE SMOOTH",
"616 320 OFFCURVE",
"544 331 OFFCURVE",
"439 348 CURVE SMOOTH",
"245 381 OFFCURVE",
"100 445 OFFCURVE",
"100 609 CURVE SMOOTH",
"100 800 OFFCURVE",
"287 872 OFFCURVE",
"491 872 CURVE SMOOTH",
"699 875 OFFCURVE",
"885 813 OFFCURVE",
"895 610 CURVE",
"607 610 LINE"
);
}
);
width = 997;
}
);
unicode = 0073;
},
{
glyphname = t;
lastChange = "2020-10-29 18:34:07 +0000";
layers = (
{
layerId = "75B2229F-4D44-4147-BD02-A22690DA2091";
paths = (
{
closed = 1;
nodes = (
"263 1077 LINE",
"263 818 LINE",
"449 818 LINE",
"449 786 LINE",
"263 786 LINE",
"263 156 LINE SMOOTH",
"266 41 OFFCURVE",
"337 2 OFFCURVE",
"445 32 CURVE",
"445 0 LINE",
"295 0 OFFCURVE",
"231 -2 OFFCURVE",
"231 149 CURVE SMOOTH",
"231 786 LINE",
"80 786 LINE",
"80 818 LINE",
"231 818 LINE",
"231 1077 LINE"
);
}
);
width = 529;
},
{
layerId = "0D3446AC-0247-4F99-A3DB-2CE2433AA8CC";
paths = (
{
closed = 1;
nodes = (
"538 1086 LINE",
"538 834 LINE",
"707 834 LINE",
"707 638 LINE",
"538 638 LINE",
"538 349 LINE",
"534 242 OFFCURVE",
"585 226 OFFCURVE",
"707 243 CURVE",
"707 3 LINE",
"414 -8 OFFCURVE",
"220 -31 OFFCURVE",
"220 242 CURVE SMOOTH",
"220 638 LINE",
"80 638 LINE",
"80 834 LINE",
"220 834 LINE",
"220 1086 LINE"
);
}
);
width = 787;
}
);
unicode = 0074;
},
{
glyphname = u;
lastChange = "2020-10-29 18:37:53 +0000";
layers = (
{
layerId = "75B2229F-4D44-4147-BD02-A22690DA2091";
paths = (
{
closed = 1;
nodes = (
"112 823 LINE",
"112 282 LINE SMOOTH",
"114 114 OFFCURVE",
"210 13 OFFCURVE",
"372 13 CURVE SMOOTH",
"563 16 OFFCURVE",
"672 163 OFFCURVE",
"672 357 CURVE SMOOTH",
"672 823 LINE",
"704 823 LINE",
"704 0 LINE",
"672 0 LINE",
"672 204 LINE",
"669 204 LINE",
"638 65 OFFCURVE",
"526 -18 OFFCURVE",
"372 -19 CURVE SMOOTH",
"198 -18 OFFCURVE",
"80 94 OFFCURVE",
"80 277 CURVE SMOOTH",
"80 823 LINE"
);
}
);
width = 784;
},
{
layerId = "0D3446AC-0247-4F99-A3DB-2CE2433AA8CC";
paths = (
{
closed = 1;
nodes = (
"396 831 LINE",
"396 396 LINE SMOOTH",
"395 293 OFFCURVE",
"414 232 OFFCURVE",
"500 232 CURVE SMOOTH",
"584 230 OFFCURVE",
"627 295 OFFCURVE",
"627 393 CURVE SMOOTH",
"627 831 LINE",
"943 831 LINE",
"943 0 LINE",
"638 0 LINE",
"638 106 LINE",
"635 106 LINE",
"579 23 OFFCURVE",
"488 -20 OFFCURVE",
"364 -21 CURVE SMOOTH",
"199 -21 OFFCURVE",
"81 87 OFFCURVE",
"80 261 CURVE SMOOTH",
"80 831 LINE"
);
}
);
width = 1023;
}
);
unicode = 0075;
},
{
glyphname = v;
lastChange = "2020-10-29 18:38:47 +0000";
layers = (
{
layerId = "75B2229F-4D44-4147-BD02-A22690DA2091";
paths = (
{
closed = 1;
nodes = (
"119 823 LINE",
"437 32 LINE",
"440 32 LINE",
"734 823 LINE",
"769 823 LINE",
"459 0 LINE",
"419 0 LINE",
"80 823 LINE"
);
}
);
width = 849;
},
{
layerId = "0D3446AC-0247-4F99-A3DB-2CE2433AA8CC";
paths = (
{
closed = 1;
nodes = (
"414 831 LINE",
"543 325 LINE",
"546 325 LINE",
"678 831 LINE",
"1001 831 LINE",
"726 0 LINE",
"352 0 LINE",
"80 831 LINE"
);
}
);
width = 1081;
}
);
unicode = 0076;
},
{
glyphname = w;
lastChange = "2020-10-29 18:39:33 +0000";
layers = (
{
layerId = "75B2229F-4D44-4147-BD02-A22690DA2091";
paths = (
{
closed = 1;
nodes = (
"112 823 LINE",
"357 32 LINE",
"360 32 LINE",
"614 823 LINE",
"664 823 LINE",
"917 32 LINE",
"920 32 LINE",
"1169 823 LINE",
"1201 823 LINE",
"939 0 LINE",
"897 0 LINE",
"641 791 LINE",
"638 791 LINE",
"381 0 LINE",
"335 0 LINE",
"80 823 LINE"
);
}
);
width = 1281;
},
{
layerId = "0D3446AC-0247-4F99-A3DB-2CE2433AA8CC";
paths = (
{
closed = 1;
nodes = (
"409 831 LINE",
"532 317 LINE",
"535 317 LINE",
"641 831 LINE",
"937 831 LINE",
"1048 317 LINE",
"1054 317 LINE",
"1169 831 LINE",
"1498 831 LINE",
"1234 0 LINE",
"909 0 LINE",
"790 510 LINE",
"787 510 LINE",
"663 0 LINE",
"338 0 LINE",
"80 831 LINE"
);
}
);
width = 1578;
}
);
unicode = 0077;
},
{
glyphname = x;
lastChange = "2020-10-29 18:40:42 +0000";
layers = (
{
layerId = "75B2229F-4D44-4147-BD02-A22690DA2091";
paths = (
{
closed = 1;
nodes = (
"152 823 LINE",
"429 449 LINE",
"712 823 LINE",
"750 823 LINE",
"449 426 LINE",
"779 0 LINE",
"739 0 LINE",
"429 402 LINE",
"120 0 LINE",
"80 0 LINE",
"410 426 LINE",
"110 823 LINE"
);
}
);
width = 859;
},
{
layerId = "0D3446AC-0247-4F99-A3DB-2CE2433AA8CC";
paths = (
{
closed = 1;
nodes = (
"458 831 LINE",
"549 666 LINE",
"642 831 LINE",
"981 831 LINE",
"720 437 LINE",
"1014 0 LINE",
"666 0 LINE",
"544 203 LINE",
"427 0 LINE",
"80 0 LINE",
"370 437 LINE",
"109 831 LINE"
);
}
);
width = 1094;
}
);
unicode = 0078;
},
{
glyphname = y;
lastChange = "2020-10-29 18:44:42 +0000";
layers = (
{
layerId = "75B2229F-4D44-4147-BD02-A22690DA2091";
paths = (
{
closed = 1;
nodes = (
"115 831 LINE",
"441 52 LINE",
"736 831 LINE",
"769 831 LINE",
"391 -159 LINE SMOOTH",
"354 -255 OFFCURVE",
"294 -279 OFFCURVE",
"173 -274 CURVE",
"173 -242 LINE",
"283 -247 OFFCURVE",
"328 -229 OFFCURVE",
"365 -137 CURVE SMOOTH",
"424 16 LINE",
"80 831 LINE"
);
}
);
width = 849;
},
{
layerId = "0D3446AC-0247-4F99-A3DB-2CE2433AA8CC";
paths = (
{
closed = 1;
nodes = (
"419 828 LINE",
"552 352 LINE",
"690 828 LINE",
"1018 828 LINE",
"743 62 LINE SMOOTH",
"639 -287 OFFCURVE",
"536 -273 OFFCURVE",
"161 -271 CURVE",
"161 -18 LINE",
"336 -18 OFFCURVE",
"387 -35 OFFCURVE",
"361 52 CURVE SMOOTH",
"221 445 LINE",
"80 828 LINE"
);
}
);
width = 1098;
}
);
unicode = 0079;
},
{
glyphname = z;
lastChange = "2020-10-29 18:45:54 +0000";
layers = (
{
layerId = "75B2229F-4D44-4147-BD02-A22690DA2091";
paths = (
{
closed = 1;
nodes = (
"689 823 LINE",
"689 782 LINE",
"114 32 LINE",
"715 32 LINE",
"715 0 LINE",
"80 0 LINE",
"80 40 LINE",
"656 791 LINE",
"124 791 LINE",
"124 823 LINE"
);
}
);
width = 795;
},
{
layerId = "0D3446AC-0247-4F99-A3DB-2CE2433AA8CC";
paths = (
{
closed = 1;
nodes = (
"875 831 LINE",
"875 588 LINE",
"496 231 LINE",
"909 231 LINE",
"909 0 LINE",
"80 0 LINE",
"80 245 LINE",
"468 600 LINE",
"115 600 LINE",
"115 831 LINE"
);
}
);
width = 989;
}
);
unicode = 007A;
},
{
glyphname = "hamza-ar";
lastChange = "2021-06-13 17:20:59 +0000";
layers = (
{
anchors = (
{
name = markabove;
position = "{342, 1022}";
},
{
name = markbelow;
position = "{457, -140}";
}
);
background = {
paths = (
{
closed = 1;
nodes = (
"451 306 OFFCURVE",
"379 378 OFFCURVE",
"379 429 QCURVE SMOOTH",
"379 479 OFFCURVE",
"451 552 OFFCURVE",
"502 552 QCURVE SMOOTH",
"750 552 LINE",
"696 857 LINE",
"502 857 LINE SMOOTH",
"384 857 OFFCURVE",
"189 741 OFFCURVE",
"73 547 OFFCURVE",
"73 429 QCURVE SMOOTH",
"73 364 OFFCURVE",
"91 306 QCURVE",
"-3 306 LINE",
"51 0 LINE",
"914 0 LINE",
"860 306 LINE",
"502 306 LINE SMOOTH"
);
}
);
};
components = (
{
name = _part.bafa;
transform = "{1, 0, 0, 1, 85, 0}";
}
);
layerId = "75B2229F-4D44-4147-BD02-A22690DA2091";
paths = (
{
closed = 1;
nodes = (
"45 34 LINE",
"51 0 LINE",
"914 0 LINE",
"908 34 LINE"
);
}
);
width = 959;
},
{
anchors = (
{
name = markabove;
position = "{342, 1024}";
},
{
name = markbelow;
position = "{457, -140}";
}
);
background = {
paths = (
{
closed = 1;
nodes = (
"499 306 OFFCURVE",
"427 378 OFFCURVE",
"427 429 QCURVE SMOOTH",
"427 479 OFFCURVE",
"499 552 OFFCURVE",
"550 552 QCURVE SMOOTH",
"798 552 LINE",
"744 857 LINE",
"550 857 LINE SMOOTH",
"432 857 OFFCURVE",
"237 741 OFFCURVE",
"121 547 OFFCURVE",
"121 429 QCURVE SMOOTH",
"121 364 OFFCURVE",
"139 306 QCURVE",
"45 306 LINE",
"99 0 LINE",
"962 0 LINE",
"908 306 LINE",
"550 306 LINE SMOOTH"
);
}
);
};
components = (
{
name = _part.bafa;
transform = "{1, 0, 0, 1, 129, 0}";
}
);
layerId = "0D3446AC-0247-4F99-A3DB-2CE2433AA8CC";
paths = (
{
closed = 1;
nodes = (
"45 306 LINE",
"99 0 LINE",
"962 0 LINE",
"908 306 LINE"
);
}
);
width = 1007;
}
);
unicode = 0621;
},
{
glyphname = "alef-ar";
lastChange = "2021-06-13 17:21:11 +0000";
layers = (
{
anchors = (
{
name = markabove;
position = "{-129, 1368}";
},
{
name = markbelow;
position = "{132, -79}";
}
);
components = (
{
name = _part.alefstem;
}
);
layerId = "75B2229F-4D44-4147-BD02-A22690DA2091";
width = 137;
},
{
anchors = (
{
name = markabove;
position = "{17, 1368}";
},
{
name = markbelow;
position = "{289, -79}";
}
);
background = {
paths = (
{
closed = 1;
nodes = (
"-120 1251 LINE",
"103 0 LINE",
"408 0 LINE",
"185 1251 LINE"
);
}
);
};
components = (
{
name = _part.alefstem;
}
);
layerId = "0D3446AC-0247-4F99-A3DB-2CE2433AA8CC";
width = 414;
}
);
unicode = 0627;
},
{
glyphname = "alef-ar.fina";
lastChange = "2021-06-13 17:21:14 +0000";
layers = (
{
anchors = (
{
name = markabove;
position = "{-120, 1358}";
},
{
name = markbelow;
position = "{262, -78}";
}
);
components = (
{
name = _part.alefstem;
transform = "{1, 0, 0, 1, 20, 0}";
}
);
layerId = "75B2229F-4D44-4147-BD02-A22690DA2091";
width = 157;
},
{
anchors = (
{
name = markabove;
position = "{3, 1358}";
},
{
name = markbelow;
position = "{262, -78}";
}
);
background = {
paths = (
{
closed = 1;
nodes = (
"-139 1251 LINE",
"84 0 LINE",
"389 0 LINE",
"166 1251 LINE"
);
}
);
};
components = (
{
name = _part.alefstem;
transform = "{1, 0, 0, 1, -19, 0}";
}
);
layerId = "0D3446AC-0247-4F99-A3DB-2CE2433AA8CC";
width = 395;
}
);
unicode = FE8E;
},
{
glyphname = "alefHamzaabove-ar";
lastChange = "2020-09-30 16:15:58 +0000";
layers = (
{
anchors = (
{
name = markabove;
position = "{-151, 1676}";
},
{
name = markbelow;
position = "{98, -103}";
}
);
components = (
{
name = _part.alefstem;
},
{
name = _diacritichamza;
transform = "{1, 0, 0, 1, -281, 1305}";
}
);
layerId = "75B2229F-4D44-4147-BD02-A22690DA2091";
width = 137;
},
{
anchors = (
{
name = markabove;
position = "{-50, 1685}";
},
{
name = markbelow;
position = "{245, -103}";
}
);
background = {
paths = (
{
closed = 1;
nodes = (
"-120 1251 LINE",
"103 0 LINE",
"408 0 LINE",
"185 1251 LINE"
);
}
);
};
components = (
{
name = _part.alefstem;
},
{
name = _diacritichamza;
transform = "{1, 0, 0, 1, -147, 1307}";
}
);
layerId = "0D3446AC-0247-4F99-A3DB-2CE2433AA8CC";
width = 414;
}
);
unicode = 0623;
},
{
glyphname = "alefHamzaabove-ar.fina";
lastChange = "2020-09-30 16:15:54 +0000";
layers = (
{
anchors = (
{
name = markabove;
position = "{-180, 1684}";
},
{
name = markbelow;
position = "{286, -103}";
}
);
components = (
{
name = _part.alefstem;
},
{
name = _diacritichamza;
transform = "{1, 0, 0, 1, -281, 1305}";
}
);
layerId = "75B2229F-4D44-4147-BD02-A22690DA2091";
width = 137;
},
{
anchors = (
{
name = markabove;
position = "{-53, 1694}";
},
{
name = markbelow;
position = "{286, -103}";
}
);
background = {
paths = (
{
closed = 1;
nodes = (
"-120 1251 LINE",
"103 0 LINE",
"408 0 LINE",
"185 1251 LINE"
);
}
);
};
components = (
{
name = _part.alefstem;
},
{
name = _diacritichamza;
transform = "{1, 0, 0, 1, -147, 1307}";
}
);
layerId = "0D3446AC-0247-4F99-A3DB-2CE2433AA8CC";
width = 414;
}
);
unicode = FE84;
},
{
glyphname = "alefHamzabelow-ar";
lastChange = "2021-06-13 17:21:56 +0000";
layers = (
{
anchors = (
{
name = markabove;
position = "{-126, 1352}";
},
{
name = markbelow;
position = "{363, -438}";
}
);
components = (
{
name = _part.alefstem;
},
{
name = _diacritichamza;
transform = "{1, 0, 0, 1, 18, -370}";
}
);
layerId = "75B2229F-4D44-4147-BD02-A22690DA2091";
width = 137;
},
{
anchors = (
{
name = markabove;
position = "{2, 1352}";
},
{
name = markbelow;
position = "{363, -438}";
}
);
background = {
paths = (
{
closed = 1;
nodes = (
"-120 1251 LINE",
"103 0 LINE",
"408 0 LINE",
"185 1251 LINE"
);
}
);
};
components = (
{
name = _part.alefstem;
},
{
name = _diacritichamza;
transform = "{1, 0, 0, 1, 161, -362}";
}
);
layerId = "0D3446AC-0247-4F99-A3DB-2CE2433AA8CC";
width = 414;
}
);
unicode = 0625;
},
{
glyphname = "alefHamzabelow-ar.fina";
lastChange = "2021-06-13 17:21:58 +0000";
layers = (
{
anchors = (
{
name = markabove;
position = "{-149, 1350}";
},
{
name = markbelow;
position = "{323, -412}";
}
);
components = (
{
name = _part.alefstem;
},
{
name = _diacritichamza;
transform = "{1, 0, 0, 1, 18, -370}";
}
);
layerId = "75B2229F-4D44-4147-BD02-A22690DA2091";
width = 137;
},
{
anchors = (
{
name = markabove;
position = "{12, 1350}";
},
{
name = markbelow;
position = "{323, -412}";
}
);
background = {
paths = (
{
closed = 1;
nodes = (
"-120 1251 LINE",
"103 0 LINE",
"408 0 LINE",
"185 1251 LINE"
);
}
);
};
components = (
{
name = _part.alefstem;
},
{
name = _diacritichamza;
transform = "{1, 0, 0, 1, 161, -362}";
}
);
layerId = "0D3446AC-0247-4F99-A3DB-2CE2433AA8CC";
width = 414;
}
);
unicode = FE88;
},
{
glyphname = "alefMadda-ar";
lastChange = "2021-06-13 17:22:05 +0000";
layers = (
{
anchors = (
{
name = markabove;
position = "{-195, 1583}";
},
{
name = markbelow;
position = "{290, -80}";
}
);
components = (
{
name = _part.alefstem;
},
{
name = _diacriticmeddeh;
transform = "{1, 0, 0, 1, -386, 1363}";
}
);
layerId = "75B2229F-4D44-4147-BD02-A22690DA2091";
width = 137;
},
{
anchors = (
{
name = markabove;
position = "{-75, 1583}";
},
{
name = markbelow;
position = "{290, -80}";
}
);
background = {
paths = (
{
closed = 1;
nodes = (
"-120 1251 LINE",
"103 0 LINE",
"408 0 LINE",
"185 1251 LINE"
);
}
);
};
components = (
{
name = _part.alefstem;
},
{
name = _diacriticmeddeh;
transform = "{1, 0, 0, 1, -242, 1313}";
}
);
layerId = "0D3446AC-0247-4F99-A3DB-2CE2433AA8CC";
width = 414;
}
);
unicode = 0622;
},
{
glyphname = "alefMadda-ar.fina";
lastChange = "2021-06-13 17:22:08 +0000";
layers = (
{
anchors = (
{
name = markabove;
position = "{-207, 1594}";
},
{
name = markbelow;
position = "{296, -103}";
}
);
components = (
{
name = _part.alefstem;
},
{
name = _diacriticmeddeh;
transform = "{1, 0, 0, 1, -386, 1363}";
}
);
layerId = "75B2229F-4D44-4147-BD02-A22690DA2091";
width = 137;
},
{
anchors = (
{
name = markabove;
position = "{-77, 1594}";
},
{
name = markbelow;
position = "{296, -103}";
}
);
background = {
paths = (
{
closed = 1;
nodes = (
"-120 1251 LINE",
"103 0 LINE",
"408 0 LINE",
"185 1251 LINE"
);
}
);
};
components = (
{
name = _part.alefstem;
},
{
name = _diacriticmeddeh;
transform = "{1, 0, 0, 1, -242, 1313}";
}
);
layerId = "0D3446AC-0247-4F99-A3DB-2CE2433AA8CC";
width = 414;
}
);
unicode = FE82;
},
{
glyphname = "alefWasla-ar";
lastChange = "2021-06-13 17:22:14 +0000";
layers = (
{
anchors = (
{
name = markabove;
position = "{-173, 1597}";
},
{
name = markbelow;
position = "{283, -103}";
}
);
components = (
{
name = _part.alefstem;
},
{
name = _diacriticwasl;
transform = "{1, 0, 0, 1, -368, 1347}";
}
);
layerId = "75B2229F-4D44-4147-BD02-A22690DA2091";
width = 137;
},
{
anchors = (
{
name = markabove;
position = "{-87, 1619}";
},
{
name = markbelow;
position = "{283, -103}";
}
);
background = {
paths = (
{
closed = 1;
nodes = (
"-120 1251 LINE",
"103 0 LINE",
"408 0 LINE",
"185 1251 LINE"
);
}
);
};
components = (
{
name = _part.alefstem;
},
{
name = _diacriticwasl;
transform = "{1, 0, 0, 1, -220, 1340}";
}
);
layerId = "0D3446AC-0247-4F99-A3DB-2CE2433AA8CC";
width = 414;
}
);
unicode = 0671;
},
{
glyphname = "alefWasla-ar.fina";
lastChange = "2021-06-13 17:22:18 +0000";
layers = (
{
anchors = (
{
name = markabove;
position = "{-204, 1597}";
},
{
name = markbelow;
position = "{299, -103}";
}
);
components = (
{
name = _part.alefstem;
},
{
name = _diacriticwasl;
transform = "{1, 0, 0, 1, -392, 1310}";
}
);
layerId = "75B2229F-4D44-4147-BD02-A22690DA2091";
width = 137;
},
{
anchors = (
{
name = markabove;
position = "{-95, 1647}";
},
{
name = markbelow;
position = "{299, -103}";
}
);
background = {
paths = (
{
closed = 1;
nodes = (
"-120 1251 LINE",
"103 0 LINE",
"408 0 LINE",
"185 1251 LINE"
);
}
);
};
components = (
{
name = _part.alefstem;
},
{
name = _diacriticwasl;
transform = "{1, 0, 0, 1, -229, 1324}";
}
);
layerId = "0D3446AC-0247-4F99-A3DB-2CE2433AA8CC";
width = 414;
}
);
unicode = FB51;
},
{
glyphname = "beh-ar";
lastChange = "2020-09-30 16:16:42 +0000";
layers = (
{
anchors = (
{
name = markabove;
position = "{759, 1101}";
},
{
name = markbelow;
position = "{444, -319}";
}
);
background = {
paths = (
{
closed = 1;
nodes = (
"1071 857 LINE",
"1167 307 LINE",
"474 306 LINE SMOOTH",
"423 306 OFFCURVE",
"351 378 OFFCURVE",
"351 429 QCURVE SMOOTH",
"351 479 OFFCURVE",
"423 552 OFFCURVE",
"474 552 QCURVE SMOOTH",
"709 552 LINE",
"655 857 LINE",
"474 857 LINE SMOOTH",
"356 857 OFFCURVE",
"161 741 OFFCURVE",
"45 547 OFFCURVE",
"45 429 QCURVE SMOOTH",
"45 321 OFFCURVE",
"159 125 OFFCURVE",
"353 0 OFFCURVE",
"474 0 QCURVE SMOOTH",
"1527 0 LINE",
"1376 857 LINE"
);
}
);
};
components = (
{
name = _part.bafa;
piece = {
baseLength = 76.14289;
};
transform = "{1, 0, 0, 1, 45, 0}";
},
{
name = _part.alefstem;
piece = {
stemHeight = 0;
};
transform = "{1, 0, 0, 1, 1390, 0}";
},
{
name = _singledot;
transform = "{1, 0, 0, 1, 899, -250}";
}
);
layerId = "75B2229F-4D44-4147-BD02-A22690DA2091";
width = 1527;
},
{
anchors = (
{
name = markabove;
position = "{381, 1024}";
},
{
name = markbelow;
position = "{444, -319}";
}
);
background = {
paths = (
{
closed = 1;
nodes = (
"1071 857 LINE",
"1167 307 LINE",
"474 306 LINE SMOOTH",
"423 306 OFFCURVE",
"351 378 OFFCURVE",
"351 429 QCURVE SMOOTH",
"351 479 OFFCURVE",
"423 552 OFFCURVE",
"474 552 QCURVE SMOOTH",
"709 552 LINE",
"655 857 LINE",
"474 857 LINE SMOOTH",
"356 857 OFFCURVE",
"161 741 OFFCURVE",
"45 547 OFFCURVE",
"45 429 QCURVE SMOOTH",
"45 321 OFFCURVE",
"159 125 OFFCURVE",
"353 0 OFFCURVE",
"474 0 QCURVE SMOOTH",
"1527 0 LINE",
"1376 857 LINE"
);
}
);
};
components = (
{
name = _part.bafa;
piece = {
baseLength = 62.34265;
};
transform = "{1, 0, 0, 1, 45, 0}";
},
{
name = _part.alefstem;
piece = {
stemHeight = 0;
};
transform = "{1, 0, 0, 1, 1123, 0}";
},
{
name = _singledot;
transform = "{1, 0, 0, 1, 776, -407}";
}
);
layerId = "0D3446AC-0247-4F99-A3DB-2CE2433AA8CC";
width = 1531;
}
);
unicode = 0628;
},
{
glyphname = "beh-ar.fina";
lastChange = "2020-09-30 16:16:46 +0000";
layers = (
{
anchors = (
{
name = markabove;
position = "{740, 1072}";
},
{
name = markbelow;
position = "{337, -239}";
}
);
background = {
paths = (
{
closed = 1;
nodes = (
"1071 857 LINE",
"1167 307 LINE",
"474 306 LINE SMOOTH",
"423 306 OFFCURVE",
"351 378 OFFCURVE",
"351 429 QCURVE SMOOTH",
"351 479 OFFCURVE",
"423 552 OFFCURVE",
"474 552 QCURVE SMOOTH",
"709 552 LINE",
"655 857 LINE",
"474 857 LINE SMOOTH",
"356 857 OFFCURVE",
"161 741 OFFCURVE",
"45 547 OFFCURVE",
"45 429 QCURVE SMOOTH",
"45 321 OFFCURVE",
"159 125 OFFCURVE",
"353 0 OFFCURVE",
"474 0 QCURVE SMOOTH",
"1527 0 LINE",
"1376 857 LINE"
);
}
);
};
components = (
{
name = _part.bafa;
piece = {
baseLength = 76.14289;
};
transform = "{1, 0, 0, 1, 45, 0}";
},
{
name = _part.alefstem;
piece = {
stemHeight = 0;
};
transform = "{1, 0, 0, 1, 1390, 0}";
},
{
name = _singledot;
transform = "{1, 0, 0, 1, 899, -250}";
}
);
layerId = "75B2229F-4D44-4147-BD02-A22690DA2091";
width = 1527;
},
{
anchors = (
{
name = markabove;
position = "{385, 1045}";
},
{
name = markbelow;
position = "{337, -239}";
}
);
background = {
paths = (
{
closed = 1;
nodes = (
"1071 857 LINE",
"1167 307 LINE",
"474 306 LINE SMOOTH",
"423 306 OFFCURVE",
"351 378 OFFCURVE",
"351 429 QCURVE SMOOTH",
"351 479 OFFCURVE",
"423 552 OFFCURVE",
"474 552 QCURVE SMOOTH",
"709 552 LINE",
"655 857 LINE",
"474 857 LINE SMOOTH",
"356 857 OFFCURVE",
"161 741 OFFCURVE",
"45 547 OFFCURVE",
"45 429 QCURVE SMOOTH",
"45 321 OFFCURVE",
"159 125 OFFCURVE",
"353 0 OFFCURVE",
"474 0 QCURVE SMOOTH",
"1527 0 LINE",
"1376 857 LINE"
);
}
);
};
components = (
{
name = _part.bafa;
piece = {
baseLength = 62.34265;
};
transform = "{1, 0, 0, 1, 45, 0}";
},
{
name = _part.alefstem;
piece = {
stemHeight = 0;
};
transform = "{1, 0, 0, 1, 1123, 0}";
},
{
name = _singledot;
transform = "{1, 0, 0, 1, 776, -407}";
}
);
layerId = "0D3446AC-0247-4F99-A3DB-2CE2433AA8CC";
width = 1531;
}
);
unicode = FE90;
},
{
glyphname = "beh-ar.medi";
lastChange = "2021-06-13 17:22:40 +0000";
layers = (
{
anchors = (
{
name = markabove;
position = "{6, 1024}";
},
{
name = markbelow;
position = "{167, -482}";
}
);
components = (
{
name = _part.alefstem;
piece = {
stemHeight = 0;
};
transform = "{1, 0, 0, 1, 72, 0}";
},
{
name = _part.tail;
piece = {
tailLength = 6.41977;
};
transform = "{1, 0, 0, 1, -34, 0}";
},
{
name = _singledot;
transform = "{1, 0, 0, 1, 140, -176}";
}
);
layerId = "75B2229F-4D44-4147-BD02-A22690DA2091";
width = 209;
},
{
anchors = (
{
name = markabove;
position = "{35, 1024}";
},
{
name = markbelow;
position = "{167, -482}";
}
);
background = {
paths = (
{
closed = 1;
nodes = (
"-54 857 LINE",
"43 307 LINE",
"-157 307 LINE",
"73 0 LINE",
"403 0 LINE",
"251 857 LINE"
);
}
);
};
components = (
{
name = _part.alefstem;
piece = {
stemHeight = 0;
};
},
{
name = _part.tail;
transform = "{1, 0, 0, 1, -147, 0}";
},
{
name = _singledot;
transform = "{1, 0, 0, 1, 108, -409}";
}
);
layerId = "0D3446AC-0247-4F99-A3DB-2CE2433AA8CC";
width = 408;
}
);
unicode = FE92;
},
{
glyphname = "beh-ar.init";
lastChange = "2021-06-13 17:22:45 +0000";
layers = (
{
anchors = (
{
name = markabove;
position = "{26, 1003}";
},
{
name = markbelow;
position = "{139, -480}";
}
);
components = (
{
name = _part.alefstem;
piece = {
stemHeight = 0;
};
transform = "{1, 0, 0, 1, 72, 0}";
},
{
name = _part.tail;
piece = {
tailLength = 6.41977;
};
transform = "{1, 0, 0, 1, -34, 0}";
},
{
name = _singledot;
transform = "{1, 0, 0, 1, 140, -176}";
}
);
layerId = "75B2229F-4D44-4147-BD02-A22690DA2091";
width = 209;
},
{
anchors = (
{
name = markabove;
position = "{65, 1003}";
},
{
name = markbelow;
position = "{139, -480}";
}
);
background = {
paths = (
{
closed = 1;
nodes = (
"-49 857 LINE",
"48 307 LINE",
"-152 307 LINE",
"78 0 LINE",
"408 0 LINE",
"256 857 LINE"
);
}
);
};
components = (
{
name = _part.alefstem;
piece = {
stemHeight = 0;
};
transform = "{1, 0, 0, 1, 5, 0}";
},
{
name = _part.tail;
transform = "{1, 0, 0, 1, -142, 0}";
},
{
name = _singledot;
transform = "{1, 0, 0, 1, 113, -409}";
}
);
layerId = "0D3446AC-0247-4F99-A3DB-2CE2433AA8CC";
width = 413;
}
);
unicode = FE91;
},
{
glyphname = "teh-ar";
lastChange = "2020-09-30 16:16:56 +0000";
layers = (
{
anchors = (
{
name = markabove;
position = "{711, 1304}";
},
{
name = markbelow;
position = "{376, -164}";
}
);
background = {
paths = (
{
closed = 1;
nodes = (
"1071 857 LINE",
"1167 307 LINE",
"474 306 LINE SMOOTH",
"423 306 OFFCURVE",
"351 378 OFFCURVE",
"351 429 QCURVE SMOOTH",
"351 479 OFFCURVE",
"423 552 OFFCURVE",
"474 552 QCURVE SMOOTH",
"709 552 LINE",
"655 857 LINE",
"474 857 LINE SMOOTH",
"356 857 OFFCURVE",
"161 741 OFFCURVE",
"45 547 OFFCURVE",
"45 429 QCURVE SMOOTH",
"45 321 OFFCURVE",
"159 125 OFFCURVE",
"353 0 OFFCURVE",
"474 0 QCURVE SMOOTH",
"1527 0 LINE",
"1376 857 LINE"
);
}
);
};
components = (
{
name = _part.bafa;
piece = {
baseLength = 76.14289;
};
transform = "{1, 0, 0, 1, 45, 0}";
},
{
name = _part.alefstem;
piece = {
stemHeight = 0;
};
transform = "{1, 0, 0, 1, 1390, 0}";
},
{
name = _singledot;
transform = "{1, 0, 0, 1, 879, 1024}";
},
{
name = _singledot;
transform = "{1, 0, 0, 1, 989, 1024}";
}
);
layerId = "75B2229F-4D44-4147-BD02-A22690DA2091";
width = 1527;
},
{
anchors = (
{
name = markabove;
position = "{336, 1355}";
},
{
name = markbelow;
position = "{376, -164}";
}
);
background = {
paths = (
{
closed = 1;
nodes = (
"1071 857 LINE",
"1167 307 LINE",
"474 306 LINE SMOOTH",
"423 306 OFFCURVE",
"351 378 OFFCURVE",
"351 429 QCURVE SMOOTH",
"351 479 OFFCURVE",
"423 552 OFFCURVE",
"474 552 QCURVE SMOOTH",
"709 552 LINE",
"655 857 LINE",
"474 857 LINE SMOOTH",
"356 857 OFFCURVE",
"161 741 OFFCURVE",
"45 547 OFFCURVE",
"45 429 QCURVE SMOOTH",
"45 321 OFFCURVE",
"159 125 OFFCURVE",
"353 0 OFFCURVE",
"474 0 QCURVE SMOOTH",
"1527 0 LINE",
"1376 857 LINE"
);
}
);
};
components = (
{
name = _part.bafa;
piece = {
baseLength = 62.34265;
};
transform = "{1, 0, 0, 1, 45, 0}";
},
{
name = _part.alefstem;
piece = {
stemHeight = 0;
};
transform = "{1, 0, 0, 1, 1123, 0}";
},
{
name = _singledot;
transform = "{1, 0, 0, 1, 536, 1019}";
},
{
name = _singledot;
transform = "{1, 0, 0, 1, 788, 1019}";
}
);
layerId = "0D3446AC-0247-4F99-A3DB-2CE2433AA8CC";
width = 1531;
}
);
unicode = 062A;
},
{
glyphname = "teh-ar.fina";
lastChange = "2020-09-30 16:17:00 +0000";
layers = (
{
anchors = (
{
name = markabove;
position = "{758, 1323}";
},
{
name = markbelow;
position = "{385, -103}";
}
);
background = {
paths = (
{
closed = 1;
nodes = (
"1071 857 LINE",
"1167 307 LINE",
"474 306 LINE SMOOTH",
"423 306 OFFCURVE",
"351 378 OFFCURVE",
"351 429 QCURVE SMOOTH",
"351 479 OFFCURVE",
"423 552 OFFCURVE",
"474 552 QCURVE SMOOTH",
"709 552 LINE",
"655 857 LINE",
"474 857 LINE SMOOTH",
"356 857 OFFCURVE",
"161 741 OFFCURVE",
"45 547 OFFCURVE",
"45 429 QCURVE SMOOTH",
"45 321 OFFCURVE",
"159 125 OFFCURVE",
"353 0 OFFCURVE",
"474 0 QCURVE SMOOTH",
"1527 0 LINE",
"1376 857 LINE"
);
}
);
};
components = (
{
name = _part.bafa;
piece = {
baseLength = 76.14289;
};
transform = "{1, 0, 0, 1, 45, 0}";
},
{
name = _part.alefstem;
piece = {
stemHeight = 0;
};
transform = "{1, 0, 0, 1, 1390, 0}";
},
{
name = _singledot;
transform = "{1, 0, 0, 1, 879, 1024}";
},
{
name = _singledot;
transform = "{1, 0, 0, 1, 989, 1024}";
}
);
layerId = "75B2229F-4D44-4147-BD02-A22690DA2091";
width = 1527;
},
{
anchors = (
{
name = markabove;
position = "{328, 1395}";
},
{
name = markbelow;
position = "{385, -103}";
}
);
background = {
paths = (
{
closed = 1;
nodes = (
"1071 857 LINE",
"1167 307 LINE",
"474 306 LINE SMOOTH",
"423 306 OFFCURVE",
"351 378 OFFCURVE",
"351 429 QCURVE SMOOTH",
"351 479 OFFCURVE",
"423 552 OFFCURVE",
"474 552 QCURVE SMOOTH",
"709 552 LINE",
"655 857 LINE",
"474 857 LINE SMOOTH",
"356 857 OFFCURVE",
"161 741 OFFCURVE",
"45 547 OFFCURVE",
"45 429 QCURVE SMOOTH",
"45 321 OFFCURVE",
"159 125 OFFCURVE",
"353 0 OFFCURVE",
"474 0 QCURVE SMOOTH",
"1527 0 LINE",
"1376 857 LINE"
);
}
);
};
components = (
{
name = _part.bafa;
piece = {
baseLength = 62.34265;
};
transform = "{1, 0, 0, 1, 45, 0}";
},
{
name = _part.alefstem;
piece = {
stemHeight = 0;
};
transform = "{1, 0, 0, 1, 1123, 0}";
},
{
name = _singledot;
transform = "{1, 0, 0, 1, 536, 1019}";
},
{
name = _singledot;
transform = "{1, 0, 0, 1, 788, 1019}";
}
);
layerId = "0D3446AC-0247-4F99-A3DB-2CE2433AA8CC";
width = 1531;
}
);
unicode = FE96;
},
{
glyphname = "teh-ar.medi";
lastChange = "2020-09-30 16:17:05 +0000";
layers = (
{
anchors = (
{
name = markabove;
position = "{-67, 1307}";
},
{
name = markbelow;
position = "{131, -103}";
}
);
components = (
{
name = _part.alefstem;
piece = {
stemHeight = 0;
};
transform = "{1, 0, 0, 1, 72, 0}";
},
{
name = _part.tail;
piece = {
tailLength = 7.92568;
};
transform = "{1, 0, 0, 1, -50, 0}";
},
{
name = _singledot;
transform = "{0, -1, 1, 0, -39, 1180}";
},
{
name = _singledot;
transform = "{0, -1, 1, 0, -17, 1069}";
}
);
layerId = "75B2229F-4D44-4147-BD02-A22690DA2091";
width = 209;
},
{
anchors = (
{
name = markabove;
position = "{-28, 1601}";
},
{
name = markbelow;
position = "{131, -103}";
}
);
background = {
paths = (
{
closed = 1;
nodes = (
"-54 857 LINE",
"43 307 LINE",
"-157 307 LINE",
"73 0 LINE",
"403 0 LINE",
"251 857 LINE"
);
}
);
};
components = (
{
name = _part.alefstem;
piece = {
stemHeight = 0;
};
},
{
name = _part.tail;
transform = "{1, 0, 0, 1, -147, 0}";
},
{
name = _singledot;
transform = "{1, 0, 0, 1, -110, 1187}";
},
{
name = _singledot;
transform = "{1, 0, 0, 1, -69, 944}";
}
);
layerId = "0D3446AC-0247-4F99-A3DB-2CE2433AA8CC";
width = 408;
}
);
unicode = FE98;
},
{
glyphname = "teh-ar.init";
lastChange = "2020-09-30 16:17:08 +0000";
layers = (
{
anchors = (
{
name = markabove;
position = "{-65, 1281}";
},
{
name = markbelow;
position = "{154, -103}";
}
);
components = (
{
name = _part.alefstem;
piece = {
stemHeight = 0;
};
transform = "{1, 0, 0, 1, 72, 0}";
},
{
name = _part.tail;
piece = {
tailLength = 7.92568;
};
transform = "{1, 0, 0, 1, -50, 0}";
},
{
name = _singledot;
transform = "{0, -1, 1, 0, -39, 1180}";
},
{
name = _singledot;
transform = "{0, -1, 1, 0, -17, 1069}";
}
);
layerId = "75B2229F-4D44-4147-BD02-A22690DA2091";
width = 209;
},
{
anchors = (
{
name = markabove;
position = "{-11, 1593}";
},
{
name = markbelow;
position = "{154, -103}";
}
);
background = {
paths = (
{
closed = 1;
nodes = (
"-54 857 LINE",
"43 307 LINE",
"-157 307 LINE",
"73 0 LINE",
"403 0 LINE",
"251 857 LINE"
);
}
);
};
components = (
{
name = _part.alefstem;
piece = {
stemHeight = 0;
};
},
{
name = _part.tail;
transform = "{1, 0, 0, 1, -147, 0}";
},
{
name = _singledot;
transform = "{1, 0, 0, 1, -110, 1187}";
},
{
name = _singledot;
transform = "{1, 0, 0, 1, -69, 944}";
}
);
layerId = "0D3446AC-0247-4F99-A3DB-2CE2433AA8CC";
width = 408;
}
);
unicode = FE97;
},
{
glyphname = "theh-ar";
lastChange = "2020-09-30 16:17:14 +0000";
layers = (
{
anchors = (
{
name = markabove;
position = "{522, 1223}";
},
{
name = markbelow;
position = "{374, -103}";
}
);
background = {
paths = (
{
closed = 1;
nodes = (
"1071 857 LINE",
"1167 307 LINE",
"474 306 LINE SMOOTH",
"423 306 OFFCURVE",
"351 378 OFFCURVE",
"351 429 QCURVE SMOOTH",
"351 479 OFFCURVE",
"423 552 OFFCURVE",
"474 552 QCURVE SMOOTH",
"709 552 LINE",
"655 857 LINE",
"474 857 LINE SMOOTH",
"356 857 OFFCURVE",
"161 741 OFFCURVE",
"45 547 OFFCURVE",
"45 429 QCURVE SMOOTH",
"45 321 OFFCURVE",
"159 125 OFFCURVE",
"353 0 OFFCURVE",
"474 0 QCURVE SMOOTH",
"1527 0 LINE",
"1376 857 LINE"
);
}
);
};
components = (
{
name = _part.bafa;
piece = {
baseLength = 76.14289;
};
transform = "{1, 0, 0, 1, 45, 0}";
},
{
name = _part.alefstem;
piece = {
stemHeight = 0;
};
transform = "{1, 0, 0, 1, 1390, 0}";
},
{
name = _singledot;
transform = "{1, 0, 0, 1, 879, 1065}";
},
{
name = _singledot;
transform = "{1, 0, 0, 1, 989, 1065}";
},
{
name = _singledot;
transform = "{1, 0, 0, 1, 935, 1171}";
}
);
layerId = "75B2229F-4D44-4147-BD02-A22690DA2091";
width = 1527;
},
{
anchors = (
{
name = markabove;
position = "{336, 1515}";
},
{
name = markbelow;
position = "{374, -103}";
}
);
background = {
paths = (
{
closed = 1;
nodes = (
"1071 857 LINE",
"1167 307 LINE",
"474 306 LINE SMOOTH",
"423 306 OFFCURVE",
"351 378 OFFCURVE",
"351 429 QCURVE SMOOTH",
"351 479 OFFCURVE",
"423 552 OFFCURVE",
"474 552 QCURVE SMOOTH",
"709 552 LINE",
"655 857 LINE",
"474 857 LINE SMOOTH",
"356 857 OFFCURVE",
"161 741 OFFCURVE",
"45 547 OFFCURVE",
"45 429 QCURVE SMOOTH",
"45 321 OFFCURVE",
"159 125 OFFCURVE",
"353 0 OFFCURVE",
"474 0 QCURVE SMOOTH",
"1527 0 LINE",
"1376 857 LINE"
);
}
);
};
components = (
{
name = _part.bafa;
piece = {
baseLength = 62.34265;
};
transform = "{1, 0, 0, 1, 45, 0}";
},
{
name = _part.alefstem;
piece = {
stemHeight = 0;
};
transform = "{1, 0, 0, 1, 1123, 0}";
},
{
name = _singledot;
transform = "{1, 0, 0, 1, 536, 1019}";
},
{
name = _singledot;
transform = "{1, 0, 0, 1, 788, 1019}";
},
{
name = _singledot;
transform = "{1, 0, 0, 1, 663, 1314}";
}
);
layerId = "0D3446AC-0247-4F99-A3DB-2CE2433AA8CC";
width = 1531;
}
);
unicode = 062B;
},
{
glyphname = "theh-ar.fina";
lastChange = "2020-09-30 16:17:18 +0000";
layers = (
{
anchors = (
{
name = markabove;
position = "{504, 1219}";
},
{
name = markbelow;
position = "{378, -103}";
}
);
background = {
paths = (
{
closed = 1;
nodes = (
"1071 857 LINE",
"1167 307 LINE",
"474 306 LINE SMOOTH",
"423 306 OFFCURVE",
"351 378 OFFCURVE",
"351 429 QCURVE SMOOTH",
"351 479 OFFCURVE",
"423 552 OFFCURVE",
"474 552 QCURVE SMOOTH",
"709 552 LINE",
"655 857 LINE",
"474 857 LINE SMOOTH",
"356 857 OFFCURVE",
"161 741 OFFCURVE",
"45 547 OFFCURVE",
"45 429 QCURVE SMOOTH",
"45 321 OFFCURVE",
"159 125 OFFCURVE",
"353 0 OFFCURVE",
"474 0 QCURVE SMOOTH",
"1527 0 LINE",
"1376 857 LINE"
);
}
);
};
components = (
{
name = _part.bafa;
piece = {
baseLength = 76.14289;
};
transform = "{1, 0, 0, 1, 45, 0}";
},
{
name = _part.alefstem;
piece = {
stemHeight = 0;
};
transform = "{1, 0, 0, 1, 1390, 0}";
},
{
name = _singledot;
transform = "{1, 0, 0, 1, 879, 1065}";
},
{
name = _singledot;
transform = "{1, 0, 0, 1, 989, 1065}";
},
{
name = _singledot;
transform = "{1, 0, 0, 1, 935, 1171}";
}
);
layerId = "75B2229F-4D44-4147-BD02-A22690DA2091";
width = 1527;
},
{
anchors = (
{
name = markabove;
position = "{353, 1595}";
},
{
name = markbelow;
position = "{378, -103}";
}
);
background = {
paths = (
{
closed = 1;
nodes = (
"1071 857 LINE",
"1167 307 LINE",
"474 306 LINE SMOOTH",
"423 306 OFFCURVE",
"351 378 OFFCURVE",
"351 429 QCURVE SMOOTH",
"351 479 OFFCURVE",
"423 552 OFFCURVE",
"474 552 QCURVE SMOOTH",
"709 552 LINE",
"655 857 LINE",
"474 857 LINE SMOOTH",
"356 857 OFFCURVE",
"161 741 OFFCURVE",
"45 547 OFFCURVE",
"45 429 QCURVE SMOOTH",
"45 321 OFFCURVE",
"159 125 OFFCURVE",
"353 0 OFFCURVE",
"474 0 QCURVE SMOOTH",
"1527 0 LINE",
"1376 857 LINE"
);
}
);
};
components = (
{
name = _part.bafa;
piece = {
baseLength = 62.34265;
};
transform = "{1, 0, 0, 1, 45, 0}";
},
{
name = _part.alefstem;
piece = {
stemHeight = 0;
};
transform = "{1, 0, 0, 1, 1123, 0}";
},
{
name = _singledot;
transform = "{1, 0, 0, 1, 536, 1019}";
},
{
name = _singledot;
transform = "{1, 0, 0, 1, 788, 1019}";
},
{
name = _singledot;
transform = "{1, 0, 0, 1, 663, 1314}";
}
);
layerId = "0D3446AC-0247-4F99-A3DB-2CE2433AA8CC";
width = 1531;
}
);
unicode = FE9A;
},
{
glyphname = "theh-ar.medi";
lastChange = "2020-09-30 16:17:22 +0000";
layers = (
{
anchors = (
{
name = markabove;
position = "{-65, 1285}";
},
{
name = markbelow;
position = "{296, -103}";
}
);
components = (
{
name = _part.alefstem;
piece = {
stemHeight = 0;
};
transform = "{1, 0, 0, 1, 75, 0}";
},
{
name = _part.tail;
piece = {
tailLength = 7.92568;
};
transform = "{1, 0, 0, 1, -47, 0}";
},
{
name = _singledot;
transform = "{0, -1, 1, 0, -104, 1031}";
},
{
name = _singledot;
transform = "{0, -1, 1, 0, -15, 1028}";
},
{
name = _singledot;
transform = "{0, -1, 1, 0, -60, 1140}";
}
);
layerId = "75B2229F-4D44-4147-BD02-A22690DA2091";
width = 212;
},
{
anchors = (
{
name = markabove;
position = "{95, 1737}";
},
{
name = markbelow;
position = "{296, -103}";
}
);
background = {
paths = (
{
closed = 1;
nodes = (
"150 857 LINE",
"247 307 LINE",
"47 307 LINE",
"277 0 LINE",
"607 0 LINE",
"455 857 LINE"
);
}
);
};
components = (
{
name = _part.alefstem;
piece = {
stemHeight = 0;
};
transform = "{1, 0, 0, 1, 204, 0}";
},
{
name = _part.tail;
piece = {
tailLength = 20.99437;
};
transform = "{1, 0, 0, 1, -118, 0}";
},
{
name = _singledot;
transform = "{1, 0, 0, 1, -113, 1019}";
},
{
name = _singledot;
transform = "{1, 0, 0, 1, 139, 1019}";
},
{
name = _singledot;
transform = "{1, 0, 0, 1, 6, 1325}";
}
);
layerId = "0D3446AC-0247-4F99-A3DB-2CE2433AA8CC";
width = 612;
}
);
unicode = FE9C;
},
{
glyphname = "theh-ar.init";
lastChange = "2020-09-30 16:17:29 +0000";
layers = (
{
anchors = (
{
name = markabove;
position = "{-105, 1251}";
},
{
name = markbelow;
position = "{291, -103}";
}
);
components = (
{
name = _part.alefstem;
piece = {
stemHeight = 0;
};
transform = "{1, 0, 0, 1, 75, 0}";
},
{
name = _part.tail;
piece = {
tailLength = 7.92568;
};
transform = "{1, 0, 0, 1, -47, 0}";
},
{
name = _singledot;
transform = "{0, -1, 1, 0, -104, 1031}";
},
{
name = _singledot;
transform = "{0, -1, 1, 0, -15, 1028}";
},
{
name = _singledot;
transform = "{0, -1, 1, 0, -60, 1140}";
}
);
layerId = "75B2229F-4D44-4147-BD02-A22690DA2091";
width = 212;
},
{
anchors = (
{
name = markabove;
position = "{83, 1727}";
},
{
name = markbelow;
position = "{291, -103}";
}
);
background = {
paths = (
{
closed = 1;
nodes = (
"150 857 LINE",
"247 307 LINE",
"47 307 LINE",
"277 0 LINE",
"607 0 LINE",
"455 857 LINE"
);
}
);
};
components = (
{
name = _part.alefstem;
piece = {
stemHeight = 0;
};
transform = "{1, 0, 0, 1, 204, 0}";
},
{
name = _part.tail;
piece = {
tailLength = 20.99437;
};
transform = "{1, 0, 0, 1, -118, 0}";
},
{
name = _singledot;
transform = "{1, 0, 0, 1, -113, 1019}";
},
{
name = _singledot;
transform = "{1, 0, 0, 1, 139, 1019}";
},
{
name = _singledot;
transform = "{1, 0, 0, 1, 6, 1325}";
}
);
layerId = "0D3446AC-0247-4F99-A3DB-2CE2433AA8CC";
width = 612;
}
);
unicode = FE9B;
},
{
glyphname = "jeem-ar";
lastChange = "2020-09-30 16:17:36 +0000";
layers = (
{
anchors = (
{
name = markabove;
position = "{508, 1084}";
},
{
name = markbelow;
position = "{602, -459}";
}
);
background = {
paths = (
{
closed = 1;
nodes = (
"830 -53 OFFCURVE",
"767 -53 QCURVE SMOOTH",
"703 -53 OFFCURVE",
"614 -143 OFFCURVE",
"614 -206 QCURVE SMOOTH",
"614 -269 OFFCURVE",
"703 -358 OFFCURVE",
"767 -358 QCURVE SMOOTH",
"830 -358 OFFCURVE",
"919 -269 OFFCURVE",
"919 -206 QCURVE SMOOTH",
"919 -143 OFFCURVE"
);
},
{
closed = 1;
nodes = (
"1036 740 OFFCURVE",
"837 856 OFFCURVE",
"720 856 QCURVE SMOOTH",
"61 856 LINE",
"115 551 LINE",
"727 551 LINE SMOOTH",
"778 551 OFFCURVE",
"850 479 OFFCURVE",
"850 428 QCURVE SMOOTH",
"850 377 OFFCURVE",
"778 305 OFFCURVE",
"727 305 QCURVE SMOOTH",
"37 305 LINE",
"98 0 LINE",
"143 -163 OFFCURVE",
"282 -337 OFFCURVE",
"354 -366 QCURVE SMOOTH",
"410 -389 OFFCURVE",
"457 -389 QCURVE SMOOTH",
"471 -389 OFFCURVE",
"540 -377 OFFCURVE",
"559 -347 QCURVE SMOOTH",
"564 -339 OFFCURVE",
"564 -329 QCURVE SMOOTH",
"564 -316 OFFCURVE",
"541 -275 OFFCURVE",
"514 -240 QCURVE SMOOTH",
"478 -194 OFFCURVE",
"413 -75 OFFCURVE",
"413 0 QCURVE",
"727 0 LINE SMOOTH",
"863 0 OFFCURVE",
"1055 124 OFFCURVE",
"1155 318 OFFCURVE",
"1155 428 QCURVE SMOOTH",
"1154 547 OFFCURVE"
);
}
);
};
components = (
{
name = _part.jeemdal;
piece = {
baseLength = 40.60015;
topLength = 36.2177;
};
transform = "{1, 0, 0, 1, 201, 0}";
},
{
name = _singledot;
transform = "{1, 0, 0, 1, 622, -274}";
}
);
guideLines = (
{
angle = 100.3048;
position = "{94, 18}";
}
);
layerId = "75B2229F-4D44-4147-BD02-A22690DA2091";
paths = (
{
closed = 1;
nodes = (
"137 -218 OFFCURVE",
"302 -388 OFFCURVE",
"458 -388 CURVE SMOOTH",
"466 -388 OFFCURVE",
"470 -386 OFFCURVE",
"470 -379 CURVE SMOOTH",
"470 -352 OFFCURVE",
"224 -356 OFFCURVE",
"138 -2 CURVE",
"138 34 LINE",
"91 34 LINE",
"97 1 LINE SMOOTH"
);
}
);
width = 1200;
},
{
anchors = (
{
name = markabove;
position = "{358, 1060}";
},
{
name = markbelow;
position = "{602, -459}";
}
);
background = {
paths = (
{
closed = 1;
nodes = (
"834 -53 OFFCURVE",
"771 -53 QCURVE SMOOTH",
"707 -53 OFFCURVE",
"618 -143 OFFCURVE",
"618 -206 QCURVE SMOOTH",
"618 -269 OFFCURVE",
"707 -358 OFFCURVE",
"771 -358 QCURVE SMOOTH",
"834 -358 OFFCURVE",
"923 -269 OFFCURVE",
"923 -206 QCURVE SMOOTH",
"923 -143 OFFCURVE"
);
},
{
closed = 1;
nodes = (
"1040 740 OFFCURVE",
"841 856 OFFCURVE",
"724 856 QCURVE SMOOTH",
"65 856 LINE",
"119 551 LINE",
"731 551 LINE SMOOTH",
"782 551 OFFCURVE",
"854 479 OFFCURVE",
"854 428 QCURVE SMOOTH",
"854 377 OFFCURVE",
"782 305 OFFCURVE",
"731 305 QCURVE SMOOTH",
"41 305 LINE",
"102 0 LINE",
"147 -163 OFFCURVE",
"286 -337 OFFCURVE",
"358 -366 QCURVE SMOOTH",
"414 -389 OFFCURVE",
"461 -389 QCURVE SMOOTH",
"475 -389 OFFCURVE",
"544 -377 OFFCURVE",
"563 -347 QCURVE SMOOTH",
"568 -339 OFFCURVE",
"568 -329 QCURVE SMOOTH",
"568 -316 OFFCURVE",
"545 -275 OFFCURVE",
"518 -240 QCURVE SMOOTH",
"482 -194 OFFCURVE",
"417 -75 OFFCURVE",
"417 0 QCURVE",
"731 0 LINE SMOOTH",
"867 0 OFFCURVE",
"1059 124 OFFCURVE",
"1159 318 OFFCURVE",
"1159 428 QCURVE SMOOTH",
"1158 547 OFFCURVE"
);
}
);
};
components = (
{
name = _part.jeemdal;
piece = {
baseLength = 42.51463;
topLength = 35.03478;
};
transform = "{1, 0, 0, 1, 203, 0}";
},
{
name = _singledot;
transform = "{1, 0, 0, 1, 618, -356}";
}
);
layerId = "0D3446AC-0247-4F99-A3DB-2CE2433AA8CC";
paths = (
{
closed = 1;
nodes = (
"140 -249 OFFCURVE",
"336 -388 OFFCURVE",
"465 -388 CURVE SMOOTH",
"550 -388 OFFCURVE",
"568 -357 OFFCURVE",
"568 -324 CURVE SMOOTH",
"568 -291 OFFCURVE",
"415 -154 OFFCURVE",
"415 1 CURVE SMOOTH",
"415 240 LINE",
"45 306 LINE",
"97 1 LINE SMOOTH"
);
}
);
width = 1231;
}
);
unicode = 062C;
},
{
glyphname = "jeem-ar.fina";
lastChange = "2020-09-30 16:17:38 +0000";
layers = (
{
anchors = (
{
name = markabove;
position = "{568, 1058}";
},
{
name = markbelow;
position = "{465, -491}";
}
);
background = {
paths = (
{
closed = 1;
nodes = (
"830 -53 OFFCURVE",
"767 -53 QCURVE SMOOTH",
"703 -53 OFFCURVE",
"614 -143 OFFCURVE",
"614 -206 QCURVE SMOOTH",
"614 -269 OFFCURVE",
"703 -358 OFFCURVE",
"767 -358 QCURVE SMOOTH",
"830 -358 OFFCURVE",
"919 -269 OFFCURVE",
"919 -206 QCURVE SMOOTH",
"919 -143 OFFCURVE"
);
},
{
closed = 1;
nodes = (
"1036 740 OFFCURVE",
"837 856 OFFCURVE",
"720 856 QCURVE SMOOTH",
"61 856 LINE",
"115 551 LINE",
"727 551 LINE SMOOTH",
"778 551 OFFCURVE",
"850 479 OFFCURVE",
"850 428 QCURVE SMOOTH",
"850 377 OFFCURVE",
"778 305 OFFCURVE",
"727 305 QCURVE SMOOTH",
"37 305 LINE",
"98 0 LINE",
"143 -163 OFFCURVE",
"282 -337 OFFCURVE",
"354 -366 QCURVE SMOOTH",
"410 -389 OFFCURVE",
"457 -389 QCURVE SMOOTH",
"471 -389 OFFCURVE",
"540 -377 OFFCURVE",
"559 -347 QCURVE SMOOTH",
"564 -339 OFFCURVE",
"564 -329 QCURVE SMOOTH",
"564 -316 OFFCURVE",
"541 -275 OFFCURVE",
"514 -240 QCURVE SMOOTH",
"478 -194 OFFCURVE",
"413 -75 OFFCURVE",
"413 0 QCURVE",
"727 0 LINE SMOOTH",
"863 0 OFFCURVE",
"1055 124 OFFCURVE",
"1155 318 OFFCURVE",
"1155 428 QCURVE SMOOTH",
"1154 547 OFFCURVE"
);
}
);
};
components = (
{
name = _part.jeemdal;
piece = {
baseLength = 40.60015;
topLength = 36.2177;
};
transform = "{1, 0, 0, 1, 201, 0}";
},
{
name = _singledot;
transform = "{1, 0, 0, 1, 622, -274}";
},
{
name = _part.tail;
piece = {
tailLength = 29.19473;
};
transform = "{1, 0, 0, 1, 735, 0}";
}
);
guideLines = (
{
angle = 100.3048;
position = "{94, 18}";
}
);
layerId = "75B2229F-4D44-4147-BD02-A22690DA2091";
paths = (
{
closed = 1;
nodes = (
"137 -218 OFFCURVE",
"302 -388 OFFCURVE",
"458 -388 CURVE SMOOTH",
"466 -388 OFFCURVE",
"470 -386 OFFCURVE",
"470 -379 CURVE SMOOTH",
"470 -352 OFFCURVE",
"224 -356 OFFCURVE",
"138 -2 CURVE",
"138 34 LINE",
"91 34 LINE",
"97 1 LINE SMOOTH"
);
}
);
width = 1200;
},
{
anchors = (
{
name = markabove;
position = "{358, 1024}";
},
{
name = markbelow;
position = "{465, -491}";
}
);
background = {
paths = (
{
closed = 1;
nodes = (
"834 -53 OFFCURVE",
"771 -53 QCURVE SMOOTH",
"707 -53 OFFCURVE",
"618 -143 OFFCURVE",
"618 -206 QCURVE SMOOTH",
"618 -269 OFFCURVE",
"707 -358 OFFCURVE",
"771 -358 QCURVE SMOOTH",
"834 -358 OFFCURVE",
"923 -269 OFFCURVE",
"923 -206 QCURVE SMOOTH",
"923 -143 OFFCURVE"
);
},
{
closed = 1;
nodes = (
"1040 740 OFFCURVE",
"841 856 OFFCURVE",
"724 856 QCURVE SMOOTH",
"65 856 LINE",
"119 551 LINE",
"731 551 LINE SMOOTH",
"782 551 OFFCURVE",
"854 479 OFFCURVE",
"854 428 QCURVE SMOOTH",
"854 377 OFFCURVE",
"782 305 OFFCURVE",
"731 305 QCURVE SMOOTH",
"41 305 LINE",
"102 0 LINE",
"147 -163 OFFCURVE",
"286 -337 OFFCURVE",
"358 -366 QCURVE SMOOTH",
"414 -389 OFFCURVE",
"461 -389 QCURVE SMOOTH",
"475 -389 OFFCURVE",
"544 -377 OFFCURVE",
"563 -347 QCURVE SMOOTH",
"568 -339 OFFCURVE",
"568 -329 QCURVE SMOOTH",
"568 -316 OFFCURVE",
"545 -275 OFFCURVE",
"518 -240 QCURVE SMOOTH",
"482 -194 OFFCURVE",
"417 -75 OFFCURVE",
"417 0 QCURVE",
"731 0 LINE SMOOTH",
"867 0 OFFCURVE",
"1059 124 OFFCURVE",
"1159 318 OFFCURVE",
"1159 428 QCURVE SMOOTH",
"1158 547 OFFCURVE"
);
}
);
};
components = (
{
name = _part.jeemdal;
piece = {
baseLength = 42.51463;
topLength = 35.03478;
};
transform = "{1, 0, 0, 1, 203, 0}";
},
{
name = _singledot;
transform = "{1, 0, 0, 1, 618, -356}";
},
{
name = _part.tail;
transform = "{1, 0, 0, 1, 924, 0}";
}
);
layerId = "0D3446AC-0247-4F99-A3DB-2CE2433AA8CC";
paths = (
{
closed = 1;
nodes = (
"140 -249 OFFCURVE",
"336 -388 OFFCURVE",
"465 -388 CURVE SMOOTH",
"550 -388 OFFCURVE",
"568 -357 OFFCURVE",
"568 -324 CURVE SMOOTH",
"568 -291 OFFCURVE",
"415 -154 OFFCURVE",
"415 1 CURVE SMOOTH",
"415 240 LINE",
"45 306 LINE",
"97 1 LINE SMOOTH"
);
}
);
width = 1210;
}
);
unicode = FE9E;
},
{
glyphname = "jeem-ar.medi";
lastChange = "2020-09-30 16:17:42 +0000";
layers = (
{
anchors = (
{
name = markabove;
position = "{445, 1071}";
},
{
name = markbelow;
position = "{443, -446}";
}
);
background = {
paths = (
{
closed = 1;
nodes = (
"604 -53 OFFCURVE",
"541 -53 QCURVE SMOOTH",
"478 -53 OFFCURVE",
"389 -143 OFFCURVE",
"389 -206 QCURVE SMOOTH",
"389 -269 OFFCURVE",
"478 -358 OFFCURVE",
"541 -358 QCURVE SMOOTH",
"604 -358 OFFCURVE",
"694 -269 OFFCURVE",
"694 -206 QCURVE SMOOTH",
"694 -143 OFFCURVE"
);
},
{
closed = 1;
nodes = (
"1001 740 OFFCURVE",
"807 856 OFFCURVE",
"689 856 QCURVE SMOOTH",
"22 856 LINE",
"76 551 LINE",
"689 551 LINE SMOOTH",
"739 551 OFFCURVE",
"811 479 OFFCURVE",
"811 428 QCURVE SMOOTH",
"811 377 OFFCURVE",
"739 305 OFFCURVE",
"689 305 QCURVE SMOOTH",
"-57 305 LINE",
"151 0 LINE",
"689 0 LINE",
"792 0 OFFCURVE",
"952 72 OFFCURVE",
"1061 194 OFFCURVE",
"1117 347 OFFCURVE",
"1117 428 QCURVE SMOOTH",
"1117 546 OFFCURVE"
);
}
);
};
components = (
{
name = _singledot;
transform = "{1, 0, 0, 1, 444, -269}";
},
{
name = _part.jeemdal;
piece = {
topLength = 37.77192;
};
transform = "{1, 0, 0, 1, 170, 0}";
},
{
name = _part.tail;
piece = {
tailLength = 26.89101;
};
transform = "{1, 0, 0, 1, -34, 0}";
},
{
name = _part.tail;
piece = {
tailLength = 44.82111;
};
transform = "{1, 0, 0, 1, 648, -1}";
}
);
layerId = "75B2229F-4D44-4147-BD02-A22690DA2091";
width = 1228;
},
{
anchors = (
{
name = markabove;
position = "{338, 1048}";
},
{
name = markbelow;
position = "{443, -446}";
}
);
background = {
paths = (
{
closed = 1;
nodes = (
"521 -53 OFFCURVE",
"458 -53 QCURVE SMOOTH",
"395 -53 OFFCURVE",
"306 -143 OFFCURVE",
"306 -206 QCURVE SMOOTH",
"306 -269 OFFCURVE",
"395 -358 OFFCURVE",
"458 -358 QCURVE SMOOTH",
"521 -358 OFFCURVE",
"611 -269 OFFCURVE",
"611 -206 QCURVE SMOOTH",
"611 -143 OFFCURVE"
);
},
{
closed = 1;
nodes = (
"918 740 OFFCURVE",
"724 856 OFFCURVE",
"606 856 QCURVE SMOOTH",
"-61 856 LINE",
"-7 551 LINE",
"606 551 LINE SMOOTH",
"656 551 OFFCURVE",
"728 479 OFFCURVE",
"728 428 QCURVE SMOOTH",
"728 377 OFFCURVE",
"656 305 OFFCURVE",
"606 305 QCURVE SMOOTH",
"-140 305 LINE",
"68 0 LINE",
"606 0 LINE",
"709 0 OFFCURVE",
"869 72 OFFCURVE",
"978 194 OFFCURVE",
"1034 347 OFFCURVE",
"1034 428 QCURVE SMOOTH",
"1034 546 OFFCURVE"
);
}
);
};
components = (
{
name = _singledot;
transform = "{1, 0, 0, 1, 301, -359}";
},
{
name = _part.jeemdal;
piece = {
topLength = 34.64002;
};
transform = "{1, 0, 0, 1, 78, 0}";
},
{
name = _part.tail;
transform = "{1, 0, 0, 1, -138, 0}";
},
{
name = _part.tail;
transform = "{1, 0, 0, 1, 800, 0}";
}
);
layerId = "0D3446AC-0247-4F99-A3DB-2CE2433AA8CC";
width = 1098;
}
);
unicode = FEA0;
},
{
glyphname = "jeem-ar.init";
lastChange = "2020-09-30 16:17:45 +0000";
layers = (
{
anchors = (
{
name = markabove;
position = "{478, 1058}";
},
{
name = markbelow;
position = "{427, -465}";
}
);
background = {
paths = (
{
closed = 1;
nodes = (
"604 -53 OFFCURVE",
"541 -53 QCURVE SMOOTH",
"478 -53 OFFCURVE",
"389 -143 OFFCURVE",
"389 -206 QCURVE SMOOTH",
"389 -269 OFFCURVE",
"478 -358 OFFCURVE",
"541 -358 QCURVE SMOOTH",
"604 -358 OFFCURVE",
"694 -269 OFFCURVE",
"694 -206 QCURVE SMOOTH",
"694 -143 OFFCURVE"
);
},
{
closed = 1;
nodes = (
"1001 740 OFFCURVE",
"807 856 OFFCURVE",
"689 856 QCURVE SMOOTH",
"22 856 LINE",
"76 551 LINE",
"689 551 LINE SMOOTH",
"739 551 OFFCURVE",
"811 479 OFFCURVE",
"811 428 QCURVE SMOOTH",
"811 377 OFFCURVE",
"739 305 OFFCURVE",
"689 305 QCURVE SMOOTH",
"-57 305 LINE",
"151 0 LINE",
"689 0 LINE",
"792 0 OFFCURVE",
"952 72 OFFCURVE",
"1061 194 OFFCURVE",
"1117 347 OFFCURVE",
"1117 428 QCURVE SMOOTH",
"1117 546 OFFCURVE"
);
}
);
};
components = (
{
name = _singledot;
transform = "{1, 0, 0, 1, 444, -269}";
},
{
name = _part.jeemdal;
piece = {
topLength = 37.77192;
};
transform = "{1, 0, 0, 1, 170, 0}";
},
{
name = _part.tail;
piece = {
tailLength = 26.89101;
};
transform = "{1, 0, 0, 1, -34, 0}";
}
);
layerId = "75B2229F-4D44-4147-BD02-A22690DA2091";
width = 1194;
},
{
anchors = (
{
name = markabove;
position = "{314, 1058}";
},
{
name = markbelow;
position = "{427, -465}";
}
);
background = {
paths = (
{
closed = 1;
nodes = (
"521 -53 OFFCURVE",
"458 -53 QCURVE SMOOTH",
"395 -53 OFFCURVE",
"306 -143 OFFCURVE",
"306 -206 QCURVE SMOOTH",
"306 -269 OFFCURVE",
"395 -358 OFFCURVE",
"458 -358 QCURVE SMOOTH",
"521 -358 OFFCURVE",
"611 -269 OFFCURVE",
"611 -206 QCURVE SMOOTH",
"611 -143 OFFCURVE"
);
},
{
closed = 1;
nodes = (
"918 740 OFFCURVE",
"724 856 OFFCURVE",
"606 856 QCURVE SMOOTH",
"-61 856 LINE",
"-7 551 LINE",
"606 551 LINE SMOOTH",
"656 551 OFFCURVE",
"728 479 OFFCURVE",
"728 428 QCURVE SMOOTH",
"728 377 OFFCURVE",
"656 305 OFFCURVE",
"606 305 QCURVE SMOOTH",
"-140 305 LINE",
"68 0 LINE",
"606 0 LINE",
"709 0 OFFCURVE",
"869 72 OFFCURVE",
"978 194 OFFCURVE",
"1034 347 OFFCURVE",
"1034 428 QCURVE SMOOTH",
"1034 546 OFFCURVE"
);
}
);
};
components = (
{
name = _singledot;
transform = "{1, 0, 0, 1, 301, -359}";
},
{
name = _part.jeemdal;
piece = {
topLength = 34.64002;
};
transform = "{1, 0, 0, 1, 78, 0}";
},
{
name = _part.tail;
transform = "{1, 0, 0, 1, -138, 0}";
}
);
layerId = "0D3446AC-0247-4F99-A3DB-2CE2433AA8CC";
width = 1109;
}
);
unicode = FE9F;
},
{
glyphname = "hah-ar";
lastChange = "2020-09-30 16:17:47 +0000";
layers = (
{
anchors = (
{
name = markabove;
position = "{462, 1056}";
},
{
name = markbelow;
position = "{465, -481}";
}
);
background = {
paths = (
{
closed = 1;
nodes = (
"830 -53 OFFCURVE",
"767 -53 QCURVE SMOOTH",
"703 -53 OFFCURVE",
"614 -143 OFFCURVE",
"614 -206 QCURVE SMOOTH",
"614 -269 OFFCURVE",
"703 -358 OFFCURVE",
"767 -358 QCURVE SMOOTH",
"830 -358 OFFCURVE",
"919 -269 OFFCURVE",
"919 -206 QCURVE SMOOTH",
"919 -143 OFFCURVE"
);
},
{
closed = 1;
nodes = (
"1036 740 OFFCURVE",
"837 856 OFFCURVE",
"720 856 QCURVE SMOOTH",
"61 856 LINE",
"115 551 LINE",
"727 551 LINE SMOOTH",
"778 551 OFFCURVE",
"850 479 OFFCURVE",
"850 428 QCURVE SMOOTH",
"850 377 OFFCURVE",
"778 305 OFFCURVE",
"727 305 QCURVE SMOOTH",
"37 305 LINE",
"98 0 LINE",
"143 -163 OFFCURVE",
"282 -337 OFFCURVE",
"354 -366 QCURVE SMOOTH",
"410 -389 OFFCURVE",
"457 -389 QCURVE SMOOTH",
"471 -389 OFFCURVE",
"540 -377 OFFCURVE",
"559 -347 QCURVE SMOOTH",
"564 -339 OFFCURVE",
"564 -329 QCURVE SMOOTH",
"564 -316 OFFCURVE",
"541 -275 OFFCURVE",
"514 -240 QCURVE SMOOTH",
"478 -194 OFFCURVE",
"413 -75 OFFCURVE",
"413 0 QCURVE",
"727 0 LINE SMOOTH",
"863 0 OFFCURVE",
"1055 124 OFFCURVE",
"1155 318 OFFCURVE",
"1155 428 QCURVE SMOOTH",
"1154 547 OFFCURVE"
);
}
);
};
components = (
{
name = _part.jeemdal;
piece = {
baseLength = 40.60015;
topLength = 36.2177;
};
transform = "{1, 0, 0, 1, 201, 0}";
}
);
guideLines = (
{
angle = 100.3048;
position = "{94, 18}";
}
);
layerId = "75B2229F-4D44-4147-BD02-A22690DA2091";
paths = (
{
closed = 1;
nodes = (
"137 -218 OFFCURVE",
"302 -388 OFFCURVE",
"458 -388 CURVE SMOOTH",
"466 -388 OFFCURVE",
"470 -386 OFFCURVE",
"470 -379 CURVE SMOOTH",
"470 -352 OFFCURVE",
"224 -356 OFFCURVE",
"138 -2 CURVE",
"138 34 LINE",
"91 34 LINE",
"97 1 LINE SMOOTH"
);
}
);
width = 1200;
},
{
anchors = (
{
name = markabove;
position = "{395, 1024}";
},
{
name = markbelow;
position = "{465, -481}";
}
);
background = {
paths = (
{
closed = 1;
nodes = (
"834 -53 OFFCURVE",
"771 -53 QCURVE SMOOTH",
"707 -53 OFFCURVE",
"618 -143 OFFCURVE",
"618 -206 QCURVE SMOOTH",
"618 -269 OFFCURVE",
"707 -358 OFFCURVE",
"771 -358 QCURVE SMOOTH",
"834 -358 OFFCURVE",
"923 -269 OFFCURVE",
"923 -206 QCURVE SMOOTH",
"923 -143 OFFCURVE"
);
},
{
closed = 1;
nodes = (
"1040 740 OFFCURVE",
"841 856 OFFCURVE",
"724 856 QCURVE SMOOTH",
"65 856 LINE",
"119 551 LINE",
"731 551 LINE SMOOTH",
"782 551 OFFCURVE",
"854 479 OFFCURVE",
"854 428 QCURVE SMOOTH",
"854 377 OFFCURVE",
"782 305 OFFCURVE",
"731 305 QCURVE SMOOTH",
"41 305 LINE",
"102 0 LINE",
"147 -163 OFFCURVE",
"286 -337 OFFCURVE",
"358 -366 QCURVE SMOOTH",
"414 -389 OFFCURVE",
"461 -389 QCURVE SMOOTH",
"475 -389 OFFCURVE",
"544 -377 OFFCURVE",
"563 -347 QCURVE SMOOTH",
"568 -339 OFFCURVE",
"568 -329 QCURVE SMOOTH",
"568 -316 OFFCURVE",
"545 -275 OFFCURVE",
"518 -240 QCURVE SMOOTH",
"482 -194 OFFCURVE",
"417 -75 OFFCURVE",
"417 0 QCURVE",
"731 0 LINE SMOOTH",
"867 0 OFFCURVE",
"1059 124 OFFCURVE",
"1159 318 OFFCURVE",
"1159 428 QCURVE SMOOTH",
"1158 547 OFFCURVE"
);
}
);
};
components = (
{
name = _part.jeemdal;
piece = {
baseLength = 42.51463;
topLength = 35.03478;
};
transform = "{1, 0, 0, 1, 203, 0}";
}
);
layerId = "0D3446AC-0247-4F99-A3DB-2CE2433AA8CC";
paths = (
{
closed = 1;
nodes = (
"140 -249 OFFCURVE",
"336 -388 OFFCURVE",
"465 -388 CURVE SMOOTH",
"550 -388 OFFCURVE",
"568 -357 OFFCURVE",
"568 -324 CURVE SMOOTH",
"568 -291 OFFCURVE",
"415 -154 OFFCURVE",
"415 1 CURVE SMOOTH",
"415 240 LINE",
"45 306 LINE",
"97 1 LINE SMOOTH"
);
}
);
width = 1231;
}
);
unicode = 062D;
},
{
glyphname = "hah-ar.fina";
lastChange = "2020-09-30 16:17:49 +0000";
layers = (
{
anchors = (
{
name = markabove;
position = "{491, 1024}";
},
{
name = markbelow;
position = "{478, -512}";
}
);
background = {
paths = (
{
closed = 1;
nodes = (
"830 -53 OFFCURVE",
"767 -53 QCURVE SMOOTH",
"703 -53 OFFCURVE",
"614 -143 OFFCURVE",
"614 -206 QCURVE SMOOTH",
"614 -269 OFFCURVE",
"703 -358 OFFCURVE",
"767 -358 QCURVE SMOOTH",
"830 -358 OFFCURVE",
"919 -269 OFFCURVE",
"919 -206 QCURVE SMOOTH",
"919 -143 OFFCURVE"
);
},
{
closed = 1;
nodes = (
"1036 740 OFFCURVE",
"837 856 OFFCURVE",
"720 856 QCURVE SMOOTH",
"61 856 LINE",
"115 551 LINE",
"727 551 LINE SMOOTH",
"778 551 OFFCURVE",
"850 479 OFFCURVE",
"850 428 QCURVE SMOOTH",
"850 377 OFFCURVE",
"778 305 OFFCURVE",
"727 305 QCURVE SMOOTH",
"37 305 LINE",
"98 0 LINE",
"143 -163 OFFCURVE",
"282 -337 OFFCURVE",
"354 -366 QCURVE SMOOTH",
"410 -389 OFFCURVE",
"457 -389 QCURVE SMOOTH",
"471 -389 OFFCURVE",
"540 -377 OFFCURVE",
"559 -347 QCURVE SMOOTH",
"564 -339 OFFCURVE",
"564 -329 QCURVE SMOOTH",
"564 -316 OFFCURVE",
"541 -275 OFFCURVE",
"514 -240 QCURVE SMOOTH",
"478 -194 OFFCURVE",
"413 -75 OFFCURVE",
"413 0 QCURVE",
"727 0 LINE SMOOTH",
"863 0 OFFCURVE",
"1055 124 OFFCURVE",
"1155 318 OFFCURVE",
"1155 428 QCURVE SMOOTH",
"1154 547 OFFCURVE"
);
}
);
};
components = (
{
name = _part.jeemdal;
piece = {
baseLength = 40.60015;
topLength = 36.2177;
};
transform = "{1, 0, 0, 1, 201, 0}";
},
{
name = _part.tail;
piece = {
tailLength = 29.19473;
};
transform = "{1, 0, 0, 1, 735, 0}";
}
);
guideLines = (
{
angle = 100.3048;
position = "{94, 18}";
}
);
layerId = "75B2229F-4D44-4147-BD02-A22690DA2091";
paths = (
{
closed = 1;
nodes = (
"137 -218 OFFCURVE",
"302 -388 OFFCURVE",
"458 -388 CURVE SMOOTH",
"466 -388 OFFCURVE",
"470 -386 OFFCURVE",
"470 -379 CURVE SMOOTH",
"470 -352 OFFCURVE",
"224 -356 OFFCURVE",
"138 -2 CURVE",
"138 34 LINE",
"91 34 LINE",
"97 1 LINE SMOOTH"
);
}
);
width = 1200;
},
{
anchors = (
{
name = markabove;
position = "{358, 1024}";
},
{
name = markbelow;
position = "{478, -512}";
}
);
background = {
paths = (
{
closed = 1;
nodes = (
"834 -53 OFFCURVE",
"771 -53 QCURVE SMOOTH",
"707 -53 OFFCURVE",
"618 -143 OFFCURVE",
"618 -206 QCURVE SMOOTH",
"618 -269 OFFCURVE",
"707 -358 OFFCURVE",
"771 -358 QCURVE SMOOTH",
"834 -358 OFFCURVE",
"923 -269 OFFCURVE",
"923 -206 QCURVE SMOOTH",
"923 -143 OFFCURVE"
);
},
{
closed = 1;
nodes = (
"1040 740 OFFCURVE",
"841 856 OFFCURVE",
"724 856 QCURVE SMOOTH",
"65 856 LINE",
"119 551 LINE",
"731 551 LINE SMOOTH",
"782 551 OFFCURVE",
"854 479 OFFCURVE",
"854 428 QCURVE SMOOTH",
"854 377 OFFCURVE",
"782 305 OFFCURVE",
"731 305 QCURVE SMOOTH",
"41 305 LINE",
"102 0 LINE",
"147 -163 OFFCURVE",
"286 -337 OFFCURVE",
"358 -366 QCURVE SMOOTH",
"414 -389 OFFCURVE",
"461 -389 QCURVE SMOOTH",
"475 -389 OFFCURVE",
"544 -377 OFFCURVE",
"563 -347 QCURVE SMOOTH",
"568 -339 OFFCURVE",
"568 -329 QCURVE SMOOTH",
"568 -316 OFFCURVE",
"545 -275 OFFCURVE",
"518 -240 QCURVE SMOOTH",
"482 -194 OFFCURVE",
"417 -75 OFFCURVE",
"417 0 QCURVE",
"731 0 LINE SMOOTH",
"867 0 OFFCURVE",
"1059 124 OFFCURVE",
"1159 318 OFFCURVE",
"1159 428 QCURVE SMOOTH",
"1158 547 OFFCURVE"
);
}
);
};
components = (
{
name = _part.jeemdal;
piece = {
baseLength = 42.51463;
topLength = 35.03478;
};
transform = "{1, 0, 0, 1, 203, 0}";
},
{
name = _part.tail;
transform = "{1, 0, 0, 1, 924, 0}";
}
);
layerId = "0D3446AC-0247-4F99-A3DB-2CE2433AA8CC";
paths = (
{
closed = 1;
nodes = (
"140 -249 OFFCURVE",
"336 -388 OFFCURVE",
"465 -388 CURVE SMOOTH",
"550 -388 OFFCURVE",
"568 -357 OFFCURVE",
"568 -324 CURVE SMOOTH",
"568 -291 OFFCURVE",
"415 -154 OFFCURVE",
"415 1 CURVE SMOOTH",
"415 240 LINE",
"45 306 LINE",
"97 1 LINE SMOOTH"
);
}
);
width = 1159;
}
);
unicode = FEA2;
},
{
glyphname = "hah-ar.medi";
lastChange = "2020-09-30 16:17:51 +0000";
layers = (
{
anchors = (
{
name = markabove;
position = "{507, 1024}";
},
{
name = markbelow;
position = "{430, -153}";
}
);
background = {
paths = (
{
closed = 1;
nodes = (
"604 -53 OFFCURVE",
"541 -53 QCURVE SMOOTH",
"478 -53 OFFCURVE",
"389 -143 OFFCURVE",
"389 -206 QCURVE SMOOTH",
"389 -269 OFFCURVE",
"478 -358 OFFCURVE",
"541 -358 QCURVE SMOOTH",
"604 -358 OFFCURVE",
"694 -269 OFFCURVE",
"694 -206 QCURVE SMOOTH",
"694 -143 OFFCURVE"
);
},
{
closed = 1;
nodes = (
"1001 740 OFFCURVE",
"807 856 OFFCURVE",
"689 856 QCURVE SMOOTH",
"22 856 LINE",
"76 551 LINE",
"689 551 LINE SMOOTH",
"739 551 OFFCURVE",
"811 479 OFFCURVE",
"811 428 QCURVE SMOOTH",
"811 377 OFFCURVE",
"739 305 OFFCURVE",
"689 305 QCURVE SMOOTH",
"-57 305 LINE",
"151 0 LINE",
"689 0 LINE",
"792 0 OFFCURVE",
"952 72 OFFCURVE",
"1061 194 OFFCURVE",
"1117 347 OFFCURVE",
"1117 428 QCURVE SMOOTH",
"1117 546 OFFCURVE"
);
}
);
};
components = (
{
name = _part.jeemdal;
piece = {
topLength = 37.77192;
};
transform = "{1, 0, 0, 1, 170, 0}";
},
{
name = _part.tail;
piece = {
tailLength = 26.89101;
};
transform = "{1, 0, 0, 1, -34, 0}";
},
{
name = _part.tail;
piece = {
tailLength = 44.82111;
};
transform = "{1, 0, 0, 1, 648, -1}";
}
);
layerId = "75B2229F-4D44-4147-BD02-A22690DA2091";
width = 1228;
},
{
anchors = (
{
name = markabove;
position = "{371, 1042}";
},
{
name = markbelow;
position = "{430, -153}";
}
);
background = {
paths = (
{
closed = 1;
nodes = (
"918 740 OFFCURVE",
"724 856 OFFCURVE",
"606 856 QCURVE SMOOTH",
"-61 856 LINE",
"-7 551 LINE",
"606 551 LINE SMOOTH",
"656 551 OFFCURVE",
"728 479 OFFCURVE",
"728 428 QCURVE SMOOTH",
"728 377 OFFCURVE",
"656 305 OFFCURVE",
"606 305 QCURVE SMOOTH",
"-140 305 LINE",
"68 0 LINE",
"606 0 LINE",
"709 0 OFFCURVE",
"869 72 OFFCURVE",
"978 194 OFFCURVE",
"1034 347 OFFCURVE",
"1034 428 QCURVE SMOOTH",
"1034 546 OFFCURVE"
);
}
);
};
components = (
{
name = _part.jeemdal;
piece = {
topLength = 34.64002;
};
transform = "{1, 0, 0, 1, 78, 0}";
},
{
name = _part.tail;
transform = "{1, 0, 0, 1, -138, 0}";
},
{
name = _part.tail;
transform = "{1, 0, 0, 1, 800, 0}";
}
);
layerId = "0D3446AC-0247-4F99-A3DB-2CE2433AA8CC";
width = 1098;
}
);
unicode = FEA4;
},
{
glyphname = "hah-ar.init";
lastChange = "2020-09-30 16:17:55 +0000";
layers = (
{
anchors = (
{
name = markabove;
position = "{481, 1024}";
},
{
name = markbelow;
position = "{357, -130}";
}
);
background = {
paths = (
{
closed = 1;
nodes = (
"604 -53 OFFCURVE",
"541 -53 QCURVE SMOOTH",
"478 -53 OFFCURVE",
"389 -143 OFFCURVE",
"389 -206 QCURVE SMOOTH",
"389 -269 OFFCURVE",
"478 -358 OFFCURVE",
"541 -358 QCURVE SMOOTH",
"604 -358 OFFCURVE",
"694 -269 OFFCURVE",
"694 -206 QCURVE SMOOTH",
"694 -143 OFFCURVE"
);
},
{
closed = 1;
nodes = (
"1001 740 OFFCURVE",
"807 856 OFFCURVE",
"689 856 QCURVE SMOOTH",
"22 856 LINE",
"76 551 LINE",
"689 551 LINE SMOOTH",
"739 551 OFFCURVE",
"811 479 OFFCURVE",
"811 428 QCURVE SMOOTH",
"811 377 OFFCURVE",
"739 305 OFFCURVE",
"689 305 QCURVE SMOOTH",
"-57 305 LINE",
"151 0 LINE",
"689 0 LINE",
"792 0 OFFCURVE",
"952 72 OFFCURVE",
"1061 194 OFFCURVE",
"1117 347 OFFCURVE",
"1117 428 QCURVE SMOOTH",
"1117 546 OFFCURVE"
);
}
);
};
components = (
{
name = _part.jeemdal;
piece = {
topLength = 37.77192;
};
transform = "{1, 0, 0, 1, 170, 0}";
},
{
name = _part.tail;
piece = {
tailLength = 26.89101;
};
transform = "{1, 0, 0, 1, -34, 0}";
}
);
layerId = "75B2229F-4D44-4147-BD02-A22690DA2091";
width = 1197;
},
{
anchors = (
{
name = markabove;
position = "{329, 1024}";
},
{
name = markbelow;
position = "{357, -130}";
}
);
background = {
paths = (
{
closed = 1;
nodes = (
"918 740 OFFCURVE",
"724 856 OFFCURVE",
"606 856 QCURVE SMOOTH",
"-61 856 LINE",
"-7 551 LINE",
"606 551 LINE SMOOTH",
"656 551 OFFCURVE",
"728 479 OFFCURVE",
"728 428 QCURVE SMOOTH",
"728 377 OFFCURVE",
"656 305 OFFCURVE",
"606 305 QCURVE SMOOTH",
"-140 305 LINE",
"68 0 LINE",
"606 0 LINE",
"709 0 OFFCURVE",
"869 72 OFFCURVE",
"978 194 OFFCURVE",
"1034 347 OFFCURVE",
"1034 428 QCURVE SMOOTH",
"1034 546 OFFCURVE"
);
}
);
};
components = (
{
name = _part.jeemdal;
piece = {
topLength = 34.64002;
};
transform = "{1, 0, 0, 1, 78, 0}";
},
{
name = _part.tail;
transform = "{1, 0, 0, 1, -138, 0}";
}
);
layerId = "0D3446AC-0247-4F99-A3DB-2CE2433AA8CC";
width = 1109;
}
);
unicode = FEA3;
},
{
glyphname = "khah-ar";
lastChange = "2020-09-30 16:17:59 +0000";
layers = (
{
anchors = (
{
name = markabove;
position = "{458, 1291}";
},
{
name = markbelow;
position = "{465, -487}";
}
);
background = {
paths = (
{
closed = 1;
nodes = (
"830 -53 OFFCURVE",
"767 -53 QCURVE SMOOTH",
"703 -53 OFFCURVE",
"614 -143 OFFCURVE",
"614 -206 QCURVE SMOOTH",
"614 -269 OFFCURVE",
"703 -358 OFFCURVE",
"767 -358 QCURVE SMOOTH",
"830 -358 OFFCURVE",
"919 -269 OFFCURVE",
"919 -206 QCURVE SMOOTH",
"919 -143 OFFCURVE"
);
},
{
closed = 1;
nodes = (
"1036 740 OFFCURVE",
"837 856 OFFCURVE",
"720 856 QCURVE SMOOTH",
"61 856 LINE",
"115 551 LINE",
"727 551 LINE SMOOTH",
"778 551 OFFCURVE",
"850 479 OFFCURVE",
"850 428 QCURVE SMOOTH",
"850 377 OFFCURVE",
"778 305 OFFCURVE",
"727 305 QCURVE SMOOTH",
"37 305 LINE",
"98 0 LINE",
"143 -163 OFFCURVE",
"282 -337 OFFCURVE",
"354 -366 QCURVE SMOOTH",
"410 -389 OFFCURVE",
"457 -389 QCURVE SMOOTH",
"471 -389 OFFCURVE",
"540 -377 OFFCURVE",
"559 -347 QCURVE SMOOTH",
"564 -339 OFFCURVE",
"564 -329 QCURVE SMOOTH",
"564 -316 OFFCURVE",
"541 -275 OFFCURVE",
"514 -240 QCURVE SMOOTH",
"478 -194 OFFCURVE",
"413 -75 OFFCURVE",
"413 0 QCURVE",
"727 0 LINE SMOOTH",
"863 0 OFFCURVE",
"1055 124 OFFCURVE",
"1155 318 OFFCURVE",
"1155 428 QCURVE SMOOTH",
"1154 547 OFFCURVE"
);
}
);
};
components = (
{
name = _part.jeemdal;
piece = {
baseLength = 40.60015;
topLength = 36.2177;
};
transform = "{1, 0, 0, 1, 201, 0}";
},
{
name = _singledot;
transform = "{1, 0, 0, 1, 427, 1104}";
}
);
guideLines = (
{
angle = 100.3048;
position = "{94, 18}";
}
);
layerId = "75B2229F-4D44-4147-BD02-A22690DA2091";
paths = (
{
closed = 1;
nodes = (
"137 -218 OFFCURVE",
"302 -388 OFFCURVE",
"458 -388 CURVE SMOOTH",
"466 -388 OFFCURVE",
"470 -386 OFFCURVE",
"470 -379 CURVE SMOOTH",
"470 -352 OFFCURVE",
"224 -356 OFFCURVE",
"138 -2 CURVE",
"138 34 LINE",
"91 34 LINE",
"97 1 LINE SMOOTH"
);
}
);
width = 1200;
},
{
anchors = (
{
name = markabove;
position = "{303, 1363}";
},
{
name = markbelow;
position = "{465, -487}";
}
);
background = {
paths = (
{
closed = 1;
nodes = (
"834 -53 OFFCURVE",
"771 -53 QCURVE SMOOTH",
"707 -53 OFFCURVE",
"618 -143 OFFCURVE",
"618 -206 QCURVE SMOOTH",
"618 -269 OFFCURVE",
"707 -358 OFFCURVE",
"771 -358 QCURVE SMOOTH",
"834 -358 OFFCURVE",
"923 -269 OFFCURVE",
"923 -206 QCURVE SMOOTH",
"923 -143 OFFCURVE"
);
},
{
closed = 1;
nodes = (
"1040 740 OFFCURVE",
"841 856 OFFCURVE",
"724 856 QCURVE SMOOTH",
"65 856 LINE",
"119 551 LINE",
"731 551 LINE SMOOTH",
"782 551 OFFCURVE",
"854 479 OFFCURVE",
"854 428 QCURVE SMOOTH",
"854 377 OFFCURVE",
"782 305 OFFCURVE",
"731 305 QCURVE SMOOTH",
"41 305 LINE",
"102 0 LINE",
"147 -163 OFFCURVE",
"286 -337 OFFCURVE",
"358 -366 QCURVE SMOOTH",
"414 -389 OFFCURVE",
"461 -389 QCURVE SMOOTH",
"475 -389 OFFCURVE",
"544 -377 OFFCURVE",
"563 -347 QCURVE SMOOTH",
"568 -339 OFFCURVE",
"568 -329 QCURVE SMOOTH",
"568 -316 OFFCURVE",
"545 -275 OFFCURVE",
"518 -240 QCURVE SMOOTH",
"482 -194 OFFCURVE",
"417 -75 OFFCURVE",
"417 0 QCURVE",
"731 0 LINE SMOOTH",
"867 0 OFFCURVE",
"1059 124 OFFCURVE",
"1159 318 OFFCURVE",
"1159 428 QCURVE SMOOTH",
"1158 547 OFFCURVE"
);
}
);
};
components = (
{
name = _part.jeemdal;
piece = {
baseLength = 42.51463;
topLength = 35.03478;
};
transform = "{1, 0, 0, 1, 203, 0}";
},
{
name = _singledot;
transform = "{1, 0, 0, 1, 351, 981}";
}
);
layerId = "0D3446AC-0247-4F99-A3DB-2CE2433AA8CC";
paths = (
{
closed = 1;
nodes = (
"140 -249 OFFCURVE",
"336 -388 OFFCURVE",
"465 -388 CURVE SMOOTH",
"550 -388 OFFCURVE",
"568 -357 OFFCURVE",
"568 -324 CURVE SMOOTH",
"568 -291 OFFCURVE",
"415 -154 OFFCURVE",
"415 1 CURVE SMOOTH",
"415 240 LINE",
"45 306 LINE",
"97 1 LINE SMOOTH"
);
}
);
width = 1231;
}
);
unicode = 062E;
},
{
glyphname = "khah-ar.fina";
lastChange = "2020-09-30 16:18:01 +0000";
layers = (
{
anchors = (
{
name = markabove;
position = "{412, 1308}";
},
{
name = markbelow;
position = "{428, -494}";
}
);
background = {
paths = (
{
closed = 1;
nodes = (
"830 -53 OFFCURVE",
"767 -53 QCURVE SMOOTH",
"703 -53 OFFCURVE",
"614 -143 OFFCURVE",
"614 -206 QCURVE SMOOTH",
"614 -269 OFFCURVE",
"703 -358 OFFCURVE",
"767 -358 QCURVE SMOOTH",
"830 -358 OFFCURVE",
"919 -269 OFFCURVE",
"919 -206 QCURVE SMOOTH",
"919 -143 OFFCURVE"
);
},
{
closed = 1;
nodes = (
"1036 740 OFFCURVE",
"837 856 OFFCURVE",
"720 856 QCURVE SMOOTH",
"61 856 LINE",
"115 551 LINE",
"727 551 LINE SMOOTH",
"778 551 OFFCURVE",
"850 479 OFFCURVE",
"850 428 QCURVE SMOOTH",
"850 377 OFFCURVE",
"778 305 OFFCURVE",
"727 305 QCURVE SMOOTH",
"37 305 LINE",
"98 0 LINE",
"143 -163 OFFCURVE",
"282 -337 OFFCURVE",
"354 -366 QCURVE SMOOTH",
"410 -389 OFFCURVE",
"457 -389 QCURVE SMOOTH",
"471 -389 OFFCURVE",
"540 -377 OFFCURVE",
"559 -347 QCURVE SMOOTH",
"564 -339 OFFCURVE",
"564 -329 QCURVE SMOOTH",
"564 -316 OFFCURVE",
"541 -275 OFFCURVE",
"514 -240 QCURVE SMOOTH",
"478 -194 OFFCURVE",
"413 -75 OFFCURVE",
"413 0 QCURVE",
"727 0 LINE SMOOTH",
"863 0 OFFCURVE",
"1055 124 OFFCURVE",
"1155 318 OFFCURVE",
"1155 428 QCURVE SMOOTH",
"1154 547 OFFCURVE"
);
}
);
};
components = (
{
name = _part.jeemdal;
piece = {
baseLength = 40.60015;
topLength = 36.2177;
};
transform = "{1, 0, 0, 1, 201, 0}";
},
{
name = _singledot;
transform = "{1, 0, 0, 1, 365, 1132}";
},
{
name = _part.tail;
piece = {
tailLength = 29.19473;
};
transform = "{1, 0, 0, 1, 735, 0}";
}
);
guideLines = (
{
angle = 100.3048;
position = "{94, 18}";
}
);
layerId = "75B2229F-4D44-4147-BD02-A22690DA2091";
paths = (
{
closed = 1;
nodes = (
"137 -218 OFFCURVE",
"302 -388 OFFCURVE",
"458 -388 CURVE SMOOTH",
"466 -388 OFFCURVE",
"470 -386 OFFCURVE",
"470 -379 CURVE SMOOTH",
"470 -352 OFFCURVE",
"224 -356 OFFCURVE",
"138 -2 CURVE",
"138 34 LINE",
"91 34 LINE",
"97 1 LINE SMOOTH"
);
}
);
width = 1200;
},
{
anchors = (
{
name = markabove;
position = "{363, 1405}";
},
{
name = markbelow;
position = "{428, -494}";
}
);
background = {
paths = (
{
closed = 1;
nodes = (
"834 -53 OFFCURVE",
"771 -53 QCURVE SMOOTH",
"707 -53 OFFCURVE",
"618 -143 OFFCURVE",
"618 -206 QCURVE SMOOTH",
"618 -269 OFFCURVE",
"707 -358 OFFCURVE",
"771 -358 QCURVE SMOOTH",
"834 -358 OFFCURVE",
"923 -269 OFFCURVE",
"923 -206 QCURVE SMOOTH",
"923 -143 OFFCURVE"
);
},
{
closed = 1;
nodes = (
"1040 740 OFFCURVE",
"841 856 OFFCURVE",
"724 856 QCURVE SMOOTH",
"65 856 LINE",
"119 551 LINE",
"731 551 LINE SMOOTH",
"782 551 OFFCURVE",
"854 479 OFFCURVE",
"854 428 QCURVE SMOOTH",
"854 377 OFFCURVE",
"782 305 OFFCURVE",
"731 305 QCURVE SMOOTH",
"41 305 LINE",
"102 0 LINE",
"147 -163 OFFCURVE",
"286 -337 OFFCURVE",
"358 -366 QCURVE SMOOTH",
"414 -389 OFFCURVE",
"461 -389 QCURVE SMOOTH",
"475 -389 OFFCURVE",
"544 -377 OFFCURVE",
"563 -347 QCURVE SMOOTH",
"568 -339 OFFCURVE",
"568 -329 QCURVE SMOOTH",
"568 -316 OFFCURVE",
"545 -275 OFFCURVE",
"518 -240 QCURVE SMOOTH",
"482 -194 OFFCURVE",
"417 -75 OFFCURVE",
"417 0 QCURVE",
"731 0 LINE SMOOTH",
"867 0 OFFCURVE",
"1059 124 OFFCURVE",
"1159 318 OFFCURVE",
"1159 428 QCURVE SMOOTH",
"1158 547 OFFCURVE"
);
}
);
};
components = (
{
name = _part.jeemdal;
piece = {
baseLength = 42.51463;
topLength = 35.03478;
};
transform = "{1, 0, 0, 1, 203, 0}";
},
{
name = _singledot;
transform = "{1, 0, 0, 1, 375, 990}";
},
{
name = _part.tail;
transform = "{1, 0, 0, 1, 924, 0}";
}
);
layerId = "0D3446AC-0247-4F99-A3DB-2CE2433AA8CC";
paths = (
{
closed = 1;
nodes = (
"140 -249 OFFCURVE",
"336 -388 OFFCURVE",
"465 -388 CURVE SMOOTH",
"550 -388 OFFCURVE",
"568 -357 OFFCURVE",
"568 -324 CURVE SMOOTH",
"568 -291 OFFCURVE",
"415 -154 OFFCURVE",
"415 1 CURVE SMOOTH",
"415 240 LINE",
"45 306 LINE",
"97 1 LINE SMOOTH"
);
}
);
width = 1159;
}
);
unicode = FEA6;
},
{
glyphname = "khah-ar.medi";
lastChange = "2020-09-30 16:18:04 +0000";
layers = (
{
anchors = (
{
name = markabove;
position = "{412, 1251}";
},
{
name = markbelow;
position = "{364, -152}";
}
);
background = {
paths = (
{
closed = 1;
nodes = (
"604 -53 OFFCURVE",
"541 -53 QCURVE SMOOTH",
"478 -53 OFFCURVE",
"389 -143 OFFCURVE",
"389 -206 QCURVE SMOOTH",
"389 -269 OFFCURVE",
"478 -358 OFFCURVE",
"541 -358 QCURVE SMOOTH",
"604 -358 OFFCURVE",
"694 -269 OFFCURVE",
"694 -206 QCURVE SMOOTH",
"694 -143 OFFCURVE"
);
},
{
closed = 1;
nodes = (
"1001 740 OFFCURVE",
"807 856 OFFCURVE",
"689 856 QCURVE SMOOTH",
"22 856 LINE",
"76 551 LINE",
"689 551 LINE SMOOTH",
"739 551 OFFCURVE",
"811 479 OFFCURVE",
"811 428 QCURVE SMOOTH",
"811 377 OFFCURVE",
"739 305 OFFCURVE",
"689 305 QCURVE SMOOTH",
"-57 305 LINE",
"151 0 LINE",
"689 0 LINE",
"792 0 OFFCURVE",
"952 72 OFFCURVE",
"1061 194 OFFCURVE",
"1117 347 OFFCURVE",
"1117 428 QCURVE SMOOTH",
"1117 546 OFFCURVE"
);
}
);
};
components = (
{
name = _singledot;
transform = "{1, 0, 0, 1, 374, 1068}";
},
{
name = _part.jeemdal;
piece = {
topLength = 37.77192;
};
transform = "{1, 0, 0, 1, 170, 0}";
},
{
name = _part.tail;
piece = {
tailLength = 26.89101;
};
transform = "{1, 0, 0, 1, -34, 0}";
},
{
name = _part.tail;
piece = {
tailLength = 44.82111;
};
transform = "{1, 0, 0, 1, 648, -1}";
}
);
layerId = "75B2229F-4D44-4147-BD02-A22690DA2091";
width = 1228;
},
{
anchors = (
{
name = markabove;
position = "{292, 1409}";
},
{
name = markbelow;
position = "{364, -152}";
}
);
background = {
paths = (
{
closed = 1;
nodes = (
"521 -53 OFFCURVE",
"458 -53 QCURVE SMOOTH",
"395 -53 OFFCURVE",
"306 -143 OFFCURVE",
"306 -206 QCURVE SMOOTH",
"306 -269 OFFCURVE",
"395 -358 OFFCURVE",
"458 -358 QCURVE SMOOTH",
"521 -358 OFFCURVE",
"611 -269 OFFCURVE",
"611 -206 QCURVE SMOOTH",
"611 -143 OFFCURVE"
);
},
{
closed = 1;
nodes = (
"918 740 OFFCURVE",
"724 856 OFFCURVE",
"606 856 QCURVE SMOOTH",
"-61 856 LINE",
"-7 551 LINE",
"606 551 LINE SMOOTH",
"656 551 OFFCURVE",
"728 479 OFFCURVE",
"728 428 QCURVE SMOOTH",
"728 377 OFFCURVE",
"656 305 OFFCURVE",
"606 305 QCURVE SMOOTH",
"-140 305 LINE",
"68 0 LINE",
"606 0 LINE",
"709 0 OFFCURVE",
"869 72 OFFCURVE",
"978 194 OFFCURVE",
"1034 347 OFFCURVE",
"1034 428 QCURVE SMOOTH",
"1034 546 OFFCURVE"
);
}
);
};
components = (
{
name = _singledot;
transform = "{1, 0, 0, 1, 219, 991}";
},
{
name = _part.jeemdal;
piece = {
topLength = 34.64002;
};
transform = "{1, 0, 0, 1, 78, 0}";
},
{
name = _part.tail;
transform = "{1, 0, 0, 1, -138, 0}";
},
{
name = _part.tail;
transform = "{1, 0, 0, 1, 800, 0}";
}
);
layerId = "0D3446AC-0247-4F99-A3DB-2CE2433AA8CC";
width = 1098;
}
);
unicode = FEA8;
},
{
glyphname = "khah-ar.init";
lastChange = "2020-09-30 16:18:06 +0000";
layers = (
{
anchors = (
{
name = markabove;
position = "{399, 1251}";
},
{
name = markbelow;
position = "{334, -149}";
}
);
background = {
paths = (
{
closed = 1;
nodes = (
"604 -53 OFFCURVE",
"541 -53 QCURVE SMOOTH",
"478 -53 OFFCURVE",
"389 -143 OFFCURVE",
"389 -206 QCURVE SMOOTH",
"389 -269 OFFCURVE",
"478 -358 OFFCURVE",
"541 -358 QCURVE SMOOTH",
"604 -358 OFFCURVE",
"694 -269 OFFCURVE",
"694 -206 QCURVE SMOOTH",
"694 -143 OFFCURVE"
);
},
{
closed = 1;
nodes = (
"1001 740 OFFCURVE",
"807 856 OFFCURVE",
"689 856 QCURVE SMOOTH",
"22 856 LINE",
"76 551 LINE",
"689 551 LINE SMOOTH",
"739 551 OFFCURVE",
"811 479 OFFCURVE",
"811 428 QCURVE SMOOTH",
"811 377 OFFCURVE",
"739 305 OFFCURVE",
"689 305 QCURVE SMOOTH",
"-57 305 LINE",
"151 0 LINE",
"689 0 LINE",
"792 0 OFFCURVE",
"952 72 OFFCURVE",
"1061 194 OFFCURVE",
"1117 347 OFFCURVE",
"1117 428 QCURVE SMOOTH",
"1117 546 OFFCURVE"
);
}
);
};
components = (
{
name = _singledot;
transform = "{1, 0, 0, 1, 374, 1068}";
},
{
name = _part.jeemdal;
piece = {
topLength = 37.77192;
};
transform = "{1, 0, 0, 1, 170, 0}";
},
{
name = _part.tail;
piece = {
tailLength = 26.89101;
};
transform = "{1, 0, 0, 1, -34, 0}";
}
);
layerId = "75B2229F-4D44-4147-BD02-A22690DA2091";
width = 1197;
},
{
anchors = (
{
name = markabove;
position = "{277, 1412}";
},
{
name = markbelow;
position = "{334, -149}";
}
);
background = {
paths = (
{
closed = 1;
nodes = (
"521 -53 OFFCURVE",
"458 -53 QCURVE SMOOTH",
"395 -53 OFFCURVE",
"306 -143 OFFCURVE",
"306 -206 QCURVE SMOOTH",
"306 -269 OFFCURVE",
"395 -358 OFFCURVE",
"458 -358 QCURVE SMOOTH",
"521 -358 OFFCURVE",
"611 -269 OFFCURVE",
"611 -206 QCURVE SMOOTH",
"611 -143 OFFCURVE"
);
},
{
closed = 1;
nodes = (
"918 740 OFFCURVE",
"724 856 OFFCURVE",
"606 856 QCURVE SMOOTH",
"-61 856 LINE",
"-7 551 LINE",
"606 551 LINE SMOOTH",
"656 551 OFFCURVE",
"728 479 OFFCURVE",
"728 428 QCURVE SMOOTH",
"728 377 OFFCURVE",
"656 305 OFFCURVE",
"606 305 QCURVE SMOOTH",
"-140 305 LINE",
"68 0 LINE",
"606 0 LINE",
"709 0 OFFCURVE",
"869 72 OFFCURVE",
"978 194 OFFCURVE",
"1034 347 OFFCURVE",
"1034 428 QCURVE SMOOTH",
"1034 546 OFFCURVE"
);
}
);
};
components = (
{
name = _singledot;
transform = "{1, 0, 0, 1, 219, 991}";
},
{
name = _part.jeemdal;
piece = {
topLength = 34.64002;
};
transform = "{1, 0, 0, 1, 78, 0}";
},
{
name = _part.tail;
transform = "{1, 0, 0, 1, -138, 0}";
}
);
layerId = "0D3446AC-0247-4F99-A3DB-2CE2433AA8CC";
width = 1109;
}
);
unicode = FEA7;
},
{
glyphname = "dal-ar";
lastChange = "2020-09-30 16:18:15 +0000";
layers = (
{
anchors = (
{
name = markabove;
position = "{413, 1048}";
},
{
name = markbelow;
position = "{331, -160}";
}
);
background = {
paths = (
{
closed = 1;
nodes = (
"780 741 OFFCURVE",
"585 857 OFFCURVE",
"467 857 QCURVE SMOOTH",
"-62 857 LINE",
"-8 552 LINE",
"467 552 LINE SMOOTH",
"518 552 OFFCURVE",
"590 479 OFFCURVE",
"590 429 QCURVE SMOOTH",
"590 378 OFFCURVE",
"518 306 OFFCURVE",
"467 306 QCURVE SMOOTH",
"35 306 LINE",
"89 0 LINE",
"467 0 LINE SMOOTH",
"499 0 OFFCURVE",
"529 5 QCURVE SMOOTH",
"634 21 OFFCURVE",
"799 139 OFFCURVE",
"896 321 OFFCURVE",
"896 429 QCURVE SMOOTH",
"896 547 OFFCURVE"
);
}
);
};
guideLines = (
{
angle = 90;
position = "{474, 857}";
},
{
angle = 10;
position = "{474, 428}";
},
{
angle = 100;
position = "{863, 497}";
},
{
angle = 100;
position = "{897, 502}";
},
{
angle = 100;
position = "{142, 551}";
}
);
layerId = "75B2229F-4D44-4147-BD02-A22690DA2091";
paths = (
{
closed = 1;
nodes = (
"136 823 LINE",
"474 823 LINE",
"668 823 OFFCURVE",
"830 682 OFFCURVE",
"863 497 CURVE",
"945 34 LINE",
"86 34 LINE",
"92 0 LINE",
"986 0 LINE",
"897 502 LINE",
"862 704 OFFCURVE",
"686 857 OFFCURVE",
"474 857 CURVE",
"130 857 LINE"
);
}
);
width = 986;
},
{
anchors = (
{
name = markabove;
position = "{316, 1048}";
},
{
name = markbelow;
position = "{331, -160}";
}
);
background = {
paths = (
{
closed = 1;
nodes = (
"813 741 OFFCURVE",
"618 857 OFFCURVE",
"500 857 QCURVE SMOOTH",
"-29 857 LINE",
"25 552 LINE",
"500 552 LINE SMOOTH",
"551 552 OFFCURVE",
"623 479 OFFCURVE",
"623 429 QCURVE SMOOTH",
"623 378 OFFCURVE",
"551 306 OFFCURVE",
"500 306 QCURVE SMOOTH",
"68 306 LINE",
"122 0 LINE",
"500 0 LINE SMOOTH",
"532 0 OFFCURVE",
"562 5 QCURVE SMOOTH",
"667 21 OFFCURVE",
"832 139 OFFCURVE",
"929 321 OFFCURVE",
"929 429 QCURVE SMOOTH",
"929 547 OFFCURVE"
);
}
);
};
guideLines = (
{
angle = 90;
position = "{510, 857}";
},
{
angle = 10;
position = "{510, 428}";
},
{
angle = 100;
position = "{142, 551}";
},
{
angle = 100;
position = "{932, 502}";
}
);
layerId = "0D3446AC-0247-4F99-A3DB-2CE2433AA8CC";
paths = (
{
closed = 1;
nodes = (
"192 551 LINE",
"511 551 LINE",
"570 550 OFFCURVE",
"620 506 OFFCURVE",
"630 449 CURVE",
"655 306 LINE",
"67 306 LINE",
"121 0 LINE",
"1021 0 LINE",
"932 502 LINE",
"897 703 OFFCURVE",
"722 856 OFFCURVE",
"510 857 CURVE",
"138 857 LINE"
);
}
);
width = 1021;
}
);
unicode = 062F;
},
{
glyphname = "dal-ar.fina";
lastChange = "2020-09-30 16:18:21 +0000";
layers = (
{
anchors = (
{
name = markabove;
position = "{444, 1042}";
},
{
name = markbelow;
position = "{326, -150}";
}
);
background = {
paths = (
{
closed = 1;
nodes = (
"780 741 OFFCURVE",
"585 857 OFFCURVE",
"467 857 QCURVE SMOOTH",
"-62 857 LINE",
"-8 552 LINE",
"467 552 LINE SMOOTH",
"518 552 OFFCURVE",
"590 479 OFFCURVE",
"590 429 QCURVE SMOOTH",
"590 378 OFFCURVE",
"518 306 OFFCURVE",
"467 306 QCURVE SMOOTH",
"35 306 LINE",
"89 0 LINE",
"467 0 LINE SMOOTH",
"499 0 OFFCURVE",
"529 5 QCURVE SMOOTH",
"634 21 OFFCURVE",
"799 139 OFFCURVE",
"896 321 OFFCURVE",
"896 429 QCURVE SMOOTH",
"896 547 OFFCURVE"
);
}
);
};
guideLines = (
{
angle = 90;
position = "{474, 857}";
},
{
angle = 10;
position = "{474, 428}";
},
{
angle = 100;
position = "{863, 497}";
},
{
angle = 100;
position = "{897, 502}";
},
{
angle = 100;
position = "{142, 551}";
}
);
layerId = "75B2229F-4D44-4147-BD02-A22690DA2091";
paths = (
{
closed = 1;
nodes = (
"136 823 LINE",
"474 823 LINE",
"668 823 OFFCURVE",
"830 682 OFFCURVE",
"863 497 CURVE",
"945 34 LINE",
"86 34 LINE",
"92 0 LINE",
"986 0 LINE",
"897 502 LINE",
"862 704 OFFCURVE",
"686 857 OFFCURVE",
"474 857 CURVE",
"130 857 LINE"
);
}
);
width = 986;
},
{
anchors = (
{
name = markabove;
position = "{338, 1042}";
},
{
name = markbelow;
position = "{326, -150}";
}
);
background = {
paths = (
{
closed = 1;
nodes = (
"813 741 OFFCURVE",
"618 857 OFFCURVE",
"500 857 QCURVE SMOOTH",
"-29 857 LINE",
"25 552 LINE",
"500 552 LINE SMOOTH",
"551 552 OFFCURVE",
"623 479 OFFCURVE",
"623 429 QCURVE SMOOTH",
"623 378 OFFCURVE",
"551 306 OFFCURVE",
"500 306 QCURVE SMOOTH",
"68 306 LINE",
"122 0 LINE",
"500 0 LINE SMOOTH",
"532 0 OFFCURVE",
"562 5 QCURVE SMOOTH",
"667 21 OFFCURVE",
"832 139 OFFCURVE",
"929 321 OFFCURVE",
"929 429 QCURVE SMOOTH",
"929 547 OFFCURVE"
);
}
);
};
guideLines = (
{
angle = 90;
position = "{510, 857}";
},
{
angle = 10;
position = "{510, 428}";
},
{
angle = 100;
position = "{142, 551}";
},
{
angle = 100;
position = "{932, 502}";
}
);
layerId = "0D3446AC-0247-4F99-A3DB-2CE2433AA8CC";
paths = (
{
closed = 1;
nodes = (
"192 551 LINE",
"511 551 LINE",
"570 550 OFFCURVE",
"620 506 OFFCURVE",
"630 449 CURVE",
"655 306 LINE",
"67 306 LINE",
"121 0 LINE",
"1021 0 LINE",
"932 502 LINE",
"897 703 OFFCURVE",
"722 856 OFFCURVE",
"510 857 CURVE",
"138 857 LINE"
);
}
);
width = 1021;
}
);
unicode = FEAA;
},
{
glyphname = "thal-ar";
lastChange = "2020-09-30 16:18:24 +0000";
layers = (
{
anchors = (
{
name = markabove;
position = "{364, 1274}";
},
{
name = markbelow;
position = "{376, -103}";
}
);
background = {
paths = (
{
closed = 1;
nodes = (
"780 741 OFFCURVE",
"585 857 OFFCURVE",
"467 857 QCURVE SMOOTH",
"-62 857 LINE",
"-8 552 LINE",
"467 552 LINE SMOOTH",
"518 552 OFFCURVE",
"590 479 OFFCURVE",
"590 429 QCURVE SMOOTH",
"590 378 OFFCURVE",
"518 306 OFFCURVE",
"467 306 QCURVE SMOOTH",
"35 306 LINE",
"89 0 LINE",
"467 0 LINE SMOOTH",
"499 0 OFFCURVE",
"529 5 QCURVE SMOOTH",
"634 21 OFFCURVE",
"799 139 OFFCURVE",
"896 321 OFFCURVE",
"896 429 QCURVE SMOOTH",
"896 547 OFFCURVE"
);
}
);
};
components = (
{
name = _singledot;
transform = "{1, 0, 0, 1, 317, 1079}";
}
);
guideLines = (
{
angle = 90;
position = "{474, 857}";
},
{
angle = 10;
position = "{474, 428}";
},
{
angle = 100;
position = "{863, 497}";
},
{
angle = 100;
position = "{897, 502}";
},
{
angle = 100;
position = "{142, 551}";
}
);
layerId = "75B2229F-4D44-4147-BD02-A22690DA2091";
paths = (
{
closed = 1;
nodes = (
"136 823 LINE",
"474 823 LINE",
"668 823 OFFCURVE",
"830 682 OFFCURVE",
"863 497 CURVE",
"945 34 LINE",
"86 34 LINE",
"92 0 LINE",
"986 0 LINE",
"897 502 LINE",
"862 704 OFFCURVE",
"686 857 OFFCURVE",
"474 857 CURVE",
"130 857 LINE"
);
}
);
width = 986;
},
{
anchors = (
{
name = markabove;
position = "{290, 1402}";
},
{
name = markbelow;
position = "{376, -103}";
}
);
background = {
paths = (
{
closed = 1;
nodes = (
"813 741 OFFCURVE",
"618 857 OFFCURVE",
"500 857 QCURVE SMOOTH",
"-29 857 LINE",
"25 552 LINE",
"500 552 LINE SMOOTH",
"551 552 OFFCURVE",
"623 479 OFFCURVE",
"623 429 QCURVE SMOOTH",
"623 378 OFFCURVE",
"551 306 OFFCURVE",
"500 306 QCURVE SMOOTH",
"68 306 LINE",
"122 0 LINE",
"500 0 LINE SMOOTH",
"532 0 OFFCURVE",
"562 5 QCURVE SMOOTH",
"667 21 OFFCURVE",
"832 139 OFFCURVE",
"929 321 OFFCURVE",
"929 429 QCURVE SMOOTH",
"929 547 OFFCURVE"
);
}
);
};
components = (
{
name = _singledot;
transform = "{1, 0, 0, 1, 234, 981}";
}
);
guideLines = (
{
angle = 90;
position = "{510, 857}";
},
{
angle = 10;
position = "{510, 428}";
},
{
angle = 100;
position = "{142, 551}";
},
{
angle = 100;
position = "{932, 502}";
}
);
layerId = "0D3446AC-0247-4F99-A3DB-2CE2433AA8CC";
paths = (
{
closed = 1;
nodes = (
"192 551 LINE",
"511 551 LINE",
"570 550 OFFCURVE",
"620 506 OFFCURVE",
"630 449 CURVE",
"655 306 LINE",
"67 306 LINE",
"121 0 LINE",
"1021 0 LINE",
"932 502 LINE",
"897 703 OFFCURVE",
"722 856 OFFCURVE",
"510 857 CURVE",
"138 857 LINE"
);
}
);
width = 1021;
}
);
unicode = 0630;
},
{
glyphname = "thal-ar.fina";
lastChange = "2020-09-30 16:18:27 +0000";
layers = (
{
anchors = (
{
name = markabove;
position = "{370, 1286}";
},
{
name = markbelow;
position = "{340, -103}";
}
);
background = {
paths = (
{
closed = 1;
nodes = (
"780 741 OFFCURVE",
"585 857 OFFCURVE",
"467 857 QCURVE SMOOTH",
"-62 857 LINE",
"-8 552 LINE",
"467 552 LINE SMOOTH",
"518 552 OFFCURVE",
"590 479 OFFCURVE",
"590 429 QCURVE SMOOTH",
"590 378 OFFCURVE",
"518 306 OFFCURVE",
"467 306 QCURVE SMOOTH",
"35 306 LINE",
"89 0 LINE",
"467 0 LINE SMOOTH",
"499 0 OFFCURVE",
"529 5 QCURVE SMOOTH",
"634 21 OFFCURVE",
"799 139 OFFCURVE",
"896 321 OFFCURVE",
"896 429 QCURVE SMOOTH",
"896 547 OFFCURVE"
);
}
);
};
components = (
{
name = _singledot;
transform = "{1, 0, 0, 1, 317, 1079}";
}
);
guideLines = (
{
angle = 90;
position = "{474, 857}";
},
{
angle = 10;
position = "{474, 428}";
},
{
angle = 100;
position = "{863, 497}";
},
{
angle = 100;
position = "{897, 502}";
},
{
angle = 100;
position = "{142, 551}";
}
);
layerId = "75B2229F-4D44-4147-BD02-A22690DA2091";
paths = (
{
closed = 1;
nodes = (
"136 823 LINE",
"474 823 LINE",
"668 823 OFFCURVE",
"830 682 OFFCURVE",
"863 497 CURVE",
"945 34 LINE",
"86 34 LINE",
"92 0 LINE",
"986 0 LINE",
"897 502 LINE",
"862 704 OFFCURVE",
"686 857 OFFCURVE",
"474 857 CURVE",
"130 857 LINE"
);
}
);
width = 986;
},
{
anchors = (
{
name = markabove;
position = "{332, 1394}";
},
{
name = markbelow;
position = "{340, -103}";
}
);
background = {
paths = (
{
closed = 1;
nodes = (
"813 741 OFFCURVE",
"618 857 OFFCURVE",
"500 857 QCURVE SMOOTH",
"-29 857 LINE",
"25 552 LINE",
"500 552 LINE SMOOTH",
"551 552 OFFCURVE",
"623 479 OFFCURVE",
"623 429 QCURVE SMOOTH",
"623 378 OFFCURVE",
"551 306 OFFCURVE",
"500 306 QCURVE SMOOTH",
"68 306 LINE",
"122 0 LINE",
"500 0 LINE SMOOTH",
"532 0 OFFCURVE",
"562 5 QCURVE SMOOTH",
"667 21 OFFCURVE",
"832 139 OFFCURVE",
"929 321 OFFCURVE",
"929 429 QCURVE SMOOTH",
"929 547 OFFCURVE"
);
}
);
};
components = (
{
name = _singledot;
transform = "{1, 0, 0, 1, 234, 981}";
}
);
guideLines = (
{
angle = 90;
position = "{510, 857}";
},
{
angle = 10;
position = "{510, 428}";
},
{
angle = 100;
position = "{142, 551}";
},
{
angle = 100;
position = "{932, 502}";
}
);
layerId = "0D3446AC-0247-4F99-A3DB-2CE2433AA8CC";
paths = (
{
closed = 1;
nodes = (
"192 551 LINE",
"511 551 LINE",
"570 550 OFFCURVE",
"620 506 OFFCURVE",
"630 449 CURVE",
"655 306 LINE",
"67 306 LINE",
"121 0 LINE",
"1021 0 LINE",
"932 502 LINE",
"897 703 OFFCURVE",
"722 856 OFFCURVE",
"510 857 CURVE",
"138 857 LINE"
);
}
);
width = 1021;
}
);
unicode = FEAC;
},
{
glyphname = "reh-ar";
lastChange = "2020-09-30 16:18:31 +0000";
layers = (
{
anchors = (
{
name = markabove;
position = "{6, 1080}";
},
{
name = markbelow;
position = "{203, -465}";
}
);
guideLines = (
{
angle = 100;
position = "{143, 306}";
},
{
angle = 100;
position = "{177, 299}";
}
);
layerId = "75B2229F-4D44-4147-BD02-A22690DA2091";
paths = (
{
closed = 1;
nodes = (
"44 857 LINE",
"143 306 LINE",
"186 52 OFFCURVE",
"101 -154 OFFCURVE",
"-70 -349 CURVE",
"-48 -377 LINE",
"60 -285 OFFCURVE",
"231 0 OFFCURVE",
"177 299 CURVE",
"77 857 LINE"
);
}
);
width = 232;
},
{
anchors = (
{
name = markabove;
position = "{118, 1044}";
},
{
name = markbelow;
position = "{203, -465}";
}
);
guideLines = (
{
angle = 100;
position = "{113, 303}";
},
{
angle = 100;
position = "{419, 300}";
}
);
layerId = "0D3446AC-0247-4F99-A3DB-2CE2433AA8CC";
paths = (
{
closed = 1;
nodes = (
"13 857 LINE",
"113 303 LINE",
"144 134 OFFCURVE",
"73 -29 OFFCURVE",
"-23 -134 CURVE",
"193 -377 LINE",
"301 -285 OFFCURVE",
"472 0 OFFCURVE",
"418 299 CURVE",
"318 857 LINE"
);
}
);
width = 473;
}
);
unicode = 0631;
},
{
glyphname = "reh-ar.fina";
lastChange = "2020-09-30 16:18:34 +0000";
layers = (
{
anchors = (
{
name = markabove;
position = "{31, 1024}";
},
{
name = markbelow;
position = "{212, -477}";
}
);
components = (
{
name = _part.tail;
transform = "{1, 0, 0, 1, 158, 0}";
}
);
guideLines = (
{
angle = 100;
position = "{158, 306}";
},
{
angle = 100;
position = "{192, 299}";
}
);
layerId = "75B2229F-4D44-4147-BD02-A22690DA2091";
paths = (
{
closed = 1;
nodes = (
"59 857 LINE",
"158 306 LINE",
"201 52 OFFCURVE",
"116 -154 OFFCURVE",
"-55 -349 CURVE",
"-33 -377 LINE",
"75 -285 OFFCURVE",
"246 0 OFFCURVE",
"192 299 CURVE",
"92 857 LINE"
);
}
);
width = 247;
},
{
anchors = (
{
name = markabove;
position = "{132, 1024}";
},
{
name = markbelow;
position = "{212, -477}";
}
);
components = (
{
name = _part.tail;
transform = "{1, 0, 0, 1, 305, 0}";
}
);
guideLines = (
{
angle = 100;
position = "{132, 303}";
},
{
angle = 100;
position = "{438, 300}";
}
);
layerId = "0D3446AC-0247-4F99-A3DB-2CE2433AA8CC";
paths = (
{
closed = 1;
nodes = (
"32 857 LINE",
"132 303 LINE",
"163 134 OFFCURVE",
"92 -29 OFFCURVE",
"-4 -134 CURVE",
"212 -377 LINE",
"320 -285 OFFCURVE",
"491 0 OFFCURVE",
"437 299 CURVE",
"337 857 LINE"
);
}
);
width = 492;
}
);
unicode = FEAE;
},
{
glyphname = "zain-ar";
lastChange = "2020-09-30 16:18:38 +0000";
layers = (
{
anchors = (
{
name = markabove;
position = "{-106, 1272}";
},
{
name = markbelow;
position = "{148, -483}";
}
);
components = (
{
name = _singledot;
transform = "{1, 0, 0, 1, -106, 1078}";
}
);
guideLines = (
{
angle = 100;
position = "{64, 306}";
},
{
angle = 100;
position = "{98, 299}";
}
);
layerId = "75B2229F-4D44-4147-BD02-A22690DA2091";
paths = (
{
closed = 1;
nodes = (
"-35 857 LINE",
"64 306 LINE",
"107 52 OFFCURVE",
"22 -154 OFFCURVE",
"-149 -349 CURVE",
"-127 -377 LINE",
"-19 -285 OFFCURVE",
"152 0 OFFCURVE",
"98 299 CURVE",
"-2 857 LINE"
);
}
);
width = 153;
},
{
anchors = (
{
name = markabove;
position = "{25, 1460}";
},
{
name = markbelow;
position = "{148, -483}";
}
);
components = (
{
name = _singledot;
transform = "{1, 0, 0, 1, -85, 1016}";
}
);
guideLines = (
{
angle = 100;
position = "{65, 303}";
},
{
angle = 100;
position = "{371, 300}";
}
);
layerId = "0D3446AC-0247-4F99-A3DB-2CE2433AA8CC";
paths = (
{
closed = 1;
nodes = (
"-35 857 LINE",
"65 303 LINE",
"96 134 OFFCURVE",
"25 -29 OFFCURVE",
"-71 -134 CURVE",
"145 -377 LINE",
"253 -285 OFFCURVE",
"424 0 OFFCURVE",
"370 299 CURVE",
"270 857 LINE"
);
}
);
width = 425;
}
);
unicode = 0632;
},
{
glyphname = "zain-ar.fina";
lastChange = "2020-09-30 16:18:42 +0000";
layers = (
{
anchors = (
{
name = markabove;
position = "{-39, 1294}";
},
{
name = markbelow;
position = "{209, -512}";
}
);
components = (
{
name = _part.tail;
transform = "{1, 0, 0, 1, 135, 0}";
},
{
name = _singledot;
transform = "{1, 0, 0, 1, -27, 1056}";
}
);
guideLines = (
{
angle = 100;
position = "{135, 306}";
},
{
angle = 100;
position = "{169, 299}";
}
);
layerId = "75B2229F-4D44-4147-BD02-A22690DA2091";
paths = (
{
closed = 1;
nodes = (
"36 857 LINE",
"135 306 LINE",
"178 52 OFFCURVE",
"93 -154 OFFCURVE",
"-78 -349 CURVE",
"-56 -377 LINE",
"52 -285 OFFCURVE",
"223 0 OFFCURVE",
"169 299 CURVE",
"69 857 LINE"
);
}
);
width = 224;
},
{
anchors = (
{
name = markabove;
position = "{46, 1431}";
},
{
name = markbelow;
position = "{209, -512}";
}
);
components = (
{
name = _part.tail;
transform = "{1, 0, 0, 1, 287, 0}";
},
{
name = _singledot;
transform = "{1, 0, 0, 1, -41, 983}";
}
);
guideLines = (
{
angle = 100;
position = "{114, 303}";
},
{
angle = 100;
position = "{420, 300}";
}
);
layerId = "0D3446AC-0247-4F99-A3DB-2CE2433AA8CC";
paths = (
{
closed = 1;
nodes = (
"14 857 LINE",
"114 303 LINE",
"145 134 OFFCURVE",
"74 -29 OFFCURVE",
"-22 -134 CURVE",
"194 -377 LINE",
"302 -285 OFFCURVE",
"473 0 OFFCURVE",
"419 299 CURVE",
"319 857 LINE"
);
}
);
width = 474;
}
);
unicode = FEB0;
},
{
glyphname = "seen-ar";
lastChange = "2020-09-30 16:18:46 +0000";
layers = (
{
anchors = (
{
name = markabove;
position = "{754, 1097}";
},
{
name = markbelow;
position = "{225, -434}";
}
);
components = (
{
name = _part.seentooth;
piece = {
baseLength = 17;
};
transform = "{1, 0, 0, 1, 1357, 0}";
},
{
name = _part.seentooth;
piece = {
baseLength = 26.901;
};
transform = "{1, 0, 0, 1, 1119, 0}";
}
);
guideLines = (
{
position = "{1260, 831}";
}
);
layerId = "75B2229F-4D44-4147-BD02-A22690DA2091";
paths = (
{
closed = 1;
nodes = (
"1172 331 OFFCURVE",
"1175 300 OFFCURVE",
"1175 267 CURVE SMOOTH",
"1175 -36 OFFCURVE",
"930 -281 OFFCURVE",
"627 -281 CURVE SMOOTH",
"324 -281 OFFCURVE",
"79 -36 OFFCURVE",
"79 267 CURVE SMOOTH",
"79 570 OFFCURVE",
"324 815 OFFCURVE",
"627 815 CURVE SMOOTH",
"642 815 OFFCURVE",
"657 814 OFFCURVE",
"672 813 CURVE",
"665 848 LINE",
"652 849 OFFCURVE",
"640 849 OFFCURVE",
"627 849 CURVE SMOOTH",
"306 849 OFFCURVE",
"45 588 OFFCURVE",
"45 267 CURVE SMOOTH",
"45 -54 OFFCURVE",
"306 -315 OFFCURVE",
"627 -315 CURVE SMOOTH",
"948 -315 OFFCURVE",
"1209 -54 OFFCURVE",
"1209 267 CURVE SMOOTH",
"1209 302 OFFCURVE",
"1206 335 OFFCURVE",
"1200 368 CURVE",
"1114 857 LINE",
"1085 831 LINE",
"1167 363 LINE"
);
}
);
width = 1671;
},
{
anchors = (
{
name = markabove;
position = "{492, 1066}";
},
{
name = markbelow;
position = "{225, -434}";
}
);
background = {
paths = (
{
closed = 1;
nodes = (
"1596 659 LINE",
"1658 306 LINE",
"1591 306 LINE",
"1493 858 LINE",
"1223 659 LINE",
"1287 306 LINE",
"1210 306 LINE",
"1113 857 LINE",
"843 659 LINE",
"910 299 LINE",
"912 279 OFFCURVE",
"912 259 QCURVE SMOOTH",
"912 161 OFFCURVE",
"765 -4 OFFCURVE",
"638 -8 QCURVE",
"521 -5 OFFCURVE",
"365 151 OFFCURVE",
"363 268 QCURVE SMOOTH",
"366 375 OFFCURVE",
"505 527 OFFCURVE",
"612 539 QCURVE SMOOTH",
"625 540 OFFCURVE",
"639 540 QCURVE SMOOTH",
"688 540 OFFCURVE",
"732 523 QCURVE",
"670 843 LINE",
"654 844 OFFCURVE",
"638 844 QCURVE SMOOTH",
"471 844 OFFCURVE",
"199 674 OFFCURVE",
"125 533 QCURVE SMOOTH",
"59 411 OFFCURVE",
"59 264 QCURVE SMOOTH",
"59 243 OFFCURVE",
"61 221 QCURVE SMOOTH",
"82 3 OFFCURVE",
"378 -291 OFFCURVE",
"596 -311 QCURVE SMOOTH",
"615 -312 OFFCURVE",
"633 -312 QCURVE SMOOTH",
"794 -312 OFFCURVE",
"1071 -150 OFFCURVE",
"1151 0 QCURVE",
"2016 0 LINE",
"1864 858 LINE"
);
}
);
};
components = (
{
name = _part.seentooth;
piece = {
baseLength = 56.91393;
};
transform = "{1, 0, 0, 1, 1347, 0}";
},
{
name = _part.seentooth;
piece = {
baseLength = 85.5731;
};
transform = "{1, 0, 0, 1, 912, 0}";
}
);
layerId = "0D3446AC-0247-4F99-A3DB-2CE2433AA8CC";
paths = (
{
closed = 1;
nodes = (
"902 299 OFFCURVE",
"903 283 OFFCURVE",
"903 267 CURVE SMOOTH",
"903 115 OFFCURVE",
"779 -9 OFFCURVE",
"627 -9 CURVE SMOOTH",
"475 -9 OFFCURVE",
"351 115 OFFCURVE",
"351 267 CURVE SMOOTH",
"351 419 OFFCURVE",
"475 543 OFFCURVE",
"627 543 CURVE SMOOTH",
"661 543 OFFCURVE",
"693 537 OFFCURVE",
"722 526 CURVE",
"665 848 LINE",
"652 849 OFFCURVE",
"640 849 OFFCURVE",
"627 849 CURVE SMOOTH",
"306 849 OFFCURVE",
"45 588 OFFCURVE",
"45 267 CURVE SMOOTH",
"45 -54 OFFCURVE",
"306 -315 OFFCURVE",
"627 -315 CURVE SMOOTH",
"948 -315 OFFCURVE",
"1209 -54 OFFCURVE",
"1209 267 CURVE SMOOTH",
"1209 301 OFFCURVE",
"1206 335 OFFCURVE",
"1200 368 CURVE",
"1114 857 LINE",
"843 659 LINE",
"899 314 LINE"
);
}
);
width = 2071;
}
);
unicode = 0633;
},
{
glyphname = "seen-ar.fina";
lastChange = "2020-09-30 16:18:50 +0000";
layers = (
{
anchors = (
{
name = markabove;
position = "{848, 1093}";
},
{
name = markbelow;
position = "{169, -365}";
}
);
components = (
{
name = _part.seentooth;
piece = {
baseLength = 17;
};
transform = "{1, 0, 0, 1, 1357, 0}";
},
{
name = _part.seentooth;
piece = {
baseLength = 26.901;
};
transform = "{1, 0, 0, 1, 1119, 0}";
}
);
guideLines = (
{
position = "{1260, 831}";
}
);
layerId = "75B2229F-4D44-4147-BD02-A22690DA2091";
paths = (
{
closed = 1;
nodes = (
"1172 331 OFFCURVE",
"1175 300 OFFCURVE",
"1175 267 CURVE SMOOTH",
"1175 -36 OFFCURVE",
"930 -281 OFFCURVE",
"627 -281 CURVE SMOOTH",
"324 -281 OFFCURVE",
"79 -36 OFFCURVE",
"79 267 CURVE SMOOTH",
"79 570 OFFCURVE",
"324 815 OFFCURVE",
"627 815 CURVE SMOOTH",
"642 815 OFFCURVE",
"657 814 OFFCURVE",
"672 813 CURVE",
"665 848 LINE",
"652 849 OFFCURVE",
"640 849 OFFCURVE",
"627 849 CURVE SMOOTH",
"306 849 OFFCURVE",
"45 588 OFFCURVE",
"45 267 CURVE SMOOTH",
"45 -54 OFFCURVE",
"306 -315 OFFCURVE",
"627 -315 CURVE SMOOTH",
"948 -315 OFFCURVE",
"1209 -54 OFFCURVE",
"1209 267 CURVE SMOOTH",
"1209 302 OFFCURVE",
"1206 335 OFFCURVE",
"1200 368 CURVE",
"1114 857 LINE",
"1085 831 LINE",
"1167 363 LINE"
);
}
);
width = 1615;
},
{
anchors = (
{
name = markabove;
position = "{326, 1024}";
},
{
name = markbelow;
position = "{169, -365}";
}
);
background = {
paths = (
{
closed = 1;
nodes = (
"1596 659 LINE",
"1658 306 LINE",
"1591 306 LINE",
"1493 858 LINE",
"1223 659 LINE",
"1287 306 LINE",
"1210 306 LINE",
"1113 857 LINE",
"843 659 LINE",
"910 299 LINE",
"912 279 OFFCURVE",
"912 259 QCURVE SMOOTH",
"912 161 OFFCURVE",
"765 -4 OFFCURVE",
"638 -8 QCURVE",
"521 -5 OFFCURVE",
"365 151 OFFCURVE",
"363 268 QCURVE SMOOTH",
"366 375 OFFCURVE",
"505 527 OFFCURVE",
"612 539 QCURVE SMOOTH",
"625 540 OFFCURVE",
"639 540 QCURVE SMOOTH",
"688 540 OFFCURVE",
"732 523 QCURVE",
"670 843 LINE",
"654 844 OFFCURVE",
"638 844 QCURVE SMOOTH",
"471 844 OFFCURVE",
"199 674 OFFCURVE",
"125 533 QCURVE SMOOTH",
"59 411 OFFCURVE",
"59 264 QCURVE SMOOTH",
"59 243 OFFCURVE",
"61 221 QCURVE SMOOTH",
"82 3 OFFCURVE",
"378 -291 OFFCURVE",
"596 -311 QCURVE SMOOTH",
"615 -312 OFFCURVE",
"633 -312 QCURVE SMOOTH",
"794 -312 OFFCURVE",
"1071 -150 OFFCURVE",
"1151 0 QCURVE",
"2016 0 LINE",
"1864 858 LINE"
);
}
);
};
components = (
{
name = _part.seentooth;
piece = {
baseLength = 56.91393;
};
transform = "{1, 0, 0, 1, 1347, 0}";
},
{
name = _part.seentooth;
piece = {
baseLength = 85.5731;
};
transform = "{1, 0, 0, 1, 912, 0}";
}
);
layerId = "0D3446AC-0247-4F99-A3DB-2CE2433AA8CC";
paths = (
{
closed = 1;
nodes = (
"902 299 OFFCURVE",
"903 283 OFFCURVE",
"903 267 CURVE SMOOTH",
"903 115 OFFCURVE",
"779 -9 OFFCURVE",
"627 -9 CURVE SMOOTH",
"475 -9 OFFCURVE",
"351 115 OFFCURVE",
"351 267 CURVE SMOOTH",
"351 419 OFFCURVE",
"475 543 OFFCURVE",
"627 543 CURVE SMOOTH",
"661 543 OFFCURVE",
"693 537 OFFCURVE",
"722 526 CURVE",
"665 848 LINE",
"652 849 OFFCURVE",
"640 849 OFFCURVE",
"627 849 CURVE SMOOTH",
"306 849 OFFCURVE",
"45 588 OFFCURVE",
"45 267 CURVE SMOOTH",
"45 -54 OFFCURVE",
"306 -315 OFFCURVE",
"627 -315 CURVE SMOOTH",
"948 -315 OFFCURVE",
"1209 -54 OFFCURVE",
"1209 267 CURVE SMOOTH",
"1209 301 OFFCURVE",
"1206 335 OFFCURVE",
"1200 368 CURVE",
"1114 857 LINE",
"843 659 LINE",
"899 314 LINE"
);
}
);
width = 2026;
}
);
unicode = FEB2;
},
{
glyphname = "seen-ar.medi";
lastChange = "2020-09-30 16:18:53 +0000";
layers = (
{
anchors = (
{
name = markabove;
position = "{264, 1102}";
},
{
name = markbelow;
position = "{374, -135}";
}
);
components = (
{
name = _part.seentooth;
piece = {
baseLength = 22.99166;
};
transform = "{1, 0, 0, 1, -32, 0}";
},
{
name = _part.seentooth;
piece = {
baseLength = 10.34949;
};
transform = "{1, 0, 0, 1, 229, 0}";
},
{
name = _part.seentooth;
piece = {
baseLength = 8.685;
};
transform = "{1, 0, 0, 1, 412, 0}";
}
);
layerId = "75B2229F-4D44-4147-BD02-A22690DA2091";
width = 618;
},
{
anchors = (
{
name = markabove;
position = "{386, 1102}";
},
{
name = markbelow;
position = "{374, -135}";
}
);
background = {
paths = (
{
closed = 1;
nodes = (
"736 659 LINE",
"798 307 LINE",
"731 307 LINE",
"633 857 LINE",
"363 659 LINE",
"425 307 LINE",
"352 307 LINE",
"257 857 LINE",
"-15 659 LINE",
"47 307 LINE",
"-165 307 LINE",
"65 0 LINE",
"1158 0 LINE",
"1007 857 LINE"
);
}
);
};
components = (
{
name = _part.seentooth;
transform = "{1, 0, 0, 1, -163, 0}";
},
{
name = _part.seentooth;
piece = {
baseLength = 25.15459;
};
transform = "{1, 0, 0, 1, 165, 0}";
},
{
name = _part.seentooth;
piece = {
baseLength = 26.038;
};
transform = "{1, 0, 0, 1, 545, 0}";
}
);
layerId = "0D3446AC-0247-4F99-A3DB-2CE2433AA8CC";
width = 1165;
}
);
unicode = FEB4;
},
{
glyphname = "seen-ar.init";
lastChange = "2020-09-30 16:18:57 +0000";
layers = (
{
anchors = (
{
name = markabove;
position = "{260, 1047}";
},
{
name = markbelow;
position = "{391, -142}";
}
);
components = (
{
name = _part.seentooth;
piece = {
baseLength = 22.99166;
};
transform = "{1, 0, 0, 1, -32, 0}";
},
{
name = _part.seentooth;
piece = {
baseLength = 10.34949;
};
transform = "{1, 0, 0, 1, 229, 0}";
},
{
name = _part.seentooth;
piece = {
baseLength = 8.685;
};
transform = "{1, 0, 0, 1, 412, 0}";
}
);
layerId = "75B2229F-4D44-4147-BD02-A22690DA2091";
width = 618;
},
{
anchors = (
{
name = markabove;
position = "{351, 1084}";
},
{
name = markbelow;
position = "{391, -142}";
}
);
background = {
paths = (
{
closed = 1;
nodes = (
"736 659 LINE",
"798 307 LINE",
"731 307 LINE",
"633 857 LINE",
"363 659 LINE",
"425 307 LINE",
"352 307 LINE",
"257 857 LINE",
"-15 659 LINE",
"47 307 LINE",
"-165 307 LINE",
"65 0 LINE",
"1158 0 LINE",
"1007 857 LINE"
);
}
);
};
components = (
{
name = _part.seentooth;
transform = "{1, 0, 0, 1, -163, 0}";
},
{
name = _part.seentooth;
piece = {
baseLength = 25.15459;
};
transform = "{1, 0, 0, 1, 165, 0}";
},
{
name = _part.seentooth;
piece = {
baseLength = 26.038;
};
transform = "{1, 0, 0, 1, 545, 0}";
}
);
layerId = "0D3446AC-0247-4F99-A3DB-2CE2433AA8CC";
width = 1165;
}
);
unicode = FEB3;
},
{
glyphname = "sheen-ar";
lastChange = "2020-09-30 16:19:04 +0000";
layers = (
{
anchors = (
{
name = markabove;
position = "{662, 1152}";
},
{
name = markbelow;
position = "{222, -387}";
}
);
components = (
{
name = _part.seentooth;
piece = {
baseLength = 17;
};
transform = "{1, 0, 0, 1, 1357, 0}";
},
{
name = _part.seentooth;
piece = {
baseLength = 26.901;
};
transform = "{1, 0, 0, 1, 1119, 0}";
},
{
name = _singledot;
transform = "{1, 0, 0, 1, 1269, 1087}";
},
{
name = _singledot;
transform = "{1, 0, 0, 1, 1155, 1088}";
},
{
name = _singledot;
transform = "{1, 0, 0, 1, 1205, 1200}";
}
);
guideLines = (
{
position = "{1260, 831}";
}
);
layerId = "75B2229F-4D44-4147-BD02-A22690DA2091";
paths = (
{
closed = 1;
nodes = (
"1172 331 OFFCURVE",
"1175 300 OFFCURVE",
"1175 267 CURVE SMOOTH",
"1175 -36 OFFCURVE",
"930 -281 OFFCURVE",
"627 -281 CURVE SMOOTH",
"324 -281 OFFCURVE",
"79 -36 OFFCURVE",
"79 267 CURVE SMOOTH",
"79 570 OFFCURVE",
"324 815 OFFCURVE",
"627 815 CURVE SMOOTH",
"642 815 OFFCURVE",
"657 814 OFFCURVE",
"672 813 CURVE",
"665 848 LINE",
"652 849 OFFCURVE",
"640 849 OFFCURVE",
"627 849 CURVE SMOOTH",
"306 849 OFFCURVE",
"45 588 OFFCURVE",
"45 267 CURVE SMOOTH",
"45 -54 OFFCURVE",
"306 -315 OFFCURVE",
"627 -315 CURVE SMOOTH",
"948 -315 OFFCURVE",
"1209 -54 OFFCURVE",
"1209 267 CURVE SMOOTH",
"1209 302 OFFCURVE",
"1206 335 OFFCURVE",
"1200 368 CURVE",
"1114 857 LINE",
"1085 831 LINE",
"1167 363 LINE"
);
}
);
width = 1671;
},
{
anchors = (
{
name = markabove;
position = "{475, 1383}";
},
{
name = markbelow;
position = "{222, -387}";
}
);
background = {
paths = (
{
closed = 1;
nodes = (
"1596 659 LINE",
"1658 306 LINE",
"1591 306 LINE",
"1493 858 LINE",
"1223 659 LINE",
"1287 306 LINE",
"1210 306 LINE",
"1113 857 LINE",
"843 659 LINE",
"910 299 LINE",
"912 279 OFFCURVE",
"912 259 QCURVE SMOOTH",
"912 161 OFFCURVE",
"765 -4 OFFCURVE",
"638 -8 QCURVE",
"521 -5 OFFCURVE",
"365 151 OFFCURVE",
"363 268 QCURVE SMOOTH",
"366 375 OFFCURVE",
"505 527 OFFCURVE",
"612 539 QCURVE SMOOTH",
"625 540 OFFCURVE",
"639 540 QCURVE SMOOTH",
"688 540 OFFCURVE",
"732 523 QCURVE",
"670 843 LINE",
"654 844 OFFCURVE",
"638 844 QCURVE SMOOTH",
"471 844 OFFCURVE",
"199 674 OFFCURVE",
"125 533 QCURVE SMOOTH",
"59 411 OFFCURVE",
"59 264 QCURVE SMOOTH",
"59 243 OFFCURVE",
"61 221 QCURVE SMOOTH",
"82 3 OFFCURVE",
"378 -291 OFFCURVE",
"596 -311 QCURVE SMOOTH",
"615 -312 OFFCURVE",
"633 -312 QCURVE SMOOTH",
"794 -312 OFFCURVE",
"1071 -150 OFFCURVE",
"1151 0 QCURVE",
"2016 0 LINE",
"1864 858 LINE"
);
}
);
};
components = (
{
name = _part.seentooth;
piece = {
baseLength = 56.91393;
};
transform = "{1, 0, 0, 1, 1347, 0}";
},
{
name = _part.seentooth;
piece = {
baseLength = 85.5731;
};
transform = "{1, 0, 0, 1, 912, 0}";
},
{
name = _singledot;
transform = "{1, 0, 0, 1, 1437, 981}";
},
{
name = _singledot;
transform = "{1, 0, 0, 1, 1178, 979}";
},
{
name = _singledot;
transform = "{1, 0, 0, 1, 1309, 1274}";
}
);
layerId = "0D3446AC-0247-4F99-A3DB-2CE2433AA8CC";
paths = (
{
closed = 1;
nodes = (
"902 299 OFFCURVE",
"903 283 OFFCURVE",
"903 267 CURVE SMOOTH",
"903 115 OFFCURVE",
"779 -9 OFFCURVE",
"627 -9 CURVE SMOOTH",
"475 -9 OFFCURVE",
"351 115 OFFCURVE",
"351 267 CURVE SMOOTH",
"351 419 OFFCURVE",
"475 543 OFFCURVE",
"627 543 CURVE SMOOTH",
"661 543 OFFCURVE",
"693 537 OFFCURVE",
"722 526 CURVE",
"665 848 LINE",
"652 849 OFFCURVE",
"640 849 OFFCURVE",
"627 849 CURVE SMOOTH",
"306 849 OFFCURVE",
"45 588 OFFCURVE",
"45 267 CURVE SMOOTH",
"45 -54 OFFCURVE",
"306 -315 OFFCURVE",
"627 -315 CURVE SMOOTH",
"948 -315 OFFCURVE",
"1209 -54 OFFCURVE",
"1209 267 CURVE SMOOTH",
"1209 301 OFFCURVE",
"1206 335 OFFCURVE",
"1200 368 CURVE",
"1114 857 LINE",
"843 659 LINE",
"899 314 LINE"
);
}
);
width = 2071;
}
);
unicode = 0634;
},
{
glyphname = "sheen-ar.fina";
lastChange = "2020-09-30 16:19:06 +0000";
layers = (
{
anchors = (
{
name = markabove;
position = "{640, 1136}";
},
{
name = markbelow;
position = "{202, -365}";
}
);
components = (
{
name = _part.seentooth;
piece = {
baseLength = 17;
};
transform = "{1, 0, 0, 1, 1357, 0}";
},
{
name = _part.seentooth;
piece = {
baseLength = 26.901;
};
transform = "{1, 0, 0, 1, 1119, 0}";
},
{
name = _singledot;
transform = "{1, 0, 0, 1, 1269, 1087}";
},
{
name = _singledot;
transform = "{1, 0, 0, 1, 1155, 1088}";
},
{
name = _singledot;
transform = "{1, 0, 0, 1, 1205, 1200}";
}
);
guideLines = (
{
position = "{1260, 831}";
}
);
layerId = "75B2229F-4D44-4147-BD02-A22690DA2091";
paths = (
{
closed = 1;
nodes = (
"1172 331 OFFCURVE",
"1175 300 OFFCURVE",
"1175 267 CURVE SMOOTH",
"1175 -36 OFFCURVE",
"930 -281 OFFCURVE",
"627 -281 CURVE SMOOTH",
"324 -281 OFFCURVE",
"79 -36 OFFCURVE",
"79 267 CURVE SMOOTH",
"79 570 OFFCURVE",
"324 815 OFFCURVE",
"627 815 CURVE SMOOTH",
"642 815 OFFCURVE",
"657 814 OFFCURVE",
"672 813 CURVE",
"665 848 LINE",
"652 849 OFFCURVE",
"640 849 OFFCURVE",
"627 849 CURVE SMOOTH",
"306 849 OFFCURVE",
"45 588 OFFCURVE",
"45 267 CURVE SMOOTH",
"45 -54 OFFCURVE",
"306 -315 OFFCURVE",
"627 -315 CURVE SMOOTH",
"948 -315 OFFCURVE",
"1209 -54 OFFCURVE",
"1209 267 CURVE SMOOTH",
"1209 302 OFFCURVE",
"1206 335 OFFCURVE",
"1200 368 CURVE",
"1114 857 LINE",
"1085 831 LINE",
"1167 363 LINE"
);
}
);
width = 1615;
},
{
anchors = (
{
name = markabove;
position = "{378, 1342}";
},
{
name = markbelow;
position = "{202, -365}";
}
);
background = {
paths = (
{
closed = 1;
nodes = (
"1596 659 LINE",
"1658 306 LINE",
"1591 306 LINE",
"1493 858 LINE",
"1223 659 LINE",
"1287 306 LINE",
"1210 306 LINE",
"1113 857 LINE",
"843 659 LINE",
"910 299 LINE",
"912 279 OFFCURVE",
"912 259 QCURVE SMOOTH",
"912 161 OFFCURVE",
"765 -4 OFFCURVE",
"638 -8 QCURVE",
"521 -5 OFFCURVE",
"365 151 OFFCURVE",
"363 268 QCURVE SMOOTH",
"366 375 OFFCURVE",
"505 527 OFFCURVE",
"612 539 QCURVE SMOOTH",
"625 540 OFFCURVE",
"639 540 QCURVE SMOOTH",
"688 540 OFFCURVE",
"732 523 QCURVE",
"670 843 LINE",
"654 844 OFFCURVE",
"638 844 QCURVE SMOOTH",
"471 844 OFFCURVE",
"199 674 OFFCURVE",
"125 533 QCURVE SMOOTH",
"59 411 OFFCURVE",
"59 264 QCURVE SMOOTH",
"59 243 OFFCURVE",
"61 221 QCURVE SMOOTH",
"82 3 OFFCURVE",
"378 -291 OFFCURVE",
"596 -311 QCURVE SMOOTH",
"615 -312 OFFCURVE",
"633 -312 QCURVE SMOOTH",
"794 -312 OFFCURVE",
"1071 -150 OFFCURVE",
"1151 0 QCURVE",
"2016 0 LINE",
"1864 858 LINE"
);
}
);
};
components = (
{
name = _part.seentooth;
piece = {
baseLength = 56.91393;
};
transform = "{1, 0, 0, 1, 1347, 0}";
},
{
name = _part.seentooth;
piece = {
baseLength = 85.5731;
};
transform = "{1, 0, 0, 1, 912, 0}";
},
{
name = _singledot;
transform = "{1, 0, 0, 1, 1437, 981}";
},
{
name = _singledot;
transform = "{1, 0, 0, 1, 1178, 979}";
},
{
name = _singledot;
transform = "{1, 0, 0, 1, 1309, 1274}";
}
);
layerId = "0D3446AC-0247-4F99-A3DB-2CE2433AA8CC";
paths = (
{
closed = 1;
nodes = (
"902 299 OFFCURVE",
"903 283 OFFCURVE",
"903 267 CURVE SMOOTH",
"903 115 OFFCURVE",
"779 -9 OFFCURVE",
"627 -9 CURVE SMOOTH",
"475 -9 OFFCURVE",
"351 115 OFFCURVE",
"351 267 CURVE SMOOTH",
"351 419 OFFCURVE",
"475 543 OFFCURVE",
"627 543 CURVE SMOOTH",
"661 543 OFFCURVE",
"693 537 OFFCURVE",
"722 526 CURVE",
"665 848 LINE",
"652 849 OFFCURVE",
"640 849 OFFCURVE",
"627 849 CURVE SMOOTH",
"306 849 OFFCURVE",
"45 588 OFFCURVE",
"45 267 CURVE SMOOTH",
"45 -54 OFFCURVE",
"306 -315 OFFCURVE",
"627 -315 CURVE SMOOTH",
"948 -315 OFFCURVE",
"1209 -54 OFFCURVE",
"1209 267 CURVE SMOOTH",
"1209 301 OFFCURVE",
"1206 335 OFFCURVE",
"1200 368 CURVE",
"1114 857 LINE",
"843 659 LINE",
"899 314 LINE"
);
}
);
width = 2026;
}
);
unicode = FEB6;
},
{
glyphname = "sheen-ar.medi";
lastChange = "2020-09-30 16:19:09 +0000";
layers = (
{
anchors = (
{
name = markabove;
position = "{189, 1362}";
},
{
name = markbelow;
position = "{424, -103}";
}
);
components = (
{
name = _part.seentooth;
piece = {
baseLength = 22.99166;
};
transform = "{1, 0, 0, 1, -32, 0}";
},
{
name = _part.seentooth;
piece = {
baseLength = 10.34949;
};
transform = "{1, 0, 0, 1, 229, 0}";
},
{
name = _part.seentooth;
piece = {
baseLength = 8.685;
};
transform = "{1, 0, 0, 1, 412, 0}";
},
{
name = _singledot;
transform = "{1, 0, 0, 1, 155, 1076}";
},
{
name = _singledot;
transform = "{1, 0, 0, 1, 285, 1075}";
},
{
name = _singledot;
transform = "{1, 0, 0, 1, 219, 1178}";
}
);
layerId = "75B2229F-4D44-4147-BD02-A22690DA2091";
width = 618;
},
{
anchors = (
{
name = markabove;
position = "{261, 1650}";
},
{
name = markbelow;
position = "{424, -103}";
}
);
background = {
paths = (
{
closed = 1;
nodes = (
"736 659 LINE",
"798 307 LINE",
"731 307 LINE",
"633 857 LINE",
"363 659 LINE",
"425 307 LINE",
"352 307 LINE",
"257 857 LINE",
"-15 659 LINE",
"47 307 LINE",
"-165 307 LINE",
"65 0 LINE",
"1158 0 LINE",
"1007 857 LINE"
);
}
);
};
components = (
{
name = _part.seentooth;
transform = "{1, 0, 0, 1, -163, 0}";
},
{
name = _part.seentooth;
piece = {
baseLength = 25.15459;
};
transform = "{1, 0, 0, 1, 165, 0}";
},
{
name = _part.seentooth;
piece = {
baseLength = 26.038;
};
transform = "{1, 0, 0, 1, 545, 0}";
},
{
name = _singledot;
transform = "{1, 0, 0, 1, 264, 963}";
},
{
name = _singledot;
transform = "{1, 0, 0, 1, 528, 960}";
},
{
name = _singledot;
transform = "{1, 0, 0, 1, 394, 1269}";
}
);
layerId = "0D3446AC-0247-4F99-A3DB-2CE2433AA8CC";
width = 1165;
}
);
unicode = FEB8;
},
